<svg width="78" height="48" viewBox="0 0 78 48" fill="none" xmlns="http://www.w3.org/2000/svg">
<path d="M77.0844 19.815C74.1229 17.2281 70.6933 15.3858 66.98 14.002C55.1927 9.60837 40.5286 9.82752 28.7409 5.43464C25.7846 4.33295 23.0111 2.94202 20.5071 1.11548C20.2258 0.910358 19.9167 0.747782 19.5913 0.62652C17.9443 0.0127232 15.8902 0.461523 15.0369 1.82912L0.396163 25.295C-0.186682 26.2292 -0.0471312 27.3724 0.839706 28.1459C3.80075 30.7335 7.2303 32.5759 10.9436 33.9597C22.7313 38.3526 37.3964 38.1338 49.1842 42.5267C52.1405 43.6283 54.9139 45.0193 57.4179 46.8458C57.6993 47.0509 58.0083 47.2135 58.3337 47.3348C59.9808 47.9486 62.0348 47.4998 62.8881 46.1322L77.5284 22.667C78.1108 21.7317 77.9707 20.5893 77.0844 19.815ZM18.6427 5.12462C20.3356 6.21499 22.2287 7.15108 24.2331 8.02204C22.3141 9.98614 18.8189 10.7029 15.8521 9.59724L18.6427 5.12462ZM5.49062 26.2044L7.69555 22.6704C10.9849 23.8962 12.3879 26.9051 10.9593 29.4841C8.88668 28.5466 7.07883 27.4627 5.49062 26.2044ZM34.5316 31.0814C30.3025 29.5054 28.8593 25.0485 31.3056 21.1276C33.7523 17.206 39.1638 15.3046 43.392 16.8803C47.6201 18.456 49.0648 22.9125 46.6181 26.834C44.1709 30.7564 38.7589 32.6567 34.5316 31.0814ZM59.2809 42.8371C57.8068 41.8875 56.1795 41.0568 54.4718 40.2755C56.2371 38.5558 59.2209 37.8628 61.9446 38.5678L59.2809 42.8371ZM70.1768 25.3734C67.401 23.9825 66.2971 21.22 67.676 18.8304C69.4459 19.6878 71.0339 20.6497 72.433 21.7572L70.1768 25.3734Z" fill="#55229E" fill-opacity="0.11"/>
</svg>
