<svg width="25" height="22" viewBox="0 0 25 22" fill="none" xmlns="http://www.w3.org/2000/svg">
<path d="M23.1 9.24194H4.8356L10.4258 2.52753C10.6872 2.21304 10.813 1.80758 10.7754 1.40037C10.7379 0.99315 10.5401 0.617526 10.2256 0.356129C9.91111 0.0947311 9.50565 -0.0310283 9.09844 0.00651652C8.69122 0.0440613 8.3156 0.241835 8.0542 0.556329L0.3542 9.79634C0.302395 9.86983 0.25607 9.94704 0.2156 10.0273C0.2156 10.1043 0.2156 10.1505 0.1078 10.2275C0.0379974 10.4041 0.00144933 10.5921 0 10.7819C0.00144933 10.9718 0.0379974 11.1598 0.1078 11.3363C0.1078 11.4133 0.1078 11.4595 0.2156 11.5365C0.25607 11.6168 0.302395 11.694 0.3542 11.7675L8.0542 21.0075C8.19899 21.1814 8.38031 21.3212 8.58526 21.417C8.79021 21.5128 9.01376 21.5623 9.24 21.5619C9.59982 21.5626 9.94854 21.4373 10.2256 21.2077C10.3815 21.0785 10.5104 20.9197 10.6049 20.7405C10.6994 20.5613 10.7576 20.3653 10.7762 20.1636C10.7948 19.9619 10.7734 19.7585 10.7133 19.5651C10.6532 19.3716 10.5555 19.192 10.4258 19.0363L4.8356 12.3219H23.1C23.5084 12.3219 23.9001 12.1597 24.1889 11.8709C24.4778 11.5821 24.64 11.1904 24.64 10.7819C24.64 10.3735 24.4778 9.9818 24.1889 9.69299C23.9001 9.40419 23.5084 9.24194 23.1 9.24194Z" fill="white"/>
</svg>
