<svg width="1728" height="1117" viewBox="0 0 1728 1117" fill="none" xmlns="http://www.w3.org/2000/svg">
<g clip-path="url(#clip0_310_1081)">
<rect width="1728" height="1117" fill="white"/>
<rect width="884" height="1117" fill="#55229E" fill-opacity="0.63"/>
<path d="M955 1067.5C955 1134.6 900.603 1189 833.5 1189C766.397 1189 712 1134.6 712 1067.5C712 1000.4 766.397 946 833.5 946C900.603 946 955 1000.4 955 1067.5ZM729.306 1067.5C729.306 1125.05 775.955 1171.69 833.5 1171.69C891.045 1171.69 937.694 1125.05 937.694 1067.5C937.694 1009.95 891.045 963.306 833.5 963.306C775.955 963.306 729.306 1009.95 729.306 1067.5Z" fill="white" fill-opacity="0.3"/>
<path d="M928 1067.5C928 1119.69 885.691 1162 833.5 1162C781.309 1162 739 1119.69 739 1067.5C739 1015.31 781.309 973 833.5 973C885.691 973 928 1015.31 928 1067.5ZM756.46 1067.5C756.46 1110.05 790.952 1144.54 833.5 1144.54C876.048 1144.54 910.54 1110.05 910.54 1067.5C910.54 1024.95 876.048 990.46 833.5 990.46C790.952 990.46 756.46 1024.95 756.46 1067.5Z" fill="white" fill-opacity="0.3"/>
<path d="M177 1067.5C177 1134.6 122.603 1189 55.5 1189C-11.6026 1189 -66 1134.6 -66 1067.5C-66 1000.4 -11.6026 946 55.5 946C122.603 946 177 1000.4 177 1067.5ZM-48.6945 1067.5C-48.6945 1125.05 -2.04503 1171.69 55.5 1171.69C113.045 1171.69 159.694 1125.05 159.694 1067.5C159.694 1009.95 113.045 963.306 55.5 963.306C-2.04503 963.306 -48.6945 1009.95 -48.6945 1067.5Z" fill="white" fill-opacity="0.3"/>
<path d="M150 1067.5C150 1119.69 107.691 1162 55.5 1162C3.30909 1162 -39 1119.69 -39 1067.5C-39 1015.31 3.30909 973 55.5 973C107.691 973 150 1015.31 150 1067.5ZM-21.5402 1067.5C-21.5402 1110.05 12.9519 1144.54 55.5 1144.54C98.0481 1144.54 132.54 1110.05 132.54 1067.5C132.54 1024.95 98.0481 990.46 55.5 990.46C12.9519 990.46 -21.5402 1024.95 -21.5402 1067.5Z" fill="white" fill-opacity="0.3"/>
<path d="M165 47.5C165 114.603 110.603 169 43.5 169C-23.6026 169 -78 114.603 -78 47.5C-78 -19.6026 -23.6026 -74 43.5 -74C110.603 -74 165 -19.6026 165 47.5ZM-60.6945 47.5C-60.6945 105.045 -14.045 151.694 43.5 151.694C101.045 151.694 147.694 105.045 147.694 47.5C147.694 -10.045 101.045 -56.6945 43.5 -56.6945C-14.045 -56.6945 -60.6945 -10.045 -60.6945 47.5Z" fill="white" fill-opacity="0.3"/>
<path d="M138 47.5C138 99.6909 95.6909 142 43.5 142C-8.69091 142 -51 99.6909 -51 47.5C-51 -4.69091 -8.69091 -47 43.5 -47C95.6909 -47 138 -4.69091 138 47.5ZM-33.5402 47.5C-33.5402 90.0481 0.951894 124.54 43.5 124.54C86.0481 124.54 120.54 90.0481 120.54 47.5C120.54 4.95189 86.0481 -29.5402 43.5 -29.5402C0.951894 -29.5402 -33.5402 4.95189 -33.5402 47.5Z" fill="white" fill-opacity="0.3"/>
<path d="M712 47.5C712 114.603 766.397 169 833.5 169C900.603 169 955 114.603 955 47.5C955 -19.6026 900.603 -74 833.5 -74C766.397 -74 712 -19.6026 712 47.5ZM937.694 47.5C937.694 105.045 891.045 151.694 833.5 151.694C775.955 151.694 729.306 105.045 729.306 47.5C729.306 -10.045 775.955 -56.6945 833.5 -56.6945C891.045 -56.6945 937.694 -10.045 937.694 47.5Z" fill="white" fill-opacity="0.3"/>
<path d="M739 47.5C739 99.6909 781.309 142 833.5 142C885.691 142 928 99.6909 928 47.5C928 -4.69091 885.691 -47 833.5 -47C781.309 -47 739 -4.69091 739 47.5ZM910.54 47.5C910.54 90.0481 876.048 124.54 833.5 124.54C790.952 124.54 756.46 90.0481 756.46 47.5C756.46 4.95189 790.952 -29.5402 833.5 -29.5402C876.048 -29.5402 910.54 4.95189 910.54 47.5Z" fill="white" fill-opacity="0.3"/>
<path d="M606.997 771H592.769L586 732L607 732.001L606.997 771Z" fill="#A0616A"/>
<path d="M610.999 788L566 787.998V787.274C566 784.349 566.453 781.452 567.333 778.75C568.213 776.048 569.504 773.592 571.13 771.524C572.756 769.455 574.687 767.815 576.812 766.695C578.937 765.576 581.215 765 583.515 765H583.516L611 765.001L610.999 788Z" fill="#2F2E41"/>
<path d="M663.997 771H649.769L643 732L664 732.001L663.997 771Z" fill="#A0616A"/>
<path d="M665.999 788L619 787.998V787.274C619 784.349 619.473 781.452 620.392 778.75C621.312 776.048 622.659 773.592 624.358 771.524C626.057 769.455 628.073 767.815 630.293 766.695C632.512 765.576 634.891 765 637.293 765H637.295L666 765.001L665.999 788Z" fill="#55229E"/>
<path d="M837.815 788H386.185C385.871 788 385.57 787.842 385.347 787.561C385.125 787.279 385 786.898 385 786.5C385 786.102 385.125 785.721 385.347 785.439C385.57 785.158 385.871 785 386.185 785H837.815C838.129 785 838.431 785.158 838.653 785.439C838.875 785.721 839 786.102 839 786.5C839 786.898 838.875 787.279 838.653 787.561C838.431 787.842 838.129 788 837.815 788Z" fill="#3F3D56"/>
<path d="M264.356 447H122.644C116.641 446.994 110.885 444.718 106.64 440.672C102.395 436.626 100.007 431.14 100 425.418V361.582C100.007 355.86 102.395 350.374 106.64 346.328C110.885 342.282 116.641 340.006 122.644 340H264.356C270.359 340.006 276.115 342.282 280.36 346.328C284.605 350.374 286.993 355.86 287 361.582V425.418C286.993 431.14 284.605 436.626 280.36 440.672C276.115 444.718 270.359 446.994 264.356 447V447Z" fill="#55229E"/>
<path d="M504.356 447H362.644C356.641 446.994 350.885 444.718 346.64 440.672C342.395 436.626 340.007 431.14 340 425.418V361.582C340.007 355.86 342.395 350.374 346.64 346.328C350.885 342.282 356.641 340.006 362.644 340H504.356C510.359 340.006 516.115 342.282 520.36 346.328C524.605 350.374 526.993 355.86 527 361.582V425.418C526.993 431.14 524.605 436.626 520.36 440.672C516.115 444.718 510.359 446.994 504.356 447V447Z" fill="#55229E"/>
<path d="M347.762 605.536C343.691 601.675 341.417 596.457 341.41 591.032V527.968C341.417 522.543 343.691 517.325 347.762 513.464C351.834 509.602 357.371 507.417 363.161 507.41H503.839C509.629 507.417 515.166 509.602 519.238 513.464C523.309 517.325 525.583 522.543 525.59 527.969V591.031C525.583 596.457 523.309 601.675 519.238 605.535C515.166 609.399 509.628 611.584 503.838 611.59H363.162C357.372 611.584 351.834 609.399 347.762 605.536Z" fill="#F2F2F2" stroke="#55229E" stroke-width="2.82036"/>
<path d="M107.762 605.535C103.692 601.675 101.417 596.457 101.41 591.032V527.968C101.417 522.543 103.692 517.325 107.762 513.465C111.834 509.602 117.371 507.417 123.161 507.41H263.839C269.629 507.417 275.166 509.602 279.238 513.464C283.309 517.325 285.583 522.543 285.59 527.969V591.031C285.583 596.457 283.309 601.675 279.238 605.535C275.165 609.399 269.628 611.584 263.838 611.59H123.162C117.372 611.584 111.834 609.399 107.762 605.535Z" fill="#F2F2F2" stroke="#55229E" stroke-width="2.82036"/>
<path d="M588.862 605.528C584.725 601.665 582.417 596.45 582.41 591.032V527.968C582.417 522.55 584.725 517.335 588.862 513.472C593.003 509.606 598.638 507.417 604.533 507.41H747.467C753.362 507.417 758.996 509.606 763.138 513.472C767.276 517.335 769.583 522.551 769.59 527.969V591.031C769.583 596.449 767.276 601.665 763.138 605.528C758.996 609.394 753.362 611.584 747.466 611.59H604.534C598.638 611.584 593.004 609.394 588.862 605.528Z" fill="#F2F2F2" stroke="#55229E" stroke-width="2.82036"/>
<path d="M747.466 445.59H604.534C598.638 445.584 593.004 443.394 588.862 439.528C584.725 435.665 582.417 430.45 582.41 425.032V361.968C582.417 356.55 584.725 351.335 588.862 347.472C593.003 343.606 598.638 341.417 604.533 341.41H747.467C753.362 341.417 758.996 343.606 763.138 347.472C767.276 351.335 769.583 356.551 769.59 361.969V425.031C769.583 430.449 767.276 435.665 763.138 439.528C758.996 443.394 753.362 445.584 747.466 445.59Z" fill="#F2F2F2" stroke="#55229E" stroke-width="2.82036"/>
<path d="M195.5 433C216.763 433 234 415.763 234 394.5C234 373.237 216.763 356 195.5 356C174.237 356 157 373.237 157 394.5C157 415.763 174.237 433 195.5 433Z" fill="white"/>
<path d="M191.094 407C190.16 407.001 189.251 406.791 188.504 406.4L188.457 406.376L178.702 401.171C178.249 400.93 177.869 400.629 177.584 400.286C177.298 399.943 177.113 399.563 177.038 399.17C176.963 398.777 177 398.377 177.147 397.993C177.294 397.61 177.547 397.25 177.894 396.935C178.24 396.62 178.672 396.356 179.165 396.157C179.659 395.959 180.203 395.83 180.768 395.778C181.332 395.726 181.906 395.752 182.456 395.855C183.006 395.958 183.522 396.135 183.974 396.377L190.293 399.753L205.226 386.183C205.572 385.868 206.004 385.604 206.497 385.405C206.99 385.207 207.534 385.078 208.098 385.026C208.662 384.974 209.236 385 209.786 385.103C210.336 385.205 210.851 385.382 211.303 385.624L211.21 385.711L211.305 385.625C212.216 386.113 212.812 386.833 212.963 387.626C213.113 388.42 212.805 389.223 212.107 389.859L194.542 405.821C194.136 406.189 193.614 406.487 193.016 406.691C192.418 406.896 191.76 407.001 191.094 407V407Z" fill="#55229E"/>
<path d="M435.5 433C456.763 433 474 415.763 474 394.5C474 373.237 456.763 356 435.5 356C414.237 356 397 373.237 397 394.5C397 415.763 414.237 433 435.5 433Z" fill="white"/>
<path d="M431.701 407C430.793 407.001 429.909 406.791 429.182 406.4L429.137 406.376L419.651 401.171C418.764 400.684 418.183 399.964 418.036 399.17C417.89 398.376 418.189 397.573 418.869 396.937C419.549 396.301 420.553 395.885 421.661 395.78C422.769 395.675 423.89 395.889 424.777 396.377L430.922 399.753L445.441 386.182C445.778 385.868 446.198 385.604 446.677 385.405C447.156 385.207 447.685 385.078 448.234 385.026C448.782 384.974 449.34 385 449.875 385.103C450.409 385.205 450.91 385.382 451.35 385.624L451.259 385.711L451.352 385.625C452.238 386.113 452.817 386.833 452.964 387.626C453.11 388.42 452.811 389.223 452.132 389.859L435.054 405.821C434.659 406.189 434.151 406.487 433.569 406.691C432.988 406.896 432.348 407.001 431.701 407V407Z" fill="#55229E"/>
<path d="M486.834 399.309C486.9 399.966 486.909 400.628 486.86 401.287L539.089 437.394L553.9 431.931L566 450.932L540.826 462.892C538.793 463.858 536.465 464.206 534.193 463.882C531.92 463.559 529.826 462.583 528.224 461.099L476.019 412.754C473.256 413.314 470.368 413.105 467.74 412.154C465.112 411.204 462.869 409.558 461.308 407.434C459.747 405.311 458.943 402.81 459.003 400.266C459.063 397.722 459.983 395.255 461.642 393.192C463.301 391.13 465.62 389.57 468.29 388.72C470.96 387.87 473.855 387.77 476.59 388.434C479.325 389.098 481.769 390.494 483.599 392.437C485.429 394.379 486.557 396.776 486.833 399.309H486.834Z" fill="#A0616A"/>
<path d="M589.455 753.774C588.167 753.775 586.924 753.294 585.971 752.423C585.017 751.553 584.422 750.356 584.303 749.069L572 583.03L572.581 582.983L657.243 576L657.266 576.604L663.996 748.606C664.022 749.305 663.908 750.002 663.659 750.655C663.411 751.308 663.034 751.904 662.55 752.408C662.067 752.911 661.487 753.312 660.846 753.586C660.204 753.859 659.515 754 658.818 754H642.218C640.979 754.006 639.779 753.563 638.838 752.754C637.897 751.944 637.279 750.821 637.096 749.591L614.554 610.644C614.532 610.5 614.457 610.37 614.343 610.28C614.23 610.189 614.087 610.145 613.943 610.155C613.799 610.166 613.664 610.231 613.565 610.336C613.466 610.442 613.41 610.582 613.409 610.727L612.386 747.916C612.376 749.241 611.862 750.512 610.95 751.471C610.038 752.429 608.796 753.001 607.477 753.072L589.734 753.766C589.64 753.772 589.547 753.774 589.455 753.774Z" fill="#2F2E41"/>
<path d="M603.5 376C619.24 376 632 364.136 632 349.5C632 334.864 619.24 323 603.5 323C587.76 323 575 334.864 575 349.5C575 364.136 587.76 376 603.5 376Z" fill="#A0616A"/>
<path d="M607.023 593C594.216 592.964 581.471 591.313 569.124 588.091C567.936 587.764 566.903 587.058 566.2 586.093C565.496 585.127 565.166 583.962 565.263 582.793C569.208 526.612 570.135 483.014 561.841 452.849C558.305 439.992 559.91 426.451 566.244 415.699C575.776 399.517 593.296 389.668 611.984 390.009C612.877 390.025 613.779 390.055 614.69 390.099C643.051 391.483 665.15 415.797 663.954 444.3L658.249 580.156C658.228 581.148 657.898 582.111 657.3 582.924C656.703 583.738 655.864 584.366 654.89 584.728C639.587 590.184 623.373 592.986 607.023 593Z" fill="#55229E"/>
<path d="M567.705 461.662L546.496 436.784C545.893 436.076 545.455 435.252 545.215 434.368C544.974 433.484 544.935 432.56 545.101 431.661C545.266 430.761 545.633 429.906 546.175 429.154C546.717 428.402 547.422 427.77 548.242 427.303L576.971 410.915C580.772 407.98 585.634 406.607 590.491 407.098C595.348 407.588 599.803 409.903 602.879 413.533C605.956 417.164 607.403 421.815 606.903 426.465C606.403 431.115 603.997 435.386 600.212 438.341L577.758 461.926C577.115 462.601 576.328 463.136 575.45 463.493C574.571 463.851 573.623 464.023 572.669 463.998C571.714 463.973 570.777 463.751 569.921 463.348C569.064 462.945 568.308 462.37 567.705 461.662V461.662Z" fill="#55229E"/>
<path d="M634.573 463.428C633.665 463.044 632.855 462.479 632.199 461.773C631.542 461.066 631.055 460.234 630.771 459.333L620.817 427.877C618.657 423.521 618.413 418.533 620.139 414.008C621.865 409.482 625.421 405.788 630.026 403.736C634.631 401.684 639.91 401.441 644.705 403.061C649.499 404.681 653.418 408.031 655.601 412.377L674.849 439.84C675.399 440.624 675.763 441.51 675.917 442.439C676.071 443.368 676.011 444.317 675.742 445.222C675.472 446.127 675 446.966 674.356 447.683C673.712 448.4 672.913 448.977 672.011 449.376L640.339 463.382C639.438 463.781 638.456 463.992 637.461 464C636.466 464.008 635.481 463.812 634.573 463.428V463.428Z" fill="#55229E"/>
<path d="M617.481 372.615L594.919 367.912C592.592 367.427 589.796 366.501 589.473 364.347C589.04 361.451 593.614 359.435 593.192 356.538C592.784 353.732 588.616 353.371 585.645 352.543C582.878 351.658 580.596 349.828 579.285 347.439C577.973 345.051 577.733 342.29 578.616 339.743C575.401 343.87 568.056 344.223 563.886 340.88C559.716 337.537 558.916 331.471 561.42 326.955C562.773 324.736 564.681 322.84 566.991 321.42C569.3 320 571.945 319.096 574.709 318.783C580.269 318.209 585.889 319.163 590.848 321.523C591.178 318.325 595.562 317.029 599.089 317C606.415 317.078 613.532 319.234 619.449 323.167C625.367 327.101 629.791 332.617 632.106 338.948C636.433 351.648 633.539 365.569 621.431 373L617.481 372.615Z" fill="#2F2E41"/>
<path d="M207 582C220.255 582 231 571.255 231 558C231 544.745 220.255 534 207 534C193.745 534 183 544.745 183 558C183 571.255 193.745 582 207 582Z" fill="#55229E"/>
<path d="M684.5 582C697.479 582 708 571.255 708 558C708 544.745 697.479 534 684.5 534C671.521 534 661 544.745 661 558C661 571.255 671.521 582 684.5 582Z" fill="#55229E"/>
<path d="M695.678 566.916C696.929 565.588 697.864 564.01 698.419 562.293C698.974 560.576 699.134 558.761 698.888 556.977C698.643 555.194 697.997 553.484 696.998 551.968C695.998 550.453 694.668 549.169 693.102 548.207L671.848 438L646 447.308L675.02 552.71C673.529 555.372 673.096 558.473 673.802 561.424C674.508 564.376 676.305 566.973 678.851 568.724C681.398 570.475 684.517 571.258 687.618 570.925C690.72 570.592 693.587 569.166 695.678 566.916V566.916Z" fill="#A0616A"/>
<path d="M1166.6 418.376V421H1156.41V418.376H1166.6ZM1157.34 401.805V421H1154.03V401.805H1157.34ZM1165.27 409.82V412.404H1156.41V409.82H1165.27ZM1166.53 401.805V404.441H1156.41V401.805H1166.53ZM1172.13 409.781V421H1168.96V406.735H1171.95L1172.13 409.781ZM1171.57 413.34L1170.54 413.327C1170.55 412.316 1170.69 411.389 1170.96 410.545C1171.24 409.702 1171.63 408.977 1172.12 408.37C1172.62 407.764 1173.22 407.298 1173.91 406.973C1174.61 406.639 1175.38 406.472 1176.23 406.472C1176.92 406.472 1177.54 406.568 1178.09 406.762C1178.66 406.946 1179.13 407.25 1179.53 407.671C1179.93 408.093 1180.24 408.643 1180.45 409.319C1180.66 409.987 1180.77 410.809 1180.77 411.785V421H1177.58V411.771C1177.58 411.086 1177.48 410.545 1177.28 410.15C1177.08 409.746 1176.8 409.46 1176.42 409.293C1176.05 409.117 1175.59 409.029 1175.03 409.029C1174.49 409.029 1174 409.144 1173.57 409.372C1173.14 409.601 1172.78 409.913 1172.48 410.308C1172.19 410.704 1171.96 411.161 1171.8 411.679C1171.65 412.198 1171.57 412.751 1171.57 413.34ZM1190.55 406.735V409.056H1182.51V406.735H1190.55ZM1184.83 403.242H1188.01V417.058C1188.01 417.498 1188.07 417.836 1188.19 418.073C1188.32 418.302 1188.5 418.456 1188.73 418.535C1188.96 418.614 1189.23 418.653 1189.54 418.653C1189.76 418.653 1189.97 418.64 1190.17 418.614C1190.37 418.587 1190.53 418.561 1190.66 418.535L1190.67 420.96C1190.41 421.04 1190.1 421.11 1189.75 421.171C1189.4 421.233 1189.01 421.264 1188.56 421.264C1187.83 421.264 1187.19 421.136 1186.62 420.881C1186.06 420.618 1185.62 420.191 1185.3 419.603C1184.99 419.014 1184.83 418.231 1184.83 417.256V403.242ZM1199.29 421.264C1198.24 421.264 1197.28 421.092 1196.43 420.75C1195.59 420.398 1194.87 419.91 1194.27 419.286C1193.68 418.662 1193.23 417.928 1192.91 417.084C1192.59 416.241 1192.44 415.331 1192.44 414.355V413.828C1192.44 412.712 1192.6 411.701 1192.92 410.796C1193.25 409.891 1193.7 409.117 1194.28 408.476C1194.86 407.825 1195.55 407.329 1196.34 406.986C1197.13 406.643 1197.99 406.472 1198.91 406.472C1199.93 406.472 1200.82 406.643 1201.59 406.986C1202.35 407.329 1202.98 407.812 1203.48 408.436C1203.99 409.051 1204.37 409.785 1204.62 410.638C1204.87 411.49 1205 412.431 1205 413.459V414.817H1193.98V412.536H1201.86V412.286C1201.85 411.714 1201.73 411.178 1201.52 410.677C1201.32 410.176 1201.01 409.772 1200.58 409.464C1200.16 409.157 1199.6 409.003 1198.9 409.003C1198.37 409.003 1197.9 409.117 1197.49 409.346C1197.08 409.565 1196.74 409.886 1196.47 410.308C1196.2 410.73 1195.99 411.24 1195.84 411.837C1195.7 412.426 1195.63 413.09 1195.63 413.828V414.355C1195.63 414.979 1195.71 415.56 1195.88 416.096C1196.05 416.623 1196.31 417.084 1196.64 417.48C1196.98 417.875 1197.38 418.188 1197.85 418.416C1198.33 418.636 1198.87 418.746 1199.48 418.746C1200.24 418.746 1200.92 418.592 1201.52 418.284C1202.12 417.977 1202.64 417.542 1203.08 416.979L1204.75 418.601C1204.44 419.049 1204.04 419.479 1203.55 419.893C1203.06 420.297 1202.46 420.626 1201.74 420.881C1201.04 421.136 1200.22 421.264 1199.29 421.264ZM1210.67 409.451V421H1207.49V406.735H1210.52L1210.67 409.451ZM1215.03 406.643L1215.01 409.596C1214.81 409.561 1214.6 409.535 1214.37 409.517C1214.15 409.5 1213.93 409.491 1213.71 409.491C1213.17 409.491 1212.69 409.57 1212.28 409.728C1211.86 409.877 1211.52 410.097 1211.24 410.387C1210.96 410.668 1210.75 411.011 1210.6 411.416C1210.45 411.82 1210.37 412.272 1210.34 412.773L1209.61 412.826C1209.61 411.93 1209.7 411.099 1209.88 410.334C1210.05 409.57 1210.32 408.897 1210.67 408.317C1211.03 407.737 1211.48 407.285 1212.01 406.959C1212.56 406.634 1213.19 406.472 1213.9 406.472C1214.09 406.472 1214.3 406.489 1214.52 406.524C1214.75 406.56 1214.92 406.599 1215.03 406.643ZM1227.89 419.444L1231.76 406.735H1235.16L1229.44 423.175C1229.31 423.527 1229.14 423.909 1228.93 424.322C1228.72 424.735 1228.44 425.126 1228.1 425.496C1227.76 425.874 1227.35 426.177 1226.85 426.405C1226.34 426.643 1225.74 426.761 1225.03 426.761C1224.75 426.761 1224.47 426.735 1224.21 426.682C1223.95 426.638 1223.71 426.59 1223.48 426.537L1223.47 424.111C1223.56 424.12 1223.66 424.129 1223.79 424.138C1223.92 424.146 1224.02 424.151 1224.1 424.151C1224.63 424.151 1225.07 424.085 1225.42 423.953C1225.77 423.83 1226.06 423.628 1226.28 423.347C1226.51 423.065 1226.7 422.688 1226.86 422.213L1227.89 419.444ZM1225.7 406.735L1229.09 417.414L1229.65 420.763L1227.45 421.33L1222.27 406.735H1225.7ZM1236.17 414.026V413.723C1236.17 412.694 1236.32 411.741 1236.61 410.862C1236.91 409.974 1237.34 409.205 1237.91 408.555C1238.48 407.896 1239.17 407.386 1239.99 407.025C1240.82 406.656 1241.75 406.472 1242.78 406.472C1243.83 406.472 1244.76 406.656 1245.58 407.025C1246.41 407.386 1247.1 407.896 1247.68 408.555C1248.25 409.205 1248.68 409.974 1248.98 410.862C1249.28 411.741 1249.43 412.694 1249.43 413.723V414.026C1249.43 415.054 1249.28 416.008 1248.98 416.887C1248.68 417.766 1248.25 418.535 1247.68 419.194C1247.1 419.844 1246.41 420.354 1245.59 420.723C1244.78 421.083 1243.85 421.264 1242.81 421.264C1241.77 421.264 1240.83 421.083 1240 420.723C1239.19 420.354 1238.49 419.844 1237.92 419.194C1237.35 418.535 1236.91 417.766 1236.61 416.887C1236.32 416.008 1236.17 415.054 1236.17 414.026ZM1239.34 413.723V414.026C1239.34 414.667 1239.41 415.274 1239.54 415.845C1239.67 416.417 1239.88 416.917 1240.16 417.348C1240.44 417.779 1240.8 418.117 1241.24 418.363C1241.68 418.609 1242.2 418.732 1242.81 418.732C1243.4 418.732 1243.91 418.609 1244.34 418.363C1244.78 418.117 1245.14 417.779 1245.42 417.348C1245.7 416.917 1245.91 416.417 1246.04 415.845C1246.18 415.274 1246.25 414.667 1246.25 414.026V413.723C1246.25 413.09 1246.18 412.492 1246.04 411.93C1245.91 411.358 1245.7 410.853 1245.41 410.414C1245.13 409.974 1244.77 409.631 1244.33 409.385C1243.9 409.13 1243.38 409.003 1242.78 409.003C1242.19 409.003 1241.67 409.13 1241.23 409.385C1240.8 409.631 1240.44 409.974 1240.16 410.414C1239.88 410.853 1239.67 411.358 1239.54 411.93C1239.41 412.492 1239.34 413.09 1239.34 413.723ZM1260.67 417.638V406.735H1263.87V421H1260.86L1260.67 417.638ZM1261.12 414.672L1262.19 414.646C1262.19 415.604 1262.09 416.487 1261.87 417.295C1261.66 418.095 1261.34 418.794 1260.9 419.392C1260.46 419.98 1259.9 420.442 1259.21 420.776C1258.53 421.101 1257.7 421.264 1256.75 421.264C1256.05 421.264 1255.41 421.163 1254.83 420.96C1254.25 420.758 1253.75 420.446 1253.33 420.024C1252.92 419.603 1252.6 419.053 1252.37 418.376C1252.14 417.7 1252.03 416.891 1252.03 415.951V406.735H1255.2V415.977C1255.2 416.496 1255.27 416.931 1255.39 417.282C1255.51 417.625 1255.68 417.902 1255.89 418.113C1256.1 418.324 1256.35 418.473 1256.63 418.561C1256.91 418.649 1257.21 418.693 1257.52 418.693C1258.43 418.693 1259.14 418.517 1259.66 418.166C1260.19 417.805 1260.56 417.322 1260.78 416.715C1261.01 416.109 1261.12 415.428 1261.12 414.672ZM1270.31 409.451V421H1267.13V406.735H1270.17L1270.31 409.451ZM1274.68 406.643L1274.65 409.596C1274.46 409.561 1274.25 409.535 1274.02 409.517C1273.8 409.5 1273.58 409.491 1273.36 409.491C1272.81 409.491 1272.33 409.57 1271.92 409.728C1271.51 409.877 1271.16 410.097 1270.88 410.387C1270.61 410.668 1270.4 411.011 1270.25 411.416C1270.1 411.82 1270.01 412.272 1269.98 412.773L1269.26 412.826C1269.26 411.93 1269.35 411.099 1269.52 410.334C1269.7 409.57 1269.96 408.897 1270.31 408.317C1270.67 407.737 1271.12 407.285 1271.66 406.959C1272.2 406.634 1272.83 406.472 1273.54 406.472C1273.74 406.472 1273.94 406.489 1274.16 406.524C1274.39 406.56 1274.56 406.599 1274.68 406.643ZM1299.01 410.875V411.93C1299.01 413.38 1298.82 414.681 1298.45 415.832C1298.07 416.983 1297.53 417.963 1296.82 418.772C1296.13 419.581 1295.29 420.2 1294.32 420.631C1293.34 421.053 1292.26 421.264 1291.08 421.264C1289.9 421.264 1288.82 421.053 1287.85 420.631C1286.88 420.2 1286.04 419.581 1285.33 418.772C1284.62 417.963 1284.06 416.983 1283.67 415.832C1283.28 414.681 1283.09 413.38 1283.09 411.93V410.875C1283.09 409.425 1283.28 408.128 1283.67 406.986C1284.05 405.834 1284.6 404.854 1285.3 404.046C1286.01 403.229 1286.85 402.609 1287.82 402.187C1288.8 401.756 1289.87 401.541 1291.05 401.541C1292.24 401.541 1293.32 401.756 1294.29 402.187C1295.27 402.609 1296.11 403.229 1296.81 404.046C1297.51 404.854 1298.05 405.834 1298.43 406.986C1298.82 408.128 1299.01 409.425 1299.01 410.875ZM1295.7 411.93V410.849C1295.7 409.776 1295.6 408.832 1295.39 408.014C1295.19 407.188 1294.88 406.498 1294.48 405.944C1294.08 405.382 1293.59 404.96 1293.01 404.679C1292.43 404.389 1291.78 404.244 1291.05 404.244C1290.32 404.244 1289.67 404.389 1289.1 404.679C1288.53 404.96 1288.04 405.382 1287.64 405.944C1287.24 406.498 1286.94 407.188 1286.73 408.014C1286.51 408.832 1286.41 409.776 1286.41 410.849V411.93C1286.41 413.002 1286.51 413.951 1286.73 414.777C1286.94 415.604 1287.24 416.302 1287.65 416.874C1288.06 417.436 1288.55 417.862 1289.12 418.152C1289.7 418.434 1290.35 418.574 1291.08 418.574C1291.81 418.574 1292.47 418.434 1293.04 418.152C1293.61 417.862 1294.1 417.436 1294.49 416.874C1294.89 416.302 1295.19 415.604 1295.39 414.777C1295.6 413.951 1295.7 413.002 1295.7 411.93ZM1309.56 401.805V421H1306.28V401.805H1309.56ZM1315.58 401.805V404.441H1300.3V401.805H1315.58ZM1325.41 413.841H1320.41V411.218H1325.41C1326.28 411.218 1326.98 411.077 1327.52 410.796C1328.05 410.515 1328.44 410.128 1328.69 409.636C1328.94 409.135 1329.07 408.563 1329.07 407.922C1329.07 407.315 1328.94 406.749 1328.69 406.221C1328.44 405.685 1328.05 405.254 1327.52 404.929C1326.98 404.604 1326.28 404.441 1325.41 404.441H1321.42V421H1318.12V401.805H1325.41C1326.89 401.805 1328.15 402.068 1329.19 402.596C1330.24 403.114 1331.03 403.835 1331.58 404.758C1332.12 405.672 1332.39 406.718 1332.39 407.896C1332.39 409.135 1332.12 410.198 1331.58 411.086C1331.03 411.974 1330.24 412.655 1329.19 413.129C1328.15 413.604 1326.89 413.841 1325.41 413.841ZM1344.92 409.781V421H1341.74V406.735H1344.73L1344.92 409.781ZM1344.35 413.34L1343.32 413.327C1343.33 412.316 1343.47 411.389 1343.74 410.545C1344.03 409.702 1344.41 408.977 1344.9 408.37C1345.41 407.764 1346 407.298 1346.7 406.973C1347.39 406.639 1348.17 406.472 1349.02 406.472C1349.7 406.472 1350.32 406.568 1350.88 406.762C1351.44 406.946 1351.92 407.25 1352.31 407.671C1352.72 408.093 1353.03 408.643 1353.24 409.319C1353.45 409.987 1353.55 410.809 1353.55 411.785V421H1350.36V411.771C1350.36 411.086 1350.26 410.545 1350.06 410.15C1349.87 409.746 1349.58 409.46 1349.2 409.293C1348.83 409.117 1348.37 409.029 1347.82 409.029C1347.27 409.029 1346.79 409.144 1346.35 409.372C1345.92 409.601 1345.56 409.913 1345.26 410.308C1344.97 410.704 1344.75 411.161 1344.59 411.679C1344.43 412.198 1344.35 412.751 1344.35 413.34ZM1365.38 417.638V406.735H1368.57V421H1365.56L1365.38 417.638ZM1365.83 414.672L1366.9 414.646C1366.9 415.604 1366.79 416.487 1366.58 417.295C1366.37 418.095 1366.04 418.794 1365.6 419.392C1365.16 419.98 1364.6 420.442 1363.92 420.776C1363.23 421.101 1362.41 421.264 1361.45 421.264C1360.76 421.264 1360.12 421.163 1359.54 420.96C1358.96 420.758 1358.46 420.446 1358.04 420.024C1357.62 419.603 1357.3 419.053 1357.07 418.376C1356.84 417.7 1356.73 416.891 1356.73 415.951V406.735H1359.91V415.977C1359.91 416.496 1359.97 416.931 1360.09 417.282C1360.22 417.625 1360.38 417.902 1360.59 418.113C1360.8 418.324 1361.05 418.473 1361.33 418.561C1361.61 418.649 1361.91 418.693 1362.23 418.693C1363.13 418.693 1363.85 418.517 1364.36 418.166C1364.89 417.805 1365.26 417.322 1365.48 416.715C1365.71 416.109 1365.83 415.428 1365.83 414.672ZM1375 409.636V421H1371.83V406.735H1374.82L1375 409.636ZM1374.49 413.34L1373.41 413.327C1373.41 412.343 1373.53 411.433 1373.78 410.598C1374.02 409.763 1374.38 409.038 1374.86 408.423C1375.33 407.799 1375.92 407.32 1376.62 406.986C1377.34 406.643 1378.16 406.472 1379.09 406.472C1379.74 406.472 1380.33 406.568 1380.87 406.762C1381.41 406.946 1381.88 407.241 1382.28 407.645C1382.68 408.049 1382.99 408.568 1383.2 409.201C1383.42 409.833 1383.53 410.598 1383.53 411.495V421H1380.36V411.771C1380.36 411.077 1380.25 410.532 1380.04 410.137C1379.84 409.741 1379.54 409.46 1379.16 409.293C1378.78 409.117 1378.33 409.029 1377.8 409.029C1377.2 409.029 1376.69 409.144 1376.27 409.372C1375.86 409.601 1375.52 409.913 1375.25 410.308C1374.99 410.704 1374.8 411.161 1374.67 411.679C1374.55 412.198 1374.49 412.751 1374.49 413.34ZM1383.33 412.497L1381.85 412.826C1381.85 411.965 1381.96 411.152 1382.2 410.387C1382.45 409.614 1382.8 408.937 1383.27 408.357C1383.74 407.768 1384.33 407.307 1385.02 406.973C1385.72 406.639 1386.51 406.472 1387.41 406.472C1388.14 406.472 1388.79 406.573 1389.36 406.775C1389.94 406.968 1390.43 407.276 1390.84 407.698C1391.24 408.12 1391.55 408.669 1391.76 409.346C1391.97 410.014 1392.08 410.822 1392.08 411.771V421H1388.89V411.758C1388.89 411.038 1388.78 410.479 1388.57 410.084C1388.37 409.688 1388.08 409.416 1387.7 409.267C1387.32 409.108 1386.87 409.029 1386.34 409.029C1385.85 409.029 1385.41 409.122 1385.04 409.306C1384.67 409.482 1384.35 409.732 1384.1 410.058C1383.84 410.374 1383.65 410.739 1383.52 411.152C1383.4 411.565 1383.33 412.013 1383.33 412.497ZM1395.36 400.75H1398.54V417.955L1398.23 421H1395.36V400.75ZM1407.84 413.736V414.013C1407.84 415.067 1407.72 416.039 1407.49 416.926C1407.26 417.805 1406.91 418.57 1406.43 419.22C1405.97 419.871 1405.39 420.376 1404.69 420.736C1404.01 421.088 1403.21 421.264 1402.31 421.264C1401.42 421.264 1400.65 421.097 1399.99 420.763C1399.33 420.429 1398.77 419.954 1398.32 419.339C1397.89 418.724 1397.53 417.99 1397.26 417.137C1396.98 416.285 1396.79 415.344 1396.68 414.316V413.433C1396.79 412.396 1396.98 411.455 1397.26 410.611C1397.53 409.759 1397.89 409.025 1398.32 408.41C1398.77 407.786 1399.32 407.307 1399.97 406.973C1400.63 406.639 1401.4 406.472 1402.28 406.472C1403.19 406.472 1404 406.647 1404.69 406.999C1405.4 407.351 1405.98 407.852 1406.45 408.502C1406.91 409.144 1407.26 409.908 1407.49 410.796C1407.72 411.684 1407.84 412.664 1407.84 413.736ZM1404.67 414.013V413.736C1404.67 413.094 1404.61 412.492 1404.51 411.93C1404.4 411.358 1404.23 410.857 1403.98 410.427C1403.74 409.996 1403.42 409.658 1403 409.412C1402.6 409.157 1402.1 409.029 1401.49 409.029C1400.93 409.029 1400.44 409.126 1400.04 409.319C1399.63 409.513 1399.3 409.776 1399.02 410.11C1398.75 410.444 1398.54 410.831 1398.38 411.271C1398.23 411.71 1398.13 412.185 1398.07 412.694V415.081C1398.15 415.74 1398.32 416.346 1398.58 416.9C1398.84 417.445 1399.21 417.884 1399.68 418.218C1400.16 418.543 1400.77 418.706 1401.52 418.706C1402.1 418.706 1402.6 418.587 1403 418.35C1403.41 418.113 1403.73 417.783 1403.97 417.361C1404.21 416.931 1404.39 416.43 1404.49 415.858C1404.61 415.287 1404.67 414.672 1404.67 414.013ZM1416.82 421.264C1415.77 421.264 1414.81 421.092 1413.96 420.75C1413.12 420.398 1412.4 419.91 1411.8 419.286C1411.21 418.662 1410.76 417.928 1410.44 417.084C1410.12 416.241 1409.97 415.331 1409.97 414.355V413.828C1409.97 412.712 1410.13 411.701 1410.45 410.796C1410.78 409.891 1411.23 409.117 1411.81 408.476C1412.39 407.825 1413.08 407.329 1413.87 406.986C1414.66 406.643 1415.52 406.472 1416.44 406.472C1417.46 406.472 1418.35 406.643 1419.12 406.986C1419.88 407.329 1420.51 407.812 1421.01 408.436C1421.52 409.051 1421.9 409.785 1422.15 410.638C1422.4 411.49 1422.53 412.431 1422.53 413.459V414.817H1411.51V412.536H1419.39V412.286C1419.37 411.714 1419.26 411.178 1419.05 410.677C1418.85 410.176 1418.54 409.772 1418.11 409.464C1417.69 409.157 1417.13 409.003 1416.43 409.003C1415.9 409.003 1415.43 409.117 1415.02 409.346C1414.61 409.565 1414.27 409.886 1414 410.308C1413.73 410.73 1413.52 411.24 1413.37 411.837C1413.23 412.426 1413.16 413.09 1413.16 413.828V414.355C1413.16 414.979 1413.24 415.56 1413.41 416.096C1413.58 416.623 1413.84 417.084 1414.17 417.48C1414.51 417.875 1414.91 418.188 1415.38 418.416C1415.86 418.636 1416.4 418.746 1417.01 418.746C1417.77 418.746 1418.45 418.592 1419.05 418.284C1419.65 417.977 1420.17 417.542 1420.6 416.979L1422.28 418.601C1421.97 419.049 1421.57 419.479 1421.08 419.893C1420.59 420.297 1419.99 420.626 1419.27 420.881C1418.57 421.136 1417.75 421.264 1416.82 421.264ZM1428.2 409.451V421H1425.02V406.735H1428.05L1428.2 409.451ZM1432.56 406.643L1432.54 409.596C1432.34 409.561 1432.13 409.535 1431.9 409.517C1431.68 409.5 1431.46 409.491 1431.24 409.491C1430.7 409.491 1430.22 409.57 1429.81 409.728C1429.39 409.877 1429.05 410.097 1428.77 410.387C1428.49 410.668 1428.28 411.011 1428.13 411.416C1427.98 411.82 1427.9 412.272 1427.87 412.773L1427.14 412.826C1427.14 411.93 1427.23 411.099 1427.41 410.334C1427.58 409.57 1427.85 408.897 1428.2 408.317C1428.56 407.737 1429.01 407.285 1429.54 406.959C1430.09 406.634 1430.72 406.472 1431.43 406.472C1431.62 406.472 1431.83 406.489 1432.05 406.524C1432.28 406.56 1432.45 406.599 1432.56 406.643Z" fill="black"/>
<rect x="1021.86" y="642.858" width="524.284" height="79.1107" rx="12.8689" fill="#55229E" stroke="white" stroke-width="1.71585"/>
<path d="M1218.75 688.586H1224.77C1224.65 690.557 1224.1 692.306 1223.14 693.834C1222.19 695.363 1220.85 696.556 1219.14 697.414C1217.43 698.272 1215.38 698.7 1212.98 698.7C1211.11 698.7 1209.42 698.379 1207.94 697.735C1206.45 697.078 1205.18 696.14 1204.12 694.92C1203.07 693.7 1202.27 692.226 1201.72 690.497C1201.17 688.767 1200.9 686.83 1200.9 684.686V682.655C1200.9 680.51 1201.18 678.573 1201.74 676.844C1202.32 675.101 1203.14 673.62 1204.2 672.4C1205.27 671.18 1206.55 670.242 1208.04 669.585C1209.53 668.928 1211.19 668.599 1213.02 668.599C1215.46 668.599 1217.52 669.042 1219.2 669.927C1220.89 670.811 1222.19 672.031 1223.12 673.586C1224.06 675.141 1224.62 676.911 1224.81 678.895H1218.77C1218.71 677.715 1218.47 676.716 1218.07 675.898C1217.67 675.067 1217.06 674.444 1216.24 674.028C1215.44 673.6 1214.36 673.385 1213.02 673.385C1212.02 673.385 1211.14 673.573 1210.39 673.948C1209.64 674.323 1209.01 674.893 1208.5 675.657C1207.99 676.421 1207.61 677.386 1207.35 678.553C1207.11 679.706 1206.99 681.059 1206.99 682.614V684.686C1206.99 686.2 1207.11 687.534 1207.33 688.687C1207.56 689.826 1207.91 690.792 1208.38 691.582C1208.86 692.36 1209.48 692.95 1210.23 693.352C1210.99 693.741 1211.91 693.935 1212.98 693.935C1214.24 693.935 1215.28 693.734 1216.1 693.332C1216.92 692.93 1217.54 692.333 1217.97 691.542C1218.41 690.751 1218.67 689.766 1218.75 688.586ZM1227.44 687.641V687.219C1227.44 685.624 1227.67 684.156 1228.12 682.816C1228.58 681.462 1229.24 680.289 1230.12 679.297C1230.99 678.305 1232.06 677.534 1233.33 676.984C1234.61 676.421 1236.07 676.14 1237.72 676.14C1239.36 676.14 1240.83 676.421 1242.12 676.984C1243.41 677.534 1244.49 678.305 1245.36 679.297C1246.24 680.289 1246.91 681.462 1247.37 682.816C1247.82 684.156 1248.05 685.624 1248.05 687.219V687.641C1248.05 689.223 1247.82 690.691 1247.37 692.045C1246.91 693.385 1246.24 694.558 1245.36 695.564C1244.49 696.556 1243.41 697.326 1242.14 697.876C1240.87 698.426 1239.4 698.7 1237.76 698.7C1236.11 698.7 1234.64 698.426 1233.35 697.876C1232.08 697.326 1231 696.556 1230.12 695.564C1229.24 694.558 1228.58 693.385 1228.12 692.045C1227.67 690.691 1227.44 689.223 1227.44 687.641ZM1233.23 687.219V687.641C1233.23 688.553 1233.31 689.404 1233.47 690.195C1233.63 690.986 1233.89 691.683 1234.24 692.286C1234.6 692.876 1235.07 693.338 1235.64 693.674C1236.22 694.009 1236.93 694.176 1237.76 694.176C1238.56 694.176 1239.25 694.009 1239.83 693.674C1240.4 693.338 1240.87 692.876 1241.21 692.286C1241.56 691.683 1241.82 690.986 1241.98 690.195C1242.15 689.404 1242.24 688.553 1242.24 687.641V687.219C1242.24 686.334 1242.15 685.503 1241.98 684.726C1241.82 683.935 1241.56 683.238 1241.19 682.635C1240.85 682.018 1240.38 681.535 1239.81 681.187C1239.23 680.838 1238.53 680.664 1237.72 680.664C1236.9 680.664 1236.2 680.838 1235.62 681.187C1235.06 681.535 1234.6 682.018 1234.24 682.635C1233.89 683.238 1233.63 683.935 1233.47 684.726C1233.31 685.503 1233.23 686.334 1233.23 687.219ZM1257.28 681.187V698.298H1251.49V676.542H1256.92L1257.28 681.187ZM1256.44 686.656H1254.87C1254.87 685.047 1255.08 683.6 1255.49 682.313C1255.91 681.013 1256.49 679.907 1257.24 678.995C1257.99 678.07 1258.88 677.366 1259.91 676.884C1260.96 676.388 1262.13 676.14 1263.41 676.14C1264.43 676.14 1265.36 676.287 1266.21 676.582C1267.05 676.877 1267.78 677.346 1268.38 677.99C1269 678.633 1269.47 679.484 1269.79 680.543C1270.12 681.602 1270.29 682.896 1270.29 684.424V698.298H1264.46V684.404C1264.46 683.439 1264.32 682.688 1264.06 682.152C1263.79 681.616 1263.39 681.24 1262.87 681.026C1262.36 680.798 1261.73 680.684 1260.98 680.684C1260.2 680.684 1259.53 680.838 1258.95 681.147C1258.39 681.455 1257.92 681.884 1257.54 682.433C1257.18 682.97 1256.91 683.6 1256.72 684.324C1256.53 685.047 1256.44 685.825 1256.44 686.656ZM1285.35 676.542V680.644H1272.68V676.542H1285.35ZM1275.82 671.173H1281.61V691.743C1281.61 692.373 1281.69 692.856 1281.85 693.191C1282.03 693.526 1282.28 693.761 1282.62 693.895C1282.95 694.015 1283.37 694.076 1283.88 694.076C1284.24 694.076 1284.57 694.062 1284.85 694.036C1285.14 693.995 1285.39 693.955 1285.59 693.915L1285.61 698.178C1285.12 698.339 1284.58 698.466 1284 698.56C1283.43 698.654 1282.79 698.7 1282.09 698.7C1280.82 698.7 1279.71 698.493 1278.76 698.077C1277.82 697.648 1277.09 696.965 1276.58 696.026C1276.07 695.088 1275.82 693.855 1275.82 692.326V671.173ZM1294.76 676.542V698.298H1288.95V676.542H1294.76ZM1288.59 670.872C1288.59 670.027 1288.88 669.33 1289.47 668.78C1290.06 668.231 1290.85 667.956 1291.85 667.956C1292.82 667.956 1293.61 668.231 1294.2 668.78C1294.8 669.33 1295.1 670.027 1295.1 670.872C1295.1 671.716 1294.8 672.413 1294.2 672.963C1293.61 673.512 1292.82 673.787 1291.85 673.787C1290.85 673.787 1290.06 673.512 1289.47 672.963C1288.88 672.413 1288.59 671.716 1288.59 670.872ZM1305.22 681.187V698.298H1299.43V676.542H1304.86L1305.22 681.187ZM1304.37 686.656H1302.8C1302.8 685.047 1303.01 683.6 1303.43 682.313C1303.84 681.013 1304.43 679.907 1305.18 678.995C1305.93 678.07 1306.82 677.366 1307.85 676.884C1308.9 676.388 1310.06 676.14 1311.35 676.14C1312.37 676.14 1313.3 676.287 1314.14 676.582C1314.99 676.877 1315.71 677.346 1316.32 677.99C1316.93 678.633 1317.4 679.484 1317.72 680.543C1318.06 681.602 1318.23 682.896 1318.23 684.424V698.298H1312.4V684.404C1312.4 683.439 1312.26 682.688 1311.99 682.152C1311.73 681.616 1311.33 681.24 1310.81 681.026C1310.3 680.798 1309.67 680.684 1308.92 680.684C1308.14 680.684 1307.46 680.838 1306.89 681.147C1306.32 681.455 1305.85 681.884 1305.48 682.433C1305.12 682.97 1304.84 683.6 1304.65 684.324C1304.47 685.047 1304.37 685.825 1304.37 686.656ZM1335.5 693.09V676.542H1341.29V698.298H1335.84L1335.5 693.09ZM1336.14 688.627L1337.85 688.586C1337.85 690.034 1337.68 691.381 1337.35 692.628C1337.01 693.861 1336.51 694.934 1335.84 695.845C1335.17 696.743 1334.33 697.447 1333.31 697.957C1332.29 698.452 1331.09 698.7 1329.71 698.7C1328.65 698.7 1327.67 698.553 1326.77 698.258C1325.89 697.95 1325.12 697.474 1324.48 696.83C1323.85 696.174 1323.35 695.336 1322.99 694.317C1322.64 693.285 1322.47 692.045 1322.47 690.597V676.542H1328.26V690.637C1328.26 691.281 1328.33 691.824 1328.48 692.266C1328.64 692.708 1328.86 693.07 1329.15 693.352C1329.43 693.633 1329.76 693.834 1330.13 693.955C1330.52 694.076 1330.95 694.136 1331.42 694.136C1332.61 694.136 1333.55 693.895 1334.23 693.412C1334.93 692.93 1335.42 692.273 1335.7 691.442C1336 690.597 1336.14 689.659 1336.14 688.627ZM1355.73 698.7C1354.04 698.7 1352.52 698.432 1351.18 697.896C1349.84 697.347 1348.7 696.589 1347.76 695.624C1346.84 694.659 1346.13 693.54 1345.63 692.266C1345.14 690.979 1344.89 689.612 1344.89 688.164V687.36C1344.89 685.711 1345.12 684.203 1345.59 682.836C1346.06 681.468 1346.73 680.282 1347.6 679.277C1348.49 678.271 1349.56 677.5 1350.82 676.964C1352.08 676.415 1353.5 676.14 1355.08 676.14C1356.63 676.14 1357.99 676.394 1359.19 676.904C1360.38 677.413 1361.38 678.137 1362.18 679.075C1363 680.014 1363.62 681.14 1364.03 682.454C1364.45 683.754 1364.66 685.202 1364.66 686.797V689.21H1347.36V685.349H1358.96V684.907C1358.96 684.102 1358.82 683.385 1358.52 682.755C1358.24 682.112 1357.81 681.602 1357.24 681.227C1356.66 680.852 1355.92 680.664 1355.02 680.664C1354.26 680.664 1353.6 680.832 1353.05 681.167C1352.5 681.502 1352.05 681.971 1351.71 682.574C1351.37 683.177 1351.12 683.888 1350.94 684.706C1350.78 685.51 1350.7 686.395 1350.7 687.36V688.164C1350.7 689.035 1350.82 689.84 1351.06 690.577C1351.32 691.314 1351.67 691.951 1352.13 692.487C1352.6 693.023 1353.16 693.439 1353.82 693.734C1354.49 694.029 1355.24 694.176 1356.09 694.176C1357.13 694.176 1358.11 693.975 1359 693.573C1359.92 693.158 1360.7 692.534 1361.36 691.703L1364.17 694.759C1363.72 695.416 1363.09 696.046 1362.3 696.65C1361.53 697.253 1360.59 697.749 1359.49 698.137C1358.39 698.513 1357.13 698.7 1355.73 698.7Z" fill="white"/>
<rect x="1446.87" y="495.946" width="99.2908" height="87.1083" rx="14.2389" fill="white" stroke="#C4C4C4" stroke-width="1.67516"/>
<rect x="1305.19" y="495.946" width="99.2908" height="87.1083" rx="14.2389" fill="white" stroke="#C4C4C4" stroke-width="1.67516"/>
<rect x="1163.52" y="495.946" width="99.2908" height="87.1083" rx="14.2389" fill="white" stroke="#C4C4C4" stroke-width="1.67516"/>
<rect x="1021.84" y="495.946" width="99.2908" height="87.1083" rx="14.2389" fill="white" stroke="#C4C4C4" stroke-width="1.67516"/>
<path d="M1058.69 540.338C1058.69 547.206 1064.81 552.901 1072.53 552.901C1080.25 552.901 1086.37 547.206 1086.37 540.338C1086.37 533.469 1080.25 527.774 1072.53 527.774C1064.81 527.774 1058.69 533.469 1058.69 540.338Z" fill="#55229E" stroke="#55229E" stroke-width="1.67516"/>
<path d="M1202.75 540.338C1202.75 547.206 1208.88 552.901 1216.59 552.901C1224.31 552.901 1230.43 547.206 1230.43 540.338C1230.43 533.469 1224.31 527.774 1216.59 527.774C1208.88 527.774 1202.75 533.469 1202.75 540.338Z" fill="#55229E" stroke="#55229E" stroke-width="1.67516"/>
<path d="M1345.14 540.338C1345.14 547.206 1351.27 552.901 1358.98 552.901C1366.7 552.901 1372.82 547.206 1372.82 540.338C1372.82 533.469 1366.7 527.774 1358.98 527.774C1351.27 527.774 1345.14 533.469 1345.14 540.338Z" fill="#55229E" stroke="#55229E" stroke-width="1.67516"/>
<path d="M1482.51 540.338C1482.51 547.206 1488.63 552.901 1496.35 552.901C1504.06 552.901 1510.19 547.206 1510.19 540.338C1510.19 533.469 1504.06 527.774 1496.35 527.774C1488.63 527.774 1482.51 533.469 1482.51 540.338Z" fill="#55229E" stroke="#55229E" stroke-width="1.67516"/>
<rect x="884" width="844" height="1117" fill="#252029" fill-opacity="0.4"/>
<rect x="603" y="488" width="523" height="140" rx="16.7628" fill="white"/>
<path d="M677.203 525.781L680.504 532.568L683.805 525.781H686.52L681.734 534.766V540H679.264V534.766L674.479 525.781H677.203ZM686.744 534.834V534.609C686.744 533.848 686.855 533.141 687.076 532.49C687.298 531.833 687.617 531.263 688.033 530.781C688.456 530.293 688.971 529.915 689.576 529.648C690.188 529.375 690.878 529.238 691.646 529.238C692.421 529.238 693.111 529.375 693.717 529.648C694.329 529.915 694.846 530.293 695.27 530.781C695.693 531.263 696.015 531.833 696.236 532.49C696.458 533.141 696.568 533.848 696.568 534.609V534.834C696.568 535.596 696.458 536.302 696.236 536.953C696.015 537.604 695.693 538.174 695.27 538.662C694.846 539.144 694.332 539.521 693.727 539.795C693.121 540.062 692.434 540.195 691.666 540.195C690.891 540.195 690.198 540.062 689.586 539.795C688.98 539.521 688.466 539.144 688.043 538.662C687.62 538.174 687.298 537.604 687.076 536.953C686.855 536.302 686.744 535.596 686.744 534.834ZM689.098 534.609V534.834C689.098 535.309 689.146 535.758 689.244 536.182C689.342 536.605 689.495 536.976 689.703 537.295C689.911 537.614 690.178 537.865 690.504 538.047C690.829 538.229 691.217 538.32 691.666 538.32C692.102 538.32 692.48 538.229 692.799 538.047C693.124 537.865 693.391 537.614 693.6 537.295C693.808 536.976 693.961 536.605 694.059 536.182C694.163 535.758 694.215 535.309 694.215 534.834V534.609C694.215 534.141 694.163 533.698 694.059 533.281C693.961 532.858 693.805 532.484 693.59 532.158C693.382 531.833 693.115 531.579 692.789 531.396C692.47 531.208 692.089 531.113 691.646 531.113C691.204 531.113 690.82 531.208 690.494 531.396C690.175 531.579 689.911 531.833 689.703 532.158C689.495 532.484 689.342 532.858 689.244 533.281C689.146 533.698 689.098 534.141 689.098 534.609ZM704.898 537.51V529.434H707.262V540H705.035L704.898 537.51ZM705.23 535.312L706.021 535.293C706.021 536.003 705.943 536.657 705.787 537.256C705.631 537.848 705.39 538.366 705.064 538.809C704.739 539.245 704.322 539.587 703.814 539.834C703.307 540.075 702.698 540.195 701.988 540.195C701.474 540.195 701.002 540.12 700.572 539.971C700.143 539.821 699.771 539.59 699.459 539.277C699.153 538.965 698.915 538.558 698.746 538.057C698.577 537.555 698.492 536.956 698.492 536.26V529.434H700.846V536.279C700.846 536.663 700.891 536.986 700.982 537.246C701.074 537.5 701.197 537.705 701.354 537.861C701.51 538.018 701.692 538.128 701.9 538.193C702.109 538.258 702.33 538.291 702.564 538.291C703.235 538.291 703.762 538.161 704.146 537.9C704.537 537.633 704.814 537.275 704.977 536.826C705.146 536.377 705.23 535.872 705.23 535.312ZM712.037 531.445V540H709.684V529.434H711.93L712.037 531.445ZM715.27 529.365L715.25 531.553C715.107 531.527 714.951 531.507 714.781 531.494C714.618 531.481 714.456 531.475 714.293 531.475C713.889 531.475 713.535 531.533 713.229 531.65C712.923 531.761 712.665 531.924 712.457 532.139C712.255 532.347 712.099 532.601 711.988 532.9C711.878 533.2 711.812 533.535 711.793 533.906L711.256 533.945C711.256 533.281 711.321 532.666 711.451 532.1C711.581 531.533 711.777 531.035 712.037 530.605C712.304 530.176 712.636 529.84 713.033 529.6C713.437 529.359 713.902 529.238 714.43 529.238C714.573 529.238 714.726 529.251 714.889 529.277C715.058 529.303 715.185 529.333 715.27 529.365ZM727.496 527.676L723.248 540H720.68L726.031 525.781H727.672L727.496 527.676ZM731.051 540L726.793 527.676L726.607 525.781H728.258L733.629 540H731.051ZM730.846 534.727V536.67H723.111V534.727H730.846ZM739.303 538.32C739.687 538.32 740.032 538.245 740.338 538.096C740.65 537.939 740.901 537.725 741.09 537.451C741.285 537.178 741.393 536.862 741.412 536.504H743.629C743.616 537.188 743.414 537.809 743.023 538.369C742.633 538.929 742.115 539.375 741.471 539.707C740.826 540.033 740.113 540.195 739.332 540.195C738.525 540.195 737.822 540.059 737.223 539.785C736.624 539.505 736.126 539.121 735.729 538.633C735.331 538.145 735.032 537.581 734.83 536.943C734.635 536.305 734.537 535.622 734.537 534.893V534.551C734.537 533.822 734.635 533.138 734.83 532.5C735.032 531.855 735.331 531.289 735.729 530.801C736.126 530.312 736.624 529.932 737.223 529.658C737.822 529.378 738.521 529.238 739.322 529.238C740.169 529.238 740.911 529.408 741.549 529.746C742.187 530.078 742.688 530.544 743.053 531.143C743.424 531.735 743.616 532.425 743.629 533.213H741.412C741.393 532.822 741.295 532.471 741.119 532.158C740.95 531.839 740.709 531.585 740.396 531.396C740.09 531.208 739.723 531.113 739.293 531.113C738.818 531.113 738.424 531.211 738.111 531.406C737.799 531.595 737.555 531.855 737.379 532.188C737.203 532.513 737.076 532.881 736.998 533.291C736.926 533.695 736.891 534.115 736.891 534.551V534.893C736.891 535.329 736.926 535.752 736.998 536.162C737.07 536.572 737.193 536.94 737.369 537.266C737.551 537.585 737.799 537.842 738.111 538.037C738.424 538.226 738.821 538.32 739.303 538.32ZM749.752 538.32C750.136 538.32 750.481 538.245 750.787 538.096C751.1 537.939 751.35 537.725 751.539 537.451C751.734 537.178 751.842 536.862 751.861 536.504H754.078C754.065 537.188 753.863 537.809 753.473 538.369C753.082 538.929 752.564 539.375 751.92 539.707C751.275 540.033 750.562 540.195 749.781 540.195C748.974 540.195 748.271 540.059 747.672 539.785C747.073 539.505 746.575 539.121 746.178 538.633C745.781 538.145 745.481 537.581 745.279 536.943C745.084 536.305 744.986 535.622 744.986 534.893V534.551C744.986 533.822 745.084 533.138 745.279 532.5C745.481 531.855 745.781 531.289 746.178 530.801C746.575 530.312 747.073 529.932 747.672 529.658C748.271 529.378 748.971 529.238 749.771 529.238C750.618 529.238 751.36 529.408 751.998 529.746C752.636 530.078 753.137 530.544 753.502 531.143C753.873 531.735 754.065 532.425 754.078 533.213H751.861C751.842 532.822 751.744 532.471 751.568 532.158C751.399 531.839 751.158 531.585 750.846 531.396C750.54 531.208 750.172 531.113 749.742 531.113C749.267 531.113 748.873 531.211 748.561 531.406C748.248 531.595 748.004 531.855 747.828 532.188C747.652 532.513 747.525 532.881 747.447 533.291C747.376 533.695 747.34 534.115 747.34 534.551V534.893C747.34 535.329 747.376 535.752 747.447 536.162C747.519 536.572 747.643 536.94 747.818 537.266C748.001 537.585 748.248 537.842 748.561 538.037C748.873 538.226 749.27 538.32 749.752 538.32ZM755.436 534.834V534.609C755.436 533.848 755.546 533.141 755.768 532.49C755.989 531.833 756.308 531.263 756.725 530.781C757.148 530.293 757.662 529.915 758.268 529.648C758.88 529.375 759.57 529.238 760.338 529.238C761.113 529.238 761.803 529.375 762.408 529.648C763.02 529.915 763.538 530.293 763.961 530.781C764.384 531.263 764.706 531.833 764.928 532.49C765.149 533.141 765.26 533.848 765.26 534.609V534.834C765.26 535.596 765.149 536.302 764.928 536.953C764.706 537.604 764.384 538.174 763.961 538.662C763.538 539.144 763.023 539.521 762.418 539.795C761.812 540.062 761.126 540.195 760.357 540.195C759.583 540.195 758.889 540.062 758.277 539.795C757.672 539.521 757.158 539.144 756.734 538.662C756.311 538.174 755.989 537.604 755.768 536.953C755.546 536.302 755.436 535.596 755.436 534.834ZM757.789 534.609V534.834C757.789 535.309 757.838 535.758 757.936 536.182C758.033 536.605 758.186 536.976 758.395 537.295C758.603 537.614 758.87 537.865 759.195 538.047C759.521 538.229 759.908 538.32 760.357 538.32C760.794 538.32 761.171 538.229 761.49 538.047C761.816 537.865 762.083 537.614 762.291 537.295C762.499 536.976 762.652 536.605 762.75 536.182C762.854 535.758 762.906 535.309 762.906 534.834V534.609C762.906 534.141 762.854 533.698 762.75 533.281C762.652 532.858 762.496 532.484 762.281 532.158C762.073 531.833 761.806 531.579 761.48 531.396C761.161 531.208 760.781 531.113 760.338 531.113C759.895 531.113 759.511 531.208 759.186 531.396C758.867 531.579 758.603 531.833 758.395 532.158C758.186 532.484 758.033 532.858 757.936 533.281C757.838 533.698 757.789 534.141 757.789 534.609ZM773.59 537.51V529.434H775.953V540H773.727L773.59 537.51ZM773.922 535.312L774.713 535.293C774.713 536.003 774.635 536.657 774.479 537.256C774.322 537.848 774.081 538.366 773.756 538.809C773.43 539.245 773.014 539.587 772.506 539.834C771.998 540.075 771.389 540.195 770.68 540.195C770.165 540.195 769.693 540.12 769.264 539.971C768.834 539.821 768.463 539.59 768.15 539.277C767.844 538.965 767.607 538.558 767.438 538.057C767.268 537.555 767.184 536.956 767.184 536.26V529.434H769.537V536.279C769.537 536.663 769.583 536.986 769.674 537.246C769.765 537.5 769.889 537.705 770.045 537.861C770.201 538.018 770.383 538.128 770.592 538.193C770.8 538.258 771.021 538.291 771.256 538.291C771.926 538.291 772.454 538.161 772.838 537.9C773.229 537.633 773.505 537.275 773.668 536.826C773.837 536.377 773.922 535.872 773.922 535.312ZM780.699 531.689V540H778.346V529.434H780.562L780.699 531.689ZM780.279 534.326L779.518 534.316C779.524 533.568 779.628 532.881 779.83 532.256C780.038 531.631 780.325 531.094 780.689 530.645C781.061 530.195 781.503 529.85 782.018 529.609C782.532 529.362 783.105 529.238 783.736 529.238C784.244 529.238 784.703 529.31 785.113 529.453C785.53 529.59 785.885 529.814 786.178 530.127C786.477 530.439 786.705 530.846 786.861 531.348C787.018 531.842 787.096 532.451 787.096 533.174V540H784.732V533.164C784.732 532.656 784.658 532.256 784.508 531.963C784.365 531.663 784.153 531.452 783.873 531.328C783.6 531.198 783.258 531.133 782.848 531.133C782.444 531.133 782.083 531.217 781.764 531.387C781.445 531.556 781.174 531.787 780.953 532.08C780.738 532.373 780.572 532.712 780.455 533.096C780.338 533.48 780.279 533.89 780.279 534.326ZM794.342 529.434V531.152H788.385V529.434H794.342ZM790.104 526.846H792.457V537.08C792.457 537.406 792.503 537.656 792.594 537.832C792.691 538.001 792.825 538.115 792.994 538.174C793.163 538.232 793.362 538.262 793.59 538.262C793.753 538.262 793.909 538.252 794.059 538.232C794.208 538.213 794.329 538.193 794.42 538.174L794.43 539.971C794.234 540.029 794.007 540.081 793.746 540.127C793.492 540.173 793.199 540.195 792.867 540.195C792.327 540.195 791.848 540.101 791.432 539.912C791.015 539.717 790.689 539.401 790.455 538.965C790.221 538.529 790.104 537.949 790.104 537.227V526.846ZM803.463 525V540H801.119V525H803.463ZM803.053 534.326L802.291 534.316C802.298 533.587 802.398 532.913 802.594 532.295C802.796 531.676 803.076 531.139 803.434 530.684C803.798 530.221 804.234 529.867 804.742 529.619C805.25 529.365 805.813 529.238 806.432 529.238C806.952 529.238 807.421 529.31 807.838 529.453C808.261 529.596 808.626 529.827 808.932 530.146C809.238 530.459 809.469 530.869 809.625 531.377C809.788 531.878 809.869 532.49 809.869 533.213V540H807.506V533.193C807.506 532.686 807.431 532.282 807.281 531.982C807.138 531.683 806.926 531.468 806.646 531.338C806.367 531.201 806.025 531.133 805.621 531.133C805.198 531.133 804.824 531.217 804.498 531.387C804.179 531.556 803.912 531.787 803.697 532.08C803.482 532.373 803.32 532.712 803.209 533.096C803.105 533.48 803.053 533.89 803.053 534.326ZM818.209 537.881V532.842C818.209 532.464 818.141 532.139 818.004 531.865C817.867 531.592 817.659 531.38 817.379 531.23C817.105 531.081 816.76 531.006 816.344 531.006C815.96 531.006 815.628 531.071 815.348 531.201C815.068 531.331 814.85 531.507 814.693 531.729C814.537 531.95 814.459 532.201 814.459 532.48H812.115C812.115 532.064 812.216 531.66 812.418 531.27C812.62 530.879 812.913 530.531 813.297 530.225C813.681 529.919 814.14 529.678 814.674 529.502C815.208 529.326 815.807 529.238 816.471 529.238C817.265 529.238 817.968 529.372 818.58 529.639C819.199 529.906 819.684 530.309 820.035 530.85C820.393 531.383 820.572 532.054 820.572 532.861V537.559C820.572 538.04 820.605 538.473 820.67 538.857C820.742 539.235 820.842 539.564 820.973 539.844V540H818.561C818.45 539.746 818.362 539.424 818.297 539.033C818.238 538.636 818.209 538.252 818.209 537.881ZM818.551 533.574L818.57 535.029H816.881C816.445 535.029 816.061 535.072 815.729 535.156C815.396 535.234 815.12 535.352 814.898 535.508C814.677 535.664 814.511 535.853 814.4 536.074C814.29 536.296 814.234 536.546 814.234 536.826C814.234 537.106 814.299 537.363 814.43 537.598C814.56 537.826 814.749 538.005 814.996 538.135C815.25 538.265 815.556 538.33 815.914 538.33C816.396 538.33 816.816 538.232 817.174 538.037C817.538 537.835 817.825 537.591 818.033 537.305C818.242 537.012 818.352 536.735 818.365 536.475L819.127 537.52C819.049 537.786 818.915 538.073 818.727 538.379C818.538 538.685 818.29 538.978 817.984 539.258C817.685 539.531 817.324 539.756 816.9 539.932C816.484 540.107 816.002 540.195 815.455 540.195C814.765 540.195 814.15 540.059 813.609 539.785C813.069 539.505 812.646 539.131 812.34 538.662C812.034 538.187 811.881 537.65 811.881 537.051C811.881 536.491 811.985 535.996 812.193 535.566C812.408 535.13 812.721 534.766 813.131 534.473C813.548 534.18 814.055 533.958 814.654 533.809C815.253 533.652 815.937 533.574 816.705 533.574H818.551ZM828.961 537.139C828.961 536.904 828.902 536.693 828.785 536.504C828.668 536.309 828.443 536.133 828.111 535.977C827.786 535.82 827.304 535.677 826.666 535.547C826.106 535.423 825.592 535.277 825.123 535.107C824.661 534.932 824.264 534.72 823.932 534.473C823.6 534.225 823.342 533.932 823.16 533.594C822.978 533.255 822.887 532.865 822.887 532.422C822.887 531.992 822.981 531.585 823.17 531.201C823.359 530.817 823.629 530.479 823.98 530.186C824.332 529.893 824.758 529.661 825.26 529.492C825.768 529.323 826.334 529.238 826.959 529.238C827.844 529.238 828.603 529.388 829.234 529.688C829.872 529.98 830.361 530.381 830.699 530.889C831.038 531.39 831.207 531.956 831.207 532.588H828.854C828.854 532.308 828.782 532.048 828.639 531.807C828.502 531.559 828.294 531.361 828.014 531.211C827.734 531.055 827.382 530.977 826.959 530.977C826.555 530.977 826.22 531.042 825.953 531.172C825.693 531.296 825.497 531.458 825.367 531.66C825.243 531.862 825.182 532.083 825.182 532.324C825.182 532.5 825.214 532.66 825.279 532.803C825.351 532.939 825.468 533.066 825.631 533.184C825.794 533.294 826.015 533.398 826.295 533.496C826.581 533.594 826.939 533.688 827.369 533.779C828.176 533.949 828.87 534.167 829.449 534.434C830.035 534.694 830.484 535.033 830.797 535.449C831.109 535.859 831.266 536.38 831.266 537.012C831.266 537.48 831.165 537.91 830.963 538.301C830.768 538.685 830.481 539.02 830.104 539.307C829.726 539.587 829.273 539.805 828.746 539.961C828.225 540.117 827.639 540.195 826.988 540.195C826.031 540.195 825.221 540.026 824.557 539.688C823.893 539.342 823.388 538.903 823.043 538.369C822.704 537.829 822.535 537.269 822.535 536.689H824.811C824.837 537.126 824.957 537.474 825.172 537.734C825.393 537.988 825.667 538.174 825.992 538.291C826.324 538.402 826.666 538.457 827.018 538.457C827.441 538.457 827.796 538.402 828.082 538.291C828.368 538.174 828.587 538.018 828.736 537.822C828.886 537.62 828.961 537.393 828.961 537.139ZM838.316 525H840.67V537.744L840.445 540H838.316V525ZM847.564 534.619V534.824C847.564 535.605 847.477 536.325 847.301 536.982C847.132 537.633 846.871 538.2 846.52 538.682C846.174 539.163 845.745 539.538 845.23 539.805C844.723 540.065 844.133 540.195 843.463 540.195C842.805 540.195 842.232 540.072 841.744 539.824C841.256 539.577 840.846 539.225 840.514 538.77C840.188 538.314 839.924 537.77 839.723 537.139C839.521 536.507 839.378 535.811 839.293 535.049V534.395C839.378 533.626 839.521 532.93 839.723 532.305C839.924 531.673 840.188 531.13 840.514 530.674C840.846 530.212 841.253 529.857 841.734 529.609C842.223 529.362 842.792 529.238 843.443 529.238C844.12 529.238 844.716 529.368 845.23 529.629C845.751 529.889 846.184 530.26 846.529 530.742C846.874 531.217 847.132 531.784 847.301 532.441C847.477 533.099 847.564 533.825 847.564 534.619ZM845.211 534.824V534.619C845.211 534.144 845.172 533.698 845.094 533.281C845.016 532.858 844.885 532.487 844.703 532.168C844.527 531.849 844.286 531.598 843.98 531.416C843.681 531.227 843.307 531.133 842.857 531.133C842.441 531.133 842.083 531.204 841.783 531.348C841.484 531.491 841.233 531.686 841.031 531.934C840.829 532.181 840.67 532.467 840.553 532.793C840.442 533.118 840.367 533.47 840.328 533.848V535.615C840.387 536.104 840.51 536.553 840.699 536.963C840.895 537.367 841.168 537.692 841.52 537.939C841.871 538.18 842.324 538.301 842.877 538.301C843.313 538.301 843.681 538.213 843.98 538.037C844.28 537.861 844.518 537.617 844.693 537.305C844.876 536.986 845.006 536.615 845.084 536.191C845.169 535.768 845.211 535.312 845.211 534.824ZM854.215 540.195C853.434 540.195 852.727 540.068 852.096 539.814C851.471 539.554 850.937 539.193 850.494 538.73C850.058 538.268 849.723 537.725 849.488 537.1C849.254 536.475 849.137 535.801 849.137 535.078V534.688C849.137 533.861 849.257 533.112 849.498 532.441C849.739 531.771 850.074 531.198 850.504 530.723C850.934 530.241 851.441 529.873 852.027 529.619C852.613 529.365 853.248 529.238 853.932 529.238C854.687 529.238 855.348 529.365 855.914 529.619C856.48 529.873 856.949 530.231 857.32 530.693C857.698 531.149 857.978 531.693 858.16 532.324C858.349 532.956 858.443 533.652 858.443 534.414V535.42H850.279V533.73H856.119V533.545C856.106 533.122 856.021 532.725 855.865 532.354C855.715 531.982 855.484 531.683 855.172 531.455C854.859 531.227 854.443 531.113 853.922 531.113C853.531 531.113 853.183 531.198 852.877 531.367C852.577 531.53 852.327 531.768 852.125 532.08C851.923 532.393 851.767 532.77 851.656 533.213C851.552 533.649 851.5 534.141 851.5 534.688V535.078C851.5 535.54 851.562 535.97 851.686 536.367C851.816 536.758 852.005 537.1 852.252 537.393C852.499 537.686 852.799 537.917 853.15 538.086C853.502 538.249 853.902 538.33 854.352 538.33C854.918 538.33 855.423 538.216 855.865 537.988C856.308 537.76 856.692 537.438 857.018 537.021L858.258 538.223C858.03 538.555 857.734 538.874 857.369 539.18C857.005 539.479 856.559 539.723 856.031 539.912C855.51 540.101 854.905 540.195 854.215 540.195ZM864.938 540.195C864.156 540.195 863.45 540.068 862.818 539.814C862.193 539.554 861.66 539.193 861.217 538.73C860.781 538.268 860.445 537.725 860.211 537.1C859.977 536.475 859.859 535.801 859.859 535.078V534.688C859.859 533.861 859.98 533.112 860.221 532.441C860.462 531.771 860.797 531.198 861.227 530.723C861.656 530.241 862.164 529.873 862.75 529.619C863.336 529.365 863.971 529.238 864.654 529.238C865.41 529.238 866.07 529.365 866.637 529.619C867.203 529.873 867.672 530.231 868.043 530.693C868.421 531.149 868.701 531.693 868.883 532.324C869.072 532.956 869.166 533.652 869.166 534.414V535.42H861.002V533.73H866.842V533.545C866.829 533.122 866.744 532.725 866.588 532.354C866.438 531.982 866.207 531.683 865.895 531.455C865.582 531.227 865.165 531.113 864.645 531.113C864.254 531.113 863.906 531.198 863.6 531.367C863.3 531.53 863.049 531.768 862.848 532.08C862.646 532.393 862.49 532.77 862.379 533.213C862.275 533.649 862.223 534.141 862.223 534.688V535.078C862.223 535.54 862.285 535.97 862.408 536.367C862.538 536.758 862.727 537.1 862.975 537.393C863.222 537.686 863.521 537.917 863.873 538.086C864.225 538.249 864.625 538.33 865.074 538.33C865.641 538.33 866.145 538.216 866.588 537.988C867.031 537.76 867.415 537.438 867.74 537.021L868.98 538.223C868.753 538.555 868.456 538.874 868.092 539.18C867.727 539.479 867.281 539.723 866.754 539.912C866.233 540.101 865.628 540.195 864.938 540.195ZM873.336 531.689V540H870.982V529.434H873.199L873.336 531.689ZM872.916 534.326L872.154 534.316C872.161 533.568 872.265 532.881 872.467 532.256C872.675 531.631 872.962 531.094 873.326 530.645C873.697 530.195 874.14 529.85 874.654 529.609C875.169 529.362 875.742 529.238 876.373 529.238C876.881 529.238 877.34 529.31 877.75 529.453C878.167 529.59 878.521 529.814 878.814 530.127C879.114 530.439 879.342 530.846 879.498 531.348C879.654 531.842 879.732 532.451 879.732 533.174V540H877.369V533.164C877.369 532.656 877.294 532.256 877.145 531.963C877.001 531.663 876.79 531.452 876.51 531.328C876.236 531.198 875.895 531.133 875.484 531.133C875.081 531.133 874.719 531.217 874.4 531.387C874.081 531.556 873.811 531.787 873.59 532.08C873.375 532.373 873.209 532.712 873.092 533.096C872.975 533.48 872.916 533.89 872.916 534.326ZM894.83 536.338C894.83 536.045 894.785 535.785 894.693 535.557C894.609 535.329 894.456 535.12 894.234 534.932C894.013 534.743 893.701 534.561 893.297 534.385C892.9 534.202 892.392 534.017 891.773 533.828C891.096 533.62 890.471 533.389 889.898 533.135C889.332 532.874 888.837 532.575 888.414 532.236C887.991 531.891 887.662 531.497 887.428 531.055C887.193 530.605 887.076 530.088 887.076 529.502C887.076 528.923 887.197 528.395 887.438 527.92C887.685 527.445 888.033 527.035 888.482 526.689C888.938 526.338 889.475 526.068 890.094 525.879C890.712 525.684 891.396 525.586 892.145 525.586C893.199 525.586 894.107 525.781 894.869 526.172C895.637 526.562 896.227 527.087 896.637 527.744C897.053 528.402 897.262 529.128 897.262 529.922H894.83C894.83 529.453 894.729 529.04 894.527 528.682C894.332 528.317 894.033 528.031 893.629 527.822C893.232 527.614 892.727 527.51 892.115 527.51C891.536 527.51 891.054 527.598 890.67 527.773C890.286 527.949 889.999 528.187 889.811 528.486C889.622 528.786 889.527 529.124 889.527 529.502C889.527 529.769 889.589 530.013 889.713 530.234C889.837 530.449 890.025 530.651 890.279 530.84C890.533 531.022 890.852 531.195 891.236 531.357C891.62 531.52 892.073 531.676 892.594 531.826C893.382 532.061 894.068 532.321 894.654 532.607C895.24 532.887 895.729 533.206 896.119 533.564C896.51 533.923 896.803 534.329 896.998 534.785C897.193 535.234 897.291 535.745 897.291 536.318C897.291 536.917 897.171 537.458 896.93 537.939C896.689 538.415 896.344 538.822 895.895 539.16C895.452 539.492 894.918 539.749 894.293 539.932C893.674 540.107 892.984 540.195 892.223 540.195C891.539 540.195 890.865 540.104 890.201 539.922C889.544 539.74 888.945 539.463 888.404 539.092C887.864 538.714 887.434 538.245 887.115 537.686C886.796 537.119 886.637 536.458 886.637 535.703H889.088C889.088 536.165 889.166 536.559 889.322 536.885C889.485 537.21 889.71 537.477 889.996 537.686C890.283 537.887 890.615 538.037 890.992 538.135C891.376 538.232 891.786 538.281 892.223 538.281C892.796 538.281 893.274 538.2 893.658 538.037C894.049 537.874 894.342 537.646 894.537 537.354C894.732 537.061 894.83 536.722 894.83 536.338ZM905.582 537.51V529.434H907.945V540H905.719L905.582 537.51ZM905.914 535.312L906.705 535.293C906.705 536.003 906.627 536.657 906.471 537.256C906.314 537.848 906.074 538.366 905.748 538.809C905.423 539.245 905.006 539.587 904.498 539.834C903.99 540.075 903.382 540.195 902.672 540.195C902.158 540.195 901.686 540.12 901.256 539.971C900.826 539.821 900.455 539.59 900.143 539.277C899.837 538.965 899.599 538.558 899.43 538.057C899.26 537.555 899.176 536.956 899.176 536.26V529.434H901.529V536.279C901.529 536.663 901.575 536.986 901.666 537.246C901.757 537.5 901.881 537.705 902.037 537.861C902.193 538.018 902.376 538.128 902.584 538.193C902.792 538.258 903.014 538.291 903.248 538.291C903.919 538.291 904.446 538.161 904.83 537.9C905.221 537.633 905.497 537.275 905.66 536.826C905.829 536.377 905.914 535.872 905.914 535.312ZM914.674 538.32C915.058 538.32 915.403 538.245 915.709 538.096C916.021 537.939 916.272 537.725 916.461 537.451C916.656 537.178 916.764 536.862 916.783 536.504H919C918.987 537.188 918.785 537.809 918.395 538.369C918.004 538.929 917.486 539.375 916.842 539.707C916.197 540.033 915.484 540.195 914.703 540.195C913.896 540.195 913.193 540.059 912.594 539.785C911.995 539.505 911.497 539.121 911.1 538.633C910.702 538.145 910.403 537.581 910.201 536.943C910.006 536.305 909.908 535.622 909.908 534.893V534.551C909.908 533.822 910.006 533.138 910.201 532.5C910.403 531.855 910.702 531.289 911.1 530.801C911.497 530.312 911.995 529.932 912.594 529.658C913.193 529.378 913.893 529.238 914.693 529.238C915.54 529.238 916.282 529.408 916.92 529.746C917.558 530.078 918.059 530.544 918.424 531.143C918.795 531.735 918.987 532.425 919 533.213H916.783C916.764 532.822 916.666 532.471 916.49 532.158C916.321 531.839 916.08 531.585 915.768 531.396C915.462 531.208 915.094 531.113 914.664 531.113C914.189 531.113 913.795 531.211 913.482 531.406C913.17 531.595 912.926 531.855 912.75 532.188C912.574 532.513 912.447 532.881 912.369 533.291C912.298 533.695 912.262 534.115 912.262 534.551V534.893C912.262 535.329 912.298 535.752 912.369 536.162C912.441 536.572 912.564 536.94 912.74 537.266C912.923 537.585 913.17 537.842 913.482 538.037C913.795 538.226 914.192 538.32 914.674 538.32ZM925.123 538.32C925.507 538.32 925.852 538.245 926.158 538.096C926.471 537.939 926.721 537.725 926.91 537.451C927.105 537.178 927.213 536.862 927.232 536.504H929.449C929.436 537.188 929.234 537.809 928.844 538.369C928.453 538.929 927.936 539.375 927.291 539.707C926.646 540.033 925.934 540.195 925.152 540.195C924.345 540.195 923.642 540.059 923.043 539.785C922.444 539.505 921.946 539.121 921.549 538.633C921.152 538.145 920.852 537.581 920.65 536.943C920.455 536.305 920.357 535.622 920.357 534.893V534.551C920.357 533.822 920.455 533.138 920.65 532.5C920.852 531.855 921.152 531.289 921.549 530.801C921.946 530.312 922.444 529.932 923.043 529.658C923.642 529.378 924.342 529.238 925.143 529.238C925.989 529.238 926.731 529.408 927.369 529.746C928.007 530.078 928.508 530.544 928.873 531.143C929.244 531.735 929.436 532.425 929.449 533.213H927.232C927.213 532.822 927.115 532.471 926.939 532.158C926.77 531.839 926.529 531.585 926.217 531.396C925.911 531.208 925.543 531.113 925.113 531.113C924.638 531.113 924.244 531.211 923.932 531.406C923.619 531.595 923.375 531.855 923.199 532.188C923.023 532.513 922.896 532.881 922.818 533.291C922.747 533.695 922.711 534.115 922.711 534.551V534.893C922.711 535.329 922.747 535.752 922.818 536.162C922.89 536.572 923.014 536.94 923.189 537.266C923.372 537.585 923.619 537.842 923.932 538.037C924.244 538.226 924.641 538.32 925.123 538.32ZM935.914 540.195C935.133 540.195 934.426 540.068 933.795 539.814C933.17 539.554 932.636 539.193 932.193 538.73C931.757 538.268 931.422 537.725 931.188 537.1C930.953 536.475 930.836 535.801 930.836 535.078V534.688C930.836 533.861 930.956 533.112 931.197 532.441C931.438 531.771 931.773 531.198 932.203 530.723C932.633 530.241 933.141 529.873 933.727 529.619C934.312 529.365 934.947 529.238 935.631 529.238C936.386 529.238 937.047 529.365 937.613 529.619C938.18 529.873 938.648 530.231 939.02 530.693C939.397 531.149 939.677 531.693 939.859 532.324C940.048 532.956 940.143 533.652 940.143 534.414V535.42H931.979V533.73H937.818V533.545C937.805 533.122 937.721 532.725 937.564 532.354C937.415 531.982 937.184 531.683 936.871 531.455C936.559 531.227 936.142 531.113 935.621 531.113C935.23 531.113 934.882 531.198 934.576 531.367C934.277 531.53 934.026 531.768 933.824 532.08C933.622 532.393 933.466 532.77 933.355 533.213C933.251 533.649 933.199 534.141 933.199 534.688V535.078C933.199 535.54 933.261 535.97 933.385 536.367C933.515 536.758 933.704 537.1 933.951 537.393C934.199 537.686 934.498 537.917 934.85 538.086C935.201 538.249 935.602 538.33 936.051 538.33C936.617 538.33 937.122 538.216 937.564 537.988C938.007 537.76 938.391 537.438 938.717 537.021L939.957 538.223C939.729 538.555 939.433 538.874 939.068 539.18C938.704 539.479 938.258 539.723 937.73 539.912C937.21 540.101 936.604 540.195 935.914 540.195ZM947.906 537.139C947.906 536.904 947.848 536.693 947.73 536.504C947.613 536.309 947.389 536.133 947.057 535.977C946.731 535.82 946.249 535.677 945.611 535.547C945.051 535.423 944.537 535.277 944.068 535.107C943.606 534.932 943.209 534.72 942.877 534.473C942.545 534.225 942.288 533.932 942.105 533.594C941.923 533.255 941.832 532.865 941.832 532.422C941.832 531.992 941.926 531.585 942.115 531.201C942.304 530.817 942.574 530.479 942.926 530.186C943.277 529.893 943.704 529.661 944.205 529.492C944.713 529.323 945.279 529.238 945.904 529.238C946.79 529.238 947.548 529.388 948.18 529.688C948.818 529.98 949.306 530.381 949.645 530.889C949.983 531.39 950.152 531.956 950.152 532.588H947.799C947.799 532.308 947.727 532.048 947.584 531.807C947.447 531.559 947.239 531.361 946.959 531.211C946.679 531.055 946.327 530.977 945.904 530.977C945.501 530.977 945.165 531.042 944.898 531.172C944.638 531.296 944.443 531.458 944.312 531.66C944.189 531.862 944.127 532.083 944.127 532.324C944.127 532.5 944.16 532.66 944.225 532.803C944.296 532.939 944.413 533.066 944.576 533.184C944.739 533.294 944.96 533.398 945.24 533.496C945.527 533.594 945.885 533.688 946.314 533.779C947.122 533.949 947.815 534.167 948.395 534.434C948.98 534.694 949.43 535.033 949.742 535.449C950.055 535.859 950.211 536.38 950.211 537.012C950.211 537.48 950.11 537.91 949.908 538.301C949.713 538.685 949.426 539.02 949.049 539.307C948.671 539.587 948.219 539.805 947.691 539.961C947.171 540.117 946.585 540.195 945.934 540.195C944.977 540.195 944.166 540.026 943.502 539.688C942.838 539.342 942.333 538.903 941.988 538.369C941.65 537.829 941.48 537.269 941.48 536.689H943.756C943.782 537.126 943.902 537.474 944.117 537.734C944.339 537.988 944.612 538.174 944.938 538.291C945.27 538.402 945.611 538.457 945.963 538.457C946.386 538.457 946.741 538.402 947.027 538.291C947.314 538.174 947.532 538.018 947.682 537.822C947.831 537.62 947.906 537.393 947.906 537.139ZM958.199 537.139C958.199 536.904 958.141 536.693 958.023 536.504C957.906 536.309 957.682 536.133 957.35 535.977C957.024 535.82 956.542 535.677 955.904 535.547C955.344 535.423 954.83 535.277 954.361 535.107C953.899 534.932 953.502 534.72 953.17 534.473C952.838 534.225 952.581 533.932 952.398 533.594C952.216 533.255 952.125 532.865 952.125 532.422C952.125 531.992 952.219 531.585 952.408 531.201C952.597 530.817 952.867 530.479 953.219 530.186C953.57 529.893 953.997 529.661 954.498 529.492C955.006 529.323 955.572 529.238 956.197 529.238C957.083 529.238 957.841 529.388 958.473 529.688C959.111 529.98 959.599 530.381 959.938 530.889C960.276 531.39 960.445 531.956 960.445 532.588H958.092C958.092 532.308 958.02 532.048 957.877 531.807C957.74 531.559 957.532 531.361 957.252 531.211C956.972 531.055 956.62 530.977 956.197 530.977C955.794 530.977 955.458 531.042 955.191 531.172C954.931 531.296 954.736 531.458 954.605 531.66C954.482 531.862 954.42 532.083 954.42 532.324C954.42 532.5 954.452 532.66 954.518 532.803C954.589 532.939 954.706 533.066 954.869 533.184C955.032 533.294 955.253 533.398 955.533 533.496C955.82 533.594 956.178 533.688 956.607 533.779C957.415 533.949 958.108 534.167 958.688 534.434C959.273 534.694 959.723 535.033 960.035 535.449C960.348 535.859 960.504 536.38 960.504 537.012C960.504 537.48 960.403 537.91 960.201 538.301C960.006 538.685 959.719 539.02 959.342 539.307C958.964 539.587 958.512 539.805 957.984 539.961C957.464 540.117 956.878 540.195 956.227 540.195C955.27 540.195 954.459 540.026 953.795 539.688C953.131 539.342 952.626 538.903 952.281 538.369C951.943 537.829 951.773 537.269 951.773 536.689H954.049C954.075 537.126 954.195 537.474 954.41 537.734C954.632 537.988 954.905 538.174 955.23 538.291C955.562 538.402 955.904 538.457 956.256 538.457C956.679 538.457 957.034 538.402 957.32 538.291C957.607 538.174 957.825 538.018 957.975 537.822C958.124 537.62 958.199 537.393 958.199 537.139ZM965.748 540H963.395V528.418C963.395 527.63 963.541 526.969 963.834 526.436C964.133 525.895 964.56 525.488 965.113 525.215C965.667 524.935 966.321 524.795 967.076 524.795C967.311 524.795 967.542 524.811 967.77 524.844C967.997 524.87 968.219 524.912 968.434 524.971L968.375 526.787C968.245 526.755 968.102 526.732 967.945 526.719C967.796 526.706 967.633 526.699 967.457 526.699C967.099 526.699 966.79 526.768 966.529 526.904C966.275 527.035 966.08 527.227 965.943 527.48C965.813 527.734 965.748 528.047 965.748 528.418V540ZM967.926 529.434V531.152H961.773V529.434H967.926ZM975.992 537.51V529.434H978.355V540H976.129L975.992 537.51ZM976.324 535.312L977.115 535.293C977.115 536.003 977.037 536.657 976.881 537.256C976.725 537.848 976.484 538.366 976.158 538.809C975.833 539.245 975.416 539.587 974.908 539.834C974.4 540.075 973.792 540.195 973.082 540.195C972.568 540.195 972.096 540.12 971.666 539.971C971.236 539.821 970.865 539.59 970.553 539.277C970.247 538.965 970.009 538.558 969.84 538.057C969.671 537.555 969.586 536.956 969.586 536.26V529.434H971.939V536.279C971.939 536.663 971.985 536.986 972.076 537.246C972.167 537.5 972.291 537.705 972.447 537.861C972.604 538.018 972.786 538.128 972.994 538.193C973.202 538.258 973.424 538.291 973.658 538.291C974.329 538.291 974.856 538.161 975.24 537.9C975.631 537.633 975.908 537.275 976.07 536.826C976.24 536.377 976.324 535.872 976.324 535.312ZM983.287 525V540H980.924V525H983.287ZM988.385 525V540H986.021V525H988.385ZM994.029 538.848L996.9 529.434H999.42L995.182 541.611C995.084 541.872 994.957 542.155 994.801 542.461C994.645 542.767 994.439 543.057 994.186 543.33C993.938 543.61 993.629 543.835 993.258 544.004C992.887 544.18 992.438 544.268 991.91 544.268C991.702 544.268 991.5 544.248 991.305 544.209C991.116 544.176 990.937 544.141 990.768 544.102L990.758 542.305C990.823 542.311 990.901 542.318 990.992 542.324C991.09 542.331 991.168 542.334 991.227 542.334C991.617 542.334 991.943 542.285 992.203 542.188C992.464 542.096 992.675 541.947 992.838 541.738C993.007 541.53 993.15 541.25 993.268 540.898L994.029 538.848ZM992.408 529.434L994.918 537.344L995.338 539.824L993.707 540.244L989.869 529.434H992.408ZM1010.86 537.402L1014.6 525.781H1017.3L1012.2 540H1010.38L1010.86 537.402ZM1007.4 525.781L1011.11 537.402L1011.62 540H1009.78L1004.7 525.781H1007.4ZM1022.89 540.195C1022.11 540.195 1021.4 540.068 1020.77 539.814C1020.14 539.554 1019.61 539.193 1019.17 538.73C1018.73 538.268 1018.39 537.725 1018.16 537.1C1017.93 536.475 1017.81 535.801 1017.81 535.078V534.688C1017.81 533.861 1017.93 533.112 1018.17 532.441C1018.41 531.771 1018.75 531.198 1019.18 530.723C1019.61 530.241 1020.11 529.873 1020.7 529.619C1021.29 529.365 1021.92 529.238 1022.6 529.238C1023.36 529.238 1024.02 529.365 1024.59 529.619C1025.15 529.873 1025.62 530.231 1025.99 530.693C1026.37 531.149 1026.65 531.693 1026.83 532.324C1027.02 532.956 1027.12 533.652 1027.12 534.414V535.42H1018.95V533.73H1024.79V533.545C1024.78 533.122 1024.69 532.725 1024.54 532.354C1024.39 531.982 1024.16 531.683 1023.84 531.455C1023.53 531.227 1023.11 531.113 1022.59 531.113C1022.2 531.113 1021.85 531.198 1021.55 531.367C1021.25 531.53 1021 531.768 1020.8 532.08C1020.6 532.393 1020.44 532.77 1020.33 533.213C1020.22 533.649 1020.17 534.141 1020.17 534.688V535.078C1020.17 535.54 1020.23 535.97 1020.36 536.367C1020.49 536.758 1020.68 537.1 1020.92 537.393C1021.17 537.686 1021.47 537.917 1021.82 538.086C1022.17 538.249 1022.57 538.33 1023.02 538.33C1023.59 538.33 1024.09 538.216 1024.54 537.988C1024.98 537.76 1025.36 537.438 1025.69 537.021L1026.93 538.223C1026.7 538.555 1026.41 538.874 1026.04 539.18C1025.68 539.479 1025.23 539.723 1024.7 539.912C1024.18 540.101 1023.58 540.195 1022.89 540.195ZM1031.31 531.445V540H1028.96V529.434H1031.21L1031.31 531.445ZM1034.55 529.365L1034.53 531.553C1034.38 531.527 1034.23 531.507 1034.06 531.494C1033.9 531.481 1033.73 531.475 1033.57 531.475C1033.17 531.475 1032.81 531.533 1032.51 531.65C1032.2 531.761 1031.94 531.924 1031.73 532.139C1031.53 532.347 1031.38 532.601 1031.27 532.9C1031.15 533.2 1031.09 533.535 1031.07 533.906L1030.53 533.945C1030.53 533.281 1030.6 532.666 1030.73 532.1C1030.86 531.533 1031.05 531.035 1031.31 530.605C1031.58 530.176 1031.91 529.84 1032.31 529.6C1032.71 529.359 1033.18 529.238 1033.71 529.238C1033.85 529.238 1034 529.251 1034.17 529.277C1034.34 529.303 1034.46 529.333 1034.55 529.365ZM1038.54 529.434V540H1036.18V529.434H1038.54ZM1036.02 526.66C1036.02 526.302 1036.14 526.006 1036.37 525.771C1036.61 525.531 1036.95 525.41 1037.37 525.41C1037.79 525.41 1038.11 525.531 1038.36 525.771C1038.6 526.006 1038.72 526.302 1038.72 526.66C1038.72 527.012 1038.6 527.305 1038.36 527.539C1038.11 527.773 1037.79 527.891 1037.37 527.891C1036.95 527.891 1036.61 527.773 1036.37 527.539C1036.14 527.305 1036.02 527.012 1036.02 526.66ZM1044.15 540H1041.78V528.75C1041.78 527.897 1041.95 527.178 1042.29 526.592C1042.64 526.006 1043.13 525.56 1043.77 525.254C1044.41 524.948 1045.18 524.795 1046.06 524.795C1046.58 524.795 1047.08 524.85 1047.56 524.961C1048.05 525.072 1048.56 525.212 1049.08 525.381L1048.72 527.295C1048.38 527.184 1048.02 527.08 1047.61 526.982C1047.21 526.878 1046.74 526.826 1046.22 526.826C1045.51 526.826 1044.98 526.989 1044.64 527.314C1044.31 527.633 1044.15 528.112 1044.15 528.75V540ZM1046.27 529.434V531.152H1040.16V529.434H1046.27ZM1050.19 529.434V540H1047.84V529.434H1050.19ZM1057.48 540.195C1056.7 540.195 1055.99 540.068 1055.36 539.814C1054.73 539.554 1054.2 539.193 1053.76 538.73C1053.32 538.268 1052.98 537.725 1052.75 537.1C1052.52 536.475 1052.4 535.801 1052.4 535.078V534.688C1052.4 533.861 1052.52 533.112 1052.76 532.441C1053 531.771 1053.34 531.198 1053.77 530.723C1054.2 530.241 1054.7 529.873 1055.29 529.619C1055.88 529.365 1056.51 529.238 1057.19 529.238C1057.95 529.238 1058.61 529.365 1059.18 529.619C1059.74 529.873 1060.21 530.231 1060.58 530.693C1060.96 531.149 1061.24 531.693 1061.42 532.324C1061.61 532.956 1061.71 533.652 1061.71 534.414V535.42H1053.54V533.73H1059.38V533.545C1059.37 533.122 1059.28 532.725 1059.13 532.354C1058.98 531.982 1058.75 531.683 1058.43 531.455C1058.12 531.227 1057.7 531.113 1057.18 531.113C1056.79 531.113 1056.44 531.198 1056.14 531.367C1055.84 531.53 1055.59 531.768 1055.39 532.08C1055.18 532.393 1055.03 532.77 1054.92 533.213C1054.81 533.649 1054.76 534.141 1054.76 534.688V535.078C1054.76 535.54 1054.82 535.97 1054.95 536.367C1055.08 536.758 1055.27 537.1 1055.51 537.393C1055.76 537.686 1056.06 537.917 1056.41 538.086C1056.76 538.249 1057.16 538.33 1057.61 538.33C1058.18 538.33 1058.68 538.216 1059.13 537.988C1059.57 537.76 1059.95 537.438 1060.28 537.021L1061.52 538.223C1061.29 538.555 1061 538.874 1060.63 539.18C1060.27 539.479 1059.82 539.723 1059.29 539.912C1058.77 540.101 1058.17 540.195 1057.48 540.195ZM1069.99 537.812V525H1072.35V540H1070.21L1069.99 537.812ZM1063.11 534.834V534.629C1063.11 533.828 1063.21 533.099 1063.39 532.441C1063.58 531.777 1063.86 531.208 1064.21 530.732C1064.57 530.251 1065.01 529.883 1065.52 529.629C1066.04 529.368 1066.62 529.238 1067.26 529.238C1067.9 529.238 1068.46 529.362 1068.94 529.609C1069.42 529.857 1069.83 530.212 1070.17 530.674C1070.51 531.13 1070.78 531.676 1070.98 532.314C1071.18 532.946 1071.33 533.649 1071.41 534.424V535.078C1071.33 535.833 1071.18 536.523 1070.98 537.148C1070.78 537.773 1070.51 538.314 1070.17 538.77C1069.83 539.225 1069.42 539.577 1068.93 539.824C1068.45 540.072 1067.89 540.195 1067.24 540.195C1066.6 540.195 1066.03 540.062 1065.51 539.795C1065.01 539.528 1064.57 539.154 1064.21 538.672C1063.86 538.19 1063.58 537.624 1063.39 536.973C1063.21 536.315 1063.11 535.602 1063.11 534.834ZM1065.46 534.629V534.834C1065.46 535.316 1065.51 535.765 1065.59 536.182C1065.68 536.598 1065.82 536.966 1066.01 537.285C1066.2 537.598 1066.44 537.845 1066.74 538.027C1067.05 538.203 1067.41 538.291 1067.84 538.291C1068.37 538.291 1068.81 538.174 1069.16 537.939C1069.5 537.705 1069.77 537.389 1069.97 536.992C1070.17 536.589 1070.31 536.139 1070.38 535.645V533.877C1070.34 533.493 1070.26 533.135 1070.13 532.803C1070.02 532.471 1069.86 532.181 1069.65 531.934C1069.45 531.68 1069.2 531.484 1068.9 531.348C1068.61 531.204 1068.26 531.133 1067.86 531.133C1067.43 531.133 1067.06 531.224 1066.76 531.406C1066.46 531.589 1066.22 531.839 1066.02 532.158C1065.83 532.477 1065.69 532.848 1065.6 533.271C1065.51 533.695 1065.46 534.147 1065.46 534.629Z" fill="black"/>
<path d="M1011.24 600.065H1013.32C1013.25 600.857 1013.03 601.562 1012.65 602.182C1012.28 602.796 1011.75 603.281 1011.07 603.635C1010.39 603.989 1009.56 604.166 1008.59 604.166C1007.84 604.166 1007.17 604.033 1006.57 603.768C1005.97 603.496 1005.46 603.115 1005.03 602.622C1004.61 602.124 1004.28 601.524 1004.05 600.821C1003.83 600.118 1003.72 599.332 1003.72 598.463V597.459C1003.72 596.59 1003.84 595.804 1004.06 595.102C1004.29 594.399 1004.63 593.798 1005.06 593.3C1005.49 592.797 1006.01 592.412 1006.61 592.146C1007.22 591.881 1007.9 591.748 1008.66 591.748C1009.62 591.748 1010.44 591.925 1011.1 592.279C1011.77 592.633 1012.28 593.123 1012.65 593.749C1013.02 594.374 1013.24 595.09 1013.33 595.898H1011.25C1011.2 595.378 1011.07 594.933 1010.89 594.562C1010.7 594.191 1010.43 593.909 1010.07 593.715C1009.71 593.516 1009.24 593.417 1008.66 593.417C1008.19 593.417 1007.77 593.505 1007.42 593.682C1007.06 593.859 1006.77 594.119 1006.53 594.462C1006.29 594.806 1006.11 595.229 1005.99 595.732C1005.87 596.23 1005.81 596.8 1005.81 597.442V598.463C1005.81 599.072 1005.87 599.625 1005.97 600.124C1006.08 600.616 1006.25 601.039 1006.47 601.394C1006.7 601.748 1006.98 602.022 1007.33 602.215C1007.68 602.409 1008.1 602.506 1008.59 602.506C1009.18 602.506 1009.66 602.412 1010.02 602.224C1010.39 602.035 1010.67 601.762 1010.86 601.402C1011.05 601.037 1011.18 600.591 1011.24 600.065ZM1014.63 599.609V599.418C1014.63 598.771 1014.72 598.17 1014.91 597.617C1015.1 597.058 1015.37 596.574 1015.73 596.164C1016.08 595.749 1016.52 595.428 1017.04 595.201C1017.56 594.969 1018.14 594.853 1018.8 594.853C1019.45 594.853 1020.04 594.969 1020.56 595.201C1021.08 595.428 1021.52 595.749 1021.88 596.164C1022.24 596.574 1022.51 597.058 1022.7 597.617C1022.89 598.17 1022.98 598.771 1022.98 599.418V599.609C1022.98 600.256 1022.89 600.857 1022.7 601.41C1022.51 601.964 1022.24 602.448 1021.88 602.863C1021.52 603.272 1021.08 603.593 1020.56 603.826C1020.05 604.053 1019.47 604.166 1018.81 604.166C1018.15 604.166 1017.57 604.053 1017.04 603.826C1016.53 603.593 1016.09 603.272 1015.73 602.863C1015.37 602.448 1015.1 601.964 1014.91 601.41C1014.72 600.857 1014.63 600.256 1014.63 599.609ZM1016.63 599.418V599.609C1016.63 600.013 1016.67 600.395 1016.75 600.754C1016.84 601.114 1016.97 601.43 1017.14 601.701C1017.32 601.972 1017.55 602.185 1017.83 602.34C1018.1 602.495 1018.43 602.572 1018.81 602.572C1019.18 602.572 1019.5 602.495 1019.78 602.34C1020.05 602.185 1020.28 601.972 1020.46 601.701C1020.63 601.43 1020.76 601.114 1020.85 600.754C1020.94 600.395 1020.98 600.013 1020.98 599.609V599.418C1020.98 599.02 1020.94 598.643 1020.85 598.289C1020.76 597.929 1020.63 597.611 1020.45 597.334C1020.27 597.058 1020.04 596.842 1019.77 596.687C1019.5 596.527 1019.17 596.446 1018.8 596.446C1018.42 596.446 1018.09 596.527 1017.82 596.687C1017.55 596.842 1017.32 597.058 1017.14 597.334C1016.97 597.611 1016.84 597.929 1016.75 598.289C1016.67 598.643 1016.63 599.02 1016.63 599.418ZM1026.64 596.936V604H1024.64V595.019H1026.52L1026.64 596.936ZM1026.28 599.177L1025.64 599.169C1025.64 598.533 1025.73 597.949 1025.9 597.417C1026.08 596.886 1026.32 596.43 1026.63 596.048C1026.95 595.666 1027.32 595.373 1027.76 595.168C1028.2 594.958 1028.69 594.853 1029.22 594.853C1029.65 594.853 1030.04 594.913 1030.39 595.035C1030.75 595.151 1031.05 595.342 1031.3 595.608C1031.55 595.874 1031.75 596.219 1031.88 596.646C1032.01 597.066 1032.08 597.583 1032.08 598.198V604H1030.07V598.189C1030.07 597.758 1030.01 597.417 1029.88 597.168C1029.76 596.914 1029.58 596.734 1029.34 596.629C1029.11 596.518 1028.82 596.463 1028.47 596.463C1028.12 596.463 1027.82 596.535 1027.55 596.679C1027.27 596.823 1027.04 597.019 1026.86 597.268C1026.67 597.517 1026.53 597.805 1026.43 598.131C1026.33 598.458 1026.28 598.806 1026.28 599.177ZM1038.24 595.019V596.479H1033.17V595.019H1038.24ZM1034.63 592.819H1036.63V601.518C1036.63 601.795 1036.67 602.008 1036.75 602.157C1036.83 602.301 1036.95 602.398 1037.09 602.448C1037.24 602.498 1037.4 602.522 1037.6 602.522C1037.74 602.522 1037.87 602.514 1038 602.498C1038.12 602.481 1038.23 602.464 1038.3 602.448L1038.31 603.975C1038.15 604.025 1037.95 604.069 1037.73 604.108C1037.51 604.147 1037.27 604.166 1036.98 604.166C1036.52 604.166 1036.12 604.086 1035.76 603.925C1035.41 603.759 1035.13 603.491 1034.93 603.12C1034.73 602.749 1034.63 602.257 1034.63 601.643V592.819ZM1041.92 595.019V604H1039.91V595.019H1041.92ZM1039.78 592.661C1039.78 592.357 1039.88 592.105 1040.08 591.906C1040.28 591.701 1040.57 591.599 1040.93 591.599C1041.28 591.599 1041.56 591.701 1041.76 591.906C1041.97 592.105 1042.07 592.357 1042.07 592.661C1042.07 592.96 1041.97 593.209 1041.76 593.408C1041.56 593.607 1041.28 593.707 1040.93 593.707C1040.57 593.707 1040.28 593.607 1040.08 593.408C1039.88 593.209 1039.78 592.96 1039.78 592.661ZM1046.1 596.936V604H1044.1V595.019H1045.98L1046.1 596.936ZM1045.74 599.177L1045.09 599.169C1045.1 598.533 1045.19 597.949 1045.36 597.417C1045.54 596.886 1045.78 596.43 1046.09 596.048C1046.4 595.666 1046.78 595.373 1047.22 595.168C1047.66 594.958 1048.14 594.853 1048.68 594.853C1049.11 594.853 1049.5 594.913 1049.85 595.035C1050.2 595.151 1050.51 595.342 1050.75 595.608C1051.01 595.874 1051.2 596.219 1051.34 596.646C1051.47 597.066 1051.53 597.583 1051.53 598.198V604H1049.53V598.189C1049.53 597.758 1049.46 597.417 1049.33 597.168C1049.21 596.914 1049.03 596.734 1048.8 596.629C1048.56 596.518 1048.27 596.463 1047.92 596.463C1047.58 596.463 1047.27 596.535 1047 596.679C1046.73 596.823 1046.5 597.019 1046.31 597.268C1046.13 597.517 1045.99 597.805 1045.89 598.131C1045.79 598.458 1045.74 598.806 1045.74 599.177ZM1058.98 601.883V595.019H1060.99V604H1059.1L1058.98 601.883ZM1059.26 600.016L1059.94 599.999C1059.94 600.602 1059.87 601.158 1059.74 601.667C1059.6 602.171 1059.4 602.611 1059.12 602.987C1058.84 603.358 1058.49 603.649 1058.06 603.859C1057.63 604.064 1057.11 604.166 1056.51 604.166C1056.07 604.166 1055.67 604.102 1055.3 603.975C1054.94 603.848 1054.62 603.651 1054.36 603.386C1054.1 603.12 1053.89 602.774 1053.75 602.348C1053.61 601.922 1053.54 601.413 1053.54 600.821V595.019H1055.54V600.837C1055.54 601.164 1055.57 601.438 1055.65 601.659C1055.73 601.875 1055.83 602.049 1055.97 602.182C1056.1 602.315 1056.26 602.409 1056.43 602.464C1056.61 602.52 1056.8 602.547 1057 602.547C1057.57 602.547 1058.01 602.437 1058.34 602.215C1058.67 601.988 1058.91 601.684 1059.05 601.302C1059.19 600.92 1059.26 600.492 1059.26 600.016ZM1067 604.166C1066.33 604.166 1065.73 604.058 1065.2 603.842C1064.67 603.621 1064.21 603.314 1063.84 602.921C1063.47 602.528 1063.18 602.066 1062.98 601.535C1062.78 601.003 1062.68 600.431 1062.68 599.816V599.484C1062.68 598.782 1062.78 598.145 1062.99 597.575C1063.19 597.005 1063.48 596.518 1063.84 596.114C1064.21 595.705 1064.64 595.392 1065.14 595.176C1065.64 594.96 1066.18 594.853 1066.76 594.853C1067.4 594.853 1067.96 594.96 1068.44 595.176C1068.92 595.392 1069.32 595.696 1069.64 596.089C1069.96 596.477 1070.2 596.939 1070.35 597.476C1070.51 598.012 1070.59 598.604 1070.59 599.252V600.107H1063.65V598.671H1068.62V598.513C1068.61 598.153 1068.53 597.816 1068.4 597.5C1068.27 597.185 1068.08 596.931 1067.81 596.737C1067.55 596.543 1067.19 596.446 1066.75 596.446C1066.42 596.446 1066.12 596.518 1065.86 596.662C1065.61 596.8 1065.39 597.002 1065.22 597.268C1065.05 597.534 1064.92 597.855 1064.82 598.231C1064.74 598.602 1064.69 599.02 1064.69 599.484V599.816C1064.69 600.209 1064.74 600.575 1064.85 600.912C1064.96 601.244 1065.12 601.535 1065.33 601.784C1065.54 602.033 1065.8 602.229 1066.09 602.373C1066.39 602.511 1066.73 602.581 1067.12 602.581C1067.6 602.581 1068.03 602.484 1068.4 602.29C1068.78 602.096 1069.1 601.822 1069.38 601.468L1070.44 602.489C1070.24 602.771 1069.99 603.043 1069.68 603.303C1069.37 603.557 1068.99 603.765 1068.54 603.925C1068.1 604.086 1067.59 604.166 1067 604.166Z" fill="#55229E"/>
<path d="M1002.88 605.66H1071.12V606.49H1002.88V605.66Z" fill="#55229E"/>
</g>
<defs>
<clipPath id="clip0_310_1081">
<rect width="1728" height="1117" fill="white"/>
</clipPath>
</defs>
</svg>
