<svg width="1728" height="1117" viewBox="0 0 1728 1117" fill="none" xmlns="http://www.w3.org/2000/svg">
<g clip-path="url(#clip0_332_233)">
<rect width="1728" height="1117" fill="white"/>
<rect width="889" height="1117" fill="#55229E" fill-opacity="0.63"/>
<path d="M438 37C438 226.986 283.986 381 94 381C-95.9859 381 -250 226.986 -250 37C-250 -152.986 -95.9859 -307 94 -307C283.986 -307 438 -152.986 438 37ZM-201.003 37C-201.003 199.926 -68.9258 332.003 94 332.003C256.926 332.003 389.003 199.926 389.003 37C389.003 -125.926 256.926 -258.003 94 -258.003C-68.9258 -258.003 -201.003 -125.926 -201.003 37Z" fill="white" fill-opacity="0.3"/>
<path d="M361.555 36.9998C361.555 184.767 241.766 304.555 93.9989 304.555C-53.7679 304.555 -173.557 184.767 -173.557 36.9998C-173.557 -110.767 -53.7679 -230.556 93.9989 -230.556C241.766 -230.556 361.555 -110.767 361.555 36.9998ZM-124.123 36.9998C-124.123 157.465 -26.4665 255.122 93.9989 255.122C214.464 255.122 312.121 157.465 312.121 36.9998C312.121 -83.4656 214.464 -181.122 93.9989 -181.122C-26.4665 -181.122 -124.123 -83.4656 -124.123 36.9998Z" fill="white" fill-opacity="0.3"/>
<path d="M508.501 701.194C516.319 663.23 526.091 650.573 526.091 650.573L529.825 647.665L534.314 644.163L534.293 643.713L535.358 643.349L535.608 643.154L536.018 642.838L536.084 642.909L536.223 643.054L556.539 636.118L582.313 627.326L594.249 611.746C596.192 609.208 598.695 607.158 601.56 605.754C604.425 604.351 607.575 603.633 610.763 603.656L648.88 603.94C654.034 603.978 658.987 605.951 662.766 609.471L687.82 632.81L726.859 651.535L726.925 651.469L727.335 651.763L733.367 654.659L733.118 655.961L736.851 658.666C736.851 658.666 746.624 670.443 754.442 705.768C756.43 714.756 757.409 734.037 757.763 757.797C757.78 758.998 757.56 760.192 757.114 761.308C756.669 762.423 756.007 763.439 755.167 764.295C754.327 765.151 753.326 765.832 752.222 766.296C751.118 766.76 749.933 767 748.736 767H540.222V767H514.197C513.001 766.999 511.817 766.76 510.713 766.296C509.61 765.833 508.61 765.153 507.77 764.298C506.93 763.443 506.268 762.428 505.822 761.314C505.375 760.199 505.154 759.007 505.17 757.806C505.515 731.952 506.494 710.941 508.501 701.194Z" fill="#55229E"/>
<path d="M482.359 448.731C488.855 448.731 495.085 451.304 499.679 455.883C504.273 460.462 506.854 466.673 506.854 473.149C506.854 479.625 504.273 485.835 499.679 490.414C495.085 494.994 488.855 497.566 482.359 497.566H253.495C246.998 497.566 240.768 494.994 236.174 490.414C231.581 485.835 229 479.625 229 473.149C229 466.673 231.581 460.462 236.174 455.883C240.768 451.304 246.998 448.731 253.495 448.731H482.359Z" fill="#55229E"/>
<path d="M623.048 588.5C595.147 588.5 572.529 566.259 572.529 538.823C572.529 511.387 595.147 489.146 623.048 489.146C650.948 489.146 673.566 511.387 673.566 538.823C673.566 566.259 650.948 588.5 623.048 588.5Z" fill="#9E616A"/>
<path d="M675.734 491.082C673.188 489.053 670.213 487.186 666.959 487.291C663.704 487.396 660.404 490.333 661.078 493.515C655.1 482.941 645.585 474.808 634.203 470.544C622.82 466.28 610.299 466.158 598.835 470.199C590.746 473.05 582.814 478.754 580.955 487.119C580.478 489.267 580.376 491.622 579.034 493.366C577.342 495.564 574.104 496.062 571.438 495.288C571.411 495.28 571.384 495.273 571.358 495.265C570.907 495.111 570.421 495.096 569.962 495.221C569.503 495.347 569.092 495.607 568.783 495.968C568.473 496.329 568.279 496.775 568.226 497.247C568.173 497.72 568.263 498.197 568.484 498.618L570.773 502.883C567.888 503.525 564.89 503.462 562.035 502.697C561.561 502.573 561.059 502.598 560.6 502.77C560.141 502.941 559.746 503.251 559.47 503.655C559.193 504.06 559.049 504.54 559.056 505.03C559.064 505.52 559.223 505.995 559.512 506.391C567.059 516.742 579.667 523.427 592.534 523.348C601.679 523.293 610.918 520.144 619.818 522.245C623.261 523.058 626.478 524.63 629.233 526.847C631.989 529.064 634.212 531.869 635.741 535.057C637.27 538.244 638.065 541.733 638.067 545.268C638.07 548.802 637.281 552.292 635.758 555.482C638.492 552.495 643.777 553.202 646.574 556.131C649.371 559.061 650.095 563.433 649.813 567.471C649.382 573.648 646.96 579.468 644.406 585.132C665.816 584.459 686.067 569.454 692.883 549.161C699.728 528.782 692.554 504.487 675.734 491.082Z" fill="#2F2E41"/>
<path d="M689.031 465.158C686.431 466.281 683.718 465.05 682.58 462.229C681.425 459.365 682.504 456.458 685.146 455.316C687.788 454.174 690.453 455.409 691.626 458.319C692.783 461.185 691.715 463.997 689.031 465.158ZM684.051 449.679L681.983 450.573C681.467 450.793 680.889 450.805 680.365 450.606C679.84 450.407 679.407 450.011 679.151 449.497L679.048 449.29C676.824 445.137 676.569 440.09 678.295 434.297C679.894 429.1 680.559 425.445 679.223 422.133C677.679 418.305 674.381 417.106 670.176 418.843C668.545 419.548 668.026 419.537 666.742 420.855C666.463 421.145 666.13 421.374 665.764 421.528C665.397 421.682 665.004 421.759 664.609 421.752C664.226 421.748 663.849 421.663 663.498 421.504C663.148 421.345 662.832 421.115 662.57 420.827C662.064 420.272 661.781 419.539 661.777 418.776C661.774 418.013 662.05 417.277 662.55 416.717C664.707 414.379 667.309 412.529 670.192 411.285C679.227 407.379 683.776 413.145 685.857 418.305C687.893 423.353 686.748 428.035 684.908 434.1C683.366 439.14 683.456 442.874 685.207 446.587C685.334 446.867 685.404 447.172 685.414 447.481C685.424 447.791 685.374 448.099 685.266 448.388C685.158 448.677 684.994 448.94 684.785 449.162C684.577 449.384 684.327 449.56 684.051 449.679L684.051 449.679Z" fill="black"/>
<path d="M430.467 489.146H475.451C475.594 489.148 475.736 489.105 475.868 489.021C476 488.937 476.121 488.814 476.222 488.657C476.323 488.501 476.404 488.314 476.459 488.109C476.514 487.904 476.542 487.684 476.542 487.462C476.542 487.24 476.514 487.02 476.459 486.815C476.404 486.61 476.323 486.424 476.222 486.267C476.121 486.111 476 485.987 475.868 485.903C475.736 485.819 475.594 485.777 475.451 485.778H430.467C430.181 485.781 429.907 485.96 429.706 486.276C429.504 486.591 429.391 487.018 429.391 487.462C429.391 487.907 429.504 488.333 429.706 488.649C429.907 488.964 430.181 489.143 430.467 489.146Z" fill="white"/>
<path d="M373.266 489.146H419.842C419.99 489.147 420.137 489.126 420.274 489.084C420.411 489.042 420.535 488.98 420.64 488.902C420.745 488.823 420.829 488.73 420.886 488.628C420.942 488.525 420.972 488.415 420.972 488.304C420.972 488.193 420.942 488.083 420.886 487.981C420.829 487.878 420.745 487.785 420.64 487.707C420.535 487.629 420.411 487.567 420.274 487.525C420.137 487.483 419.99 487.462 419.842 487.462H373.266C373.118 487.462 372.972 487.483 372.835 487.525C372.698 487.567 372.573 487.629 372.468 487.707C372.363 487.785 372.28 487.878 372.223 487.981C372.166 488.083 372.137 488.193 372.137 488.304C372.137 488.415 372.166 488.525 372.223 488.628C372.28 488.73 372.363 488.823 372.468 488.902C372.573 488.98 372.698 489.042 372.835 489.084C372.972 489.126 373.118 489.147 373.266 489.146Z" fill="white"/>
<path d="M315.973 489.146H360.957C361.243 489.145 361.517 489.055 361.718 488.898C361.92 488.74 362.033 488.527 362.033 488.304C362.033 488.082 361.92 487.869 361.718 487.711C361.517 487.553 361.243 487.464 360.957 487.462H315.973C315.83 487.462 315.689 487.483 315.556 487.525C315.424 487.567 315.304 487.629 315.202 487.707C315.101 487.785 315.02 487.878 314.965 487.981C314.911 488.083 314.882 488.193 314.882 488.304C314.882 488.415 314.911 488.525 314.965 488.628C315.02 488.73 315.101 488.823 315.202 488.902C315.304 488.98 315.424 489.042 315.556 489.084C315.689 489.126 315.83 489.147 315.973 489.146H315.973Z" fill="white"/>
<path d="M260.348 489.146H303.739C304.015 489.145 304.279 489.055 304.474 488.898C304.668 488.74 304.777 488.527 304.777 488.304C304.777 488.082 304.668 487.869 304.474 487.711C304.279 487.553 304.015 487.464 303.739 487.462H260.348C260.072 487.464 259.808 487.553 259.614 487.711C259.419 487.869 259.31 488.082 259.31 488.304C259.31 488.527 259.419 488.74 259.614 488.898C259.808 489.055 260.072 489.145 260.348 489.146Z" fill="white"/>
<path d="M455.492 479.043C451.307 479.043 447.915 475.273 447.915 470.623C447.915 465.973 451.307 462.203 455.492 462.203C459.678 462.203 463.07 465.973 463.07 470.623C463.07 475.273 459.678 479.043 455.492 479.043Z" fill="white"/>
<path d="M395.712 479.043C391.062 479.043 387.292 475.273 387.292 470.623C387.292 465.973 391.062 462.203 395.712 462.203C400.362 462.203 404.132 465.973 404.132 470.623C404.132 475.273 400.362 479.043 395.712 479.043Z" fill="white"/>
<path d="M336.774 479.043C332.123 479.043 328.354 475.273 328.354 470.623C328.354 465.973 332.123 462.203 336.774 462.203C341.424 462.203 345.193 465.973 345.193 470.623C345.193 475.273 341.424 479.043 336.774 479.043Z" fill="white"/>
<path d="M279.519 479.043C274.869 479.043 271.099 475.273 271.099 470.623C271.099 465.973 274.869 462.203 279.519 462.203C284.169 462.203 287.938 465.973 287.938 470.623C287.938 475.273 284.169 479.043 279.519 479.043Z" fill="white"/>
<rect x="1021.83" y="646.83" width="524.341" height="93.3407" rx="12.4448" fill="#55229E" stroke="white" stroke-width="1.65931"/>
<path d="M1233.73 676.355H1244.29C1246.45 676.355 1248.31 676.679 1249.87 677.327C1251.43 677.975 1252.64 678.934 1253.48 680.205C1254.33 681.475 1254.75 683.037 1254.75 684.891C1254.75 686.408 1254.49 687.711 1253.97 688.8C1253.46 689.875 1252.74 690.776 1251.81 691.502C1250.89 692.215 1249.81 692.786 1248.56 693.214L1246.72 694.186H1237.54L1237.5 689.636H1244.32C1245.35 689.636 1246.2 689.454 1246.87 689.091C1247.55 688.728 1248.05 688.223 1248.39 687.574C1248.74 686.926 1248.91 686.174 1248.91 685.319C1248.91 684.411 1248.74 683.627 1248.41 682.966C1248.07 682.305 1247.56 681.799 1246.87 681.449C1246.18 681.099 1245.32 680.924 1244.29 680.924H1239.56V704.667H1233.73V676.355ZM1249.55 704.667L1243.1 692.047L1249.26 692.008L1255.8 704.394V704.667H1249.55ZM1268.57 705.056C1266.94 705.056 1265.47 704.796 1264.18 704.278C1262.88 703.746 1261.78 703.014 1260.87 702.08C1259.98 701.147 1259.29 700.065 1258.81 698.833C1258.33 697.589 1258.09 696.266 1258.09 694.866V694.089C1258.09 692.494 1258.32 691.036 1258.77 689.713C1259.23 688.391 1259.87 687.244 1260.72 686.272C1261.57 685.299 1262.61 684.554 1263.83 684.035C1265.05 683.504 1266.42 683.238 1267.95 683.238C1269.44 683.238 1270.76 683.485 1271.92 683.977C1273.07 684.47 1274.04 685.17 1274.81 686.077C1275.6 686.985 1276.2 688.074 1276.6 689.344C1277 690.601 1277.21 692.001 1277.21 693.544V695.877H1260.48V692.144H1271.7V691.716C1271.7 690.938 1271.56 690.245 1271.27 689.636C1271 689.013 1270.59 688.521 1270.03 688.158C1269.47 687.795 1268.76 687.613 1267.89 687.613C1267.15 687.613 1266.52 687.775 1265.99 688.099C1265.45 688.424 1265.02 688.877 1264.68 689.461C1264.36 690.044 1264.11 690.731 1263.94 691.522C1263.79 692.3 1263.71 693.155 1263.71 694.089V694.866C1263.71 695.709 1263.83 696.487 1264.06 697.2C1264.31 697.913 1264.65 698.528 1265.09 699.047C1265.54 699.566 1266.09 699.967 1266.72 700.253C1267.37 700.538 1268.11 700.68 1268.92 700.68C1269.93 700.68 1270.87 700.486 1271.74 700.097C1272.62 699.695 1273.38 699.092 1274.02 698.289L1276.74 701.244C1276.3 701.88 1275.7 702.489 1274.93 703.072C1274.18 703.655 1273.27 704.135 1272.21 704.511C1271.15 704.874 1269.93 705.056 1268.57 705.056ZM1291.77 698.853C1291.77 698.451 1291.65 698.088 1291.42 697.764C1291.19 697.44 1290.75 697.141 1290.12 696.869C1289.49 696.584 1288.59 696.325 1287.41 696.091C1286.35 695.858 1285.36 695.566 1284.44 695.216C1283.53 694.853 1282.74 694.419 1282.07 693.914C1281.41 693.408 1280.89 692.812 1280.51 692.125C1280.14 691.425 1279.95 690.627 1279.95 689.733C1279.95 688.851 1280.14 688.022 1280.51 687.244C1280.9 686.466 1281.45 685.779 1282.16 685.183C1282.89 684.573 1283.77 684.1 1284.81 683.763C1285.86 683.413 1287.04 683.238 1288.35 683.238C1290.18 683.238 1291.74 683.53 1293.05 684.113C1294.38 684.697 1295.39 685.5 1296.09 686.524C1296.8 687.536 1297.16 688.689 1297.16 689.986H1291.56C1291.56 689.441 1291.44 688.955 1291.21 688.527C1290.99 688.087 1290.64 687.743 1290.16 687.497C1289.69 687.237 1289.08 687.108 1288.33 687.108C1287.71 687.108 1287.17 687.218 1286.71 687.438C1286.26 687.646 1285.91 687.931 1285.66 688.294C1285.43 688.644 1285.31 689.033 1285.31 689.461C1285.31 689.785 1285.38 690.076 1285.51 690.336C1285.65 690.582 1285.88 690.809 1286.19 691.016C1286.5 691.224 1286.9 691.418 1287.39 691.6C1287.9 691.768 1288.52 691.924 1289.26 692.066C1290.78 692.377 1292.13 692.786 1293.33 693.291C1294.52 693.784 1295.46 694.458 1296.16 695.314C1296.86 696.156 1297.21 697.265 1297.21 698.639C1297.21 699.572 1297.01 700.428 1296.59 701.205C1296.18 701.983 1295.58 702.664 1294.8 703.247C1294.03 703.818 1293.09 704.265 1292 704.589C1290.93 704.9 1289.72 705.056 1288.37 705.056C1286.41 705.056 1284.75 704.706 1283.39 704.005C1282.04 703.305 1281.02 702.417 1280.32 701.342C1279.63 700.253 1279.29 699.138 1279.29 697.997H1284.59C1284.62 698.762 1284.81 699.378 1285.18 699.844C1285.55 700.311 1286.03 700.648 1286.6 700.855C1287.18 701.063 1287.81 701.167 1288.48 701.167C1289.21 701.167 1289.81 701.069 1290.29 700.875C1290.77 700.667 1291.13 700.395 1291.38 700.058C1291.64 699.708 1291.77 699.306 1291.77 698.853ZM1310.53 705.056C1308.9 705.056 1307.44 704.796 1306.14 704.278C1304.84 703.746 1303.74 703.014 1302.83 702.08C1301.94 701.147 1301.25 700.065 1300.77 698.833C1300.29 697.589 1300.05 696.266 1300.05 694.866V694.089C1300.05 692.494 1300.28 691.036 1300.73 689.713C1301.19 688.391 1301.84 687.244 1302.68 686.272C1303.53 685.299 1304.57 684.554 1305.79 684.035C1307.01 683.504 1308.38 683.238 1309.91 683.238C1311.4 683.238 1312.72 683.485 1313.88 683.977C1315.03 684.47 1316 685.17 1316.78 686.077C1317.57 686.985 1318.16 688.074 1318.56 689.344C1318.97 690.601 1319.17 692.001 1319.17 693.544V695.877H1302.45V692.144H1313.66V691.716C1313.66 690.938 1313.52 690.245 1313.24 689.636C1312.96 689.013 1312.55 688.521 1311.99 688.158C1311.44 687.795 1310.72 687.613 1309.85 687.613C1309.11 687.613 1308.48 687.775 1307.95 688.099C1307.42 688.424 1306.98 688.877 1306.65 689.461C1306.32 690.044 1306.07 690.731 1305.91 691.522C1305.75 692.3 1305.67 693.155 1305.67 694.089V694.866C1305.67 695.709 1305.79 696.487 1306.02 697.2C1306.27 697.913 1306.61 698.528 1307.05 699.047C1307.51 699.566 1308.05 699.967 1308.69 700.253C1309.34 700.538 1310.07 700.68 1310.88 700.68C1311.9 700.68 1312.84 700.486 1313.7 700.097C1314.59 699.695 1315.34 699.092 1315.98 698.289L1318.7 701.244C1318.26 701.88 1317.66 702.489 1316.89 703.072C1316.14 703.655 1315.23 704.135 1314.17 704.511C1313.11 704.874 1311.9 705.056 1310.53 705.056ZM1332.66 683.627V687.594H1320.41V683.627H1332.66ZM1323.45 678.435H1329.05V698.328C1329.05 698.937 1329.12 699.404 1329.28 699.728C1329.45 700.052 1329.69 700.279 1330.02 700.408C1330.34 700.525 1330.75 700.583 1331.24 700.583C1331.59 700.583 1331.9 700.57 1332.18 700.544C1332.46 700.505 1332.7 700.467 1332.9 700.428L1332.92 704.55C1332.44 704.706 1331.92 704.829 1331.36 704.919C1330.8 705.01 1330.19 705.056 1329.51 705.056C1328.28 705.056 1327.2 704.855 1326.28 704.453C1325.38 704.038 1324.68 703.377 1324.18 702.469C1323.69 701.562 1323.45 700.369 1323.45 698.891V678.435Z" fill="white"/>
<rect x="1021.83" y="501.83" width="524.341" height="93.3407" rx="12.4448" fill="white" stroke="#C4C4C4" stroke-width="1.65931"/>
<g clip-path="url(#clip1_332_233)">
<path d="M1523.51 549.243C1523.05 549.732 1522.5 550.125 1521.89 550.397C1521.28 550.669 1520.62 550.815 1519.95 550.827C1519.28 550.839 1518.62 550.716 1518 550.465C1517.38 550.215 1516.82 549.842 1516.35 549.37C1515.87 548.897 1515.5 548.334 1515.25 547.714C1515 547.094 1514.88 546.43 1514.89 545.762C1514.9 545.094 1515.05 544.434 1515.32 543.824C1515.59 543.213 1515.98 542.664 1516.47 542.208M1529.85 555.582C1527.01 557.744 1523.56 558.942 1519.99 559C1508.37 559 1501.74 545.726 1501.74 545.726C1503.8 541.879 1506.66 538.519 1510.13 535.869L1529.85 555.582ZM1516.51 532.849C1517.65 532.582 1518.82 532.448 1519.99 532.451C1531.6 532.451 1538.24 545.726 1538.24 545.726C1537.23 547.61 1536.03 549.384 1534.66 551.019L1516.51 532.849Z" stroke="#D3D3D3" stroke-width="3.31861" stroke-linecap="round" stroke-linejoin="round"/>
<path d="M1501.74 527.473L1538.24 563.978" stroke="#D3D3D3" stroke-width="3.31861" stroke-linecap="round" stroke-linejoin="round"/>
</g>
<path d="M1116.8 540.236V559.11H1114.29L1104.79 544.553V559.11H1102.28V540.236H1104.79L1114.33 554.833V540.236H1116.8ZM1126.69 559.37C1125.72 559.37 1124.83 559.205 1124.04 558.877C1123.25 558.54 1122.57 558.069 1122 557.464C1121.44 556.859 1121.01 556.142 1120.71 555.312C1120.4 554.483 1120.25 553.575 1120.25 552.59V552.045C1120.25 550.905 1120.42 549.889 1120.76 548.999C1121.09 548.1 1121.55 547.34 1122.13 546.717C1122.71 546.095 1123.37 545.624 1124.1 545.304C1124.84 544.985 1125.6 544.825 1126.38 544.825C1127.39 544.825 1128.25 544.998 1128.98 545.343C1129.71 545.689 1130.31 546.173 1130.78 546.795C1131.24 547.409 1131.59 548.135 1131.82 548.973C1132.04 549.803 1132.15 550.71 1132.15 551.695V552.771H1121.68V550.814H1129.75V550.632C1129.72 550.01 1129.59 549.405 1129.37 548.818C1129.15 548.23 1128.8 547.746 1128.33 547.366C1127.85 546.985 1127.2 546.795 1126.38 546.795C1125.84 546.795 1125.34 546.912 1124.88 547.145C1124.42 547.37 1124.03 547.707 1123.7 548.156C1123.37 548.606 1123.12 549.155 1122.94 549.803C1122.75 550.451 1122.66 551.198 1122.66 552.045V552.59C1122.66 553.255 1122.75 553.882 1122.94 554.47C1123.13 555.049 1123.4 555.558 1123.75 555.999C1124.12 556.44 1124.55 556.786 1125.06 557.036C1125.58 557.287 1126.17 557.412 1126.82 557.412C1127.67 557.412 1128.39 557.239 1128.98 556.894C1129.56 556.548 1130.08 556.086 1130.52 555.507L1131.97 556.66C1131.67 557.118 1131.28 557.555 1130.82 557.97C1130.35 558.384 1129.78 558.722 1129.09 558.981C1128.42 559.24 1127.62 559.37 1126.69 559.37ZM1138.5 556.621L1142.11 545.084H1143.69L1143.38 547.379L1139.71 559.11H1138.17L1138.5 556.621ZM1136.08 545.084L1139.15 556.751L1139.37 559.11H1137.75L1133.68 545.084H1136.08ZM1147.14 556.66L1150.07 545.084H1152.45L1148.38 559.11H1146.77L1147.14 556.66ZM1144.04 545.084L1147.57 556.427L1147.97 559.11H1146.44L1142.67 547.353L1142.35 545.084H1144.04ZM1168.83 551.708H1163.78V549.673H1168.83C1169.8 549.673 1170.59 549.518 1171.2 549.206C1171.8 548.895 1172.24 548.463 1172.52 547.91C1172.81 547.357 1172.95 546.726 1172.95 546.017C1172.95 545.369 1172.81 544.76 1172.52 544.19C1172.24 543.619 1171.8 543.161 1171.2 542.816C1170.59 542.461 1169.8 542.284 1168.83 542.284H1164.37V559.11H1161.86V540.236H1168.83C1170.25 540.236 1171.46 540.482 1172.44 540.975C1173.43 541.467 1174.18 542.15 1174.69 543.023C1175.19 543.887 1175.45 544.877 1175.45 545.992C1175.45 547.201 1175.19 548.234 1174.69 549.09C1174.18 549.945 1173.43 550.598 1172.44 551.047C1171.46 551.488 1170.25 551.708 1168.83 551.708ZM1186.36 556.712V549.492C1186.36 548.939 1186.25 548.459 1186.03 548.053C1185.81 547.638 1185.48 547.318 1185.04 547.093C1184.6 546.869 1184.06 546.756 1183.41 546.756C1182.8 546.756 1182.27 546.86 1181.81 547.067C1181.37 547.275 1181.01 547.547 1180.75 547.884C1180.5 548.221 1180.38 548.584 1180.38 548.973H1177.98C1177.98 548.472 1178.11 547.975 1178.37 547.482C1178.63 546.99 1179 546.545 1179.48 546.147C1179.97 545.741 1180.56 545.421 1181.24 545.188C1181.94 544.946 1182.71 544.825 1183.55 544.825C1184.57 544.825 1185.47 544.998 1186.25 545.343C1187.03 545.689 1187.65 546.212 1188.09 546.912C1188.54 547.603 1188.76 548.472 1188.76 549.518V556.051C1188.76 556.518 1188.8 557.015 1188.88 557.542C1188.97 558.069 1189.09 558.523 1189.26 558.903V559.11H1186.75C1186.63 558.834 1186.54 558.467 1186.47 558.009C1186.4 557.542 1186.36 557.11 1186.36 556.712ZM1186.78 550.606L1186.81 552.292H1184.38C1183.7 552.292 1183.09 552.348 1182.55 552.46C1182.02 552.564 1181.57 552.724 1181.21 552.94C1180.84 553.156 1180.57 553.428 1180.38 553.757C1180.19 554.076 1180.09 554.452 1180.09 554.884C1180.09 555.325 1180.19 555.727 1180.39 556.09C1180.59 556.453 1180.89 556.742 1181.28 556.959C1181.69 557.166 1182.19 557.27 1182.77 557.27C1183.51 557.27 1184.16 557.114 1184.72 556.803C1185.28 556.492 1185.73 556.112 1186.05 555.662C1186.39 555.213 1186.57 554.776 1186.6 554.353L1187.62 555.507C1187.56 555.87 1187.4 556.271 1187.13 556.712C1186.86 557.153 1186.5 557.576 1186.05 557.983C1185.61 558.38 1185.09 558.713 1184.47 558.981C1183.87 559.24 1183.18 559.37 1182.42 559.37C1181.47 559.37 1180.64 559.184 1179.92 558.812C1179.21 558.441 1178.66 557.944 1178.26 557.321C1177.87 556.691 1177.68 555.986 1177.68 555.208C1177.68 554.457 1177.83 553.795 1178.12 553.225C1178.41 552.646 1178.84 552.166 1179.39 551.786C1179.94 551.397 1180.61 551.103 1181.39 550.905C1182.16 550.706 1183.03 550.606 1183.99 550.606H1186.78ZM1200.7 555.39C1200.7 555.044 1200.62 554.724 1200.47 554.431C1200.32 554.128 1200.02 553.856 1199.55 553.614C1199.09 553.363 1198.4 553.147 1197.47 552.966C1196.7 552.802 1195.99 552.607 1195.36 552.382C1194.74 552.158 1194.21 551.886 1193.77 551.566C1193.33 551.246 1193 550.87 1192.77 550.438C1192.54 550.006 1192.42 549.5 1192.42 548.921C1192.42 548.368 1192.54 547.845 1192.78 547.353C1193.03 546.86 1193.38 546.424 1193.83 546.043C1194.29 545.663 1194.84 545.365 1195.48 545.149C1196.12 544.933 1196.83 544.825 1197.62 544.825C1198.74 544.825 1199.7 545.024 1200.5 545.421C1201.29 545.819 1201.9 546.35 1202.32 547.016C1202.75 547.672 1202.96 548.403 1202.96 549.206H1200.56C1200.56 548.818 1200.44 548.442 1200.21 548.079C1199.99 547.707 1199.65 547.4 1199.21 547.158C1198.78 546.916 1198.25 546.795 1197.62 546.795C1196.95 546.795 1196.41 546.899 1196 547.106C1195.59 547.305 1195.29 547.56 1195.1 547.871C1194.92 548.182 1194.83 548.511 1194.83 548.856C1194.83 549.116 1194.87 549.349 1194.96 549.556C1195.05 549.755 1195.22 549.941 1195.45 550.114C1195.69 550.278 1196.01 550.434 1196.44 550.581C1196.86 550.727 1197.4 550.874 1198.06 551.021C1199.21 551.281 1200.15 551.592 1200.9 551.955C1201.64 552.318 1202.19 552.763 1202.56 553.29C1202.92 553.817 1203.1 554.457 1203.1 555.208C1203.1 555.822 1202.97 556.384 1202.71 556.894C1202.46 557.404 1202.09 557.844 1201.61 558.216C1201.13 558.579 1200.56 558.864 1199.9 559.072C1199.24 559.27 1198.5 559.37 1197.68 559.37C1196.45 559.37 1195.4 559.149 1194.54 558.709C1193.69 558.268 1193.04 557.697 1192.6 556.997C1192.16 556.297 1191.94 555.558 1191.94 554.781H1194.35C1194.38 555.437 1194.58 555.96 1194.92 556.349C1195.27 556.729 1195.69 557.002 1196.19 557.166C1196.69 557.321 1197.19 557.399 1197.68 557.399C1198.34 557.399 1198.89 557.313 1199.33 557.14C1199.78 556.967 1200.12 556.729 1200.35 556.427C1200.59 556.125 1200.7 555.779 1200.7 555.39ZM1214.42 555.39C1214.42 555.044 1214.34 554.724 1214.18 554.431C1214.04 554.128 1213.73 553.856 1213.26 553.614C1212.81 553.363 1212.11 553.147 1211.19 552.966C1210.41 552.802 1209.71 552.607 1209.08 552.382C1208.45 552.158 1207.92 551.886 1207.48 551.566C1207.05 551.246 1206.72 550.87 1206.48 550.438C1206.25 550.006 1206.13 549.5 1206.13 548.921C1206.13 548.368 1206.26 547.845 1206.5 547.353C1206.75 546.86 1207.1 546.424 1207.55 546.043C1208.01 545.663 1208.55 545.365 1209.19 545.149C1209.83 544.933 1210.55 544.825 1211.33 544.825C1212.46 544.825 1213.42 545.024 1214.21 545.421C1215.01 545.819 1215.61 546.35 1216.04 547.016C1216.46 547.672 1216.67 548.403 1216.67 549.206H1214.28C1214.28 548.818 1214.16 548.442 1213.93 548.079C1213.7 547.707 1213.37 547.4 1212.93 547.158C1212.49 546.916 1211.96 546.795 1211.33 546.795C1210.67 546.795 1210.13 546.899 1209.71 547.106C1209.31 547.305 1209.01 547.56 1208.82 547.871C1208.64 548.182 1208.55 548.511 1208.55 548.856C1208.55 549.116 1208.59 549.349 1208.67 549.556C1208.77 549.755 1208.93 549.941 1209.17 550.114C1209.4 550.278 1209.73 550.434 1210.15 550.581C1210.58 550.727 1211.12 550.874 1211.77 551.021C1212.92 551.281 1213.87 551.592 1214.61 551.955C1215.36 552.318 1215.91 552.763 1216.27 553.29C1216.63 553.817 1216.82 554.457 1216.82 555.208C1216.82 555.822 1216.69 556.384 1216.43 556.894C1216.18 557.404 1215.81 557.844 1215.33 558.216C1214.85 558.579 1214.28 558.864 1213.61 559.072C1212.96 559.27 1212.22 559.37 1211.4 559.37C1210.16 559.37 1209.12 559.149 1208.26 558.709C1207.4 558.268 1206.76 557.697 1206.32 556.997C1205.87 556.297 1205.65 555.558 1205.65 554.781H1208.07C1208.1 555.437 1208.29 555.96 1208.64 556.349C1208.98 556.729 1209.41 557.002 1209.91 557.166C1210.41 557.321 1210.9 557.399 1211.4 557.399C1212.05 557.399 1212.6 557.313 1213.04 557.14C1213.49 556.967 1213.83 556.729 1214.07 556.427C1214.3 556.125 1214.42 555.779 1214.42 555.39ZM1223.52 556.621L1227.12 545.084H1228.7L1228.39 547.379L1224.72 559.11H1223.18L1223.52 556.621ZM1221.09 545.084L1224.17 556.751L1224.39 559.11H1222.77L1218.7 545.084H1221.09ZM1232.15 556.66L1235.08 545.084H1237.47L1233.4 559.11H1231.79L1232.15 556.66ZM1229.05 545.084L1232.58 556.427L1232.98 559.11H1231.45L1227.68 547.353L1227.37 545.084H1229.05ZM1239.29 552.253V551.955C1239.29 550.944 1239.44 550.006 1239.74 549.142C1240.03 548.269 1240.45 547.513 1241.01 546.873C1241.56 546.225 1242.23 545.724 1243.01 545.369C1243.8 545.006 1244.68 544.825 1245.66 544.825C1246.64 544.825 1247.53 545.006 1248.32 545.369C1249.11 545.724 1249.79 546.225 1250.34 546.873C1250.9 547.513 1251.33 548.269 1251.62 549.142C1251.92 550.006 1252.06 550.944 1252.06 551.955V552.253C1252.06 553.264 1251.92 554.202 1251.62 555.066C1251.33 555.93 1250.9 556.686 1250.34 557.334C1249.79 557.974 1249.12 558.475 1248.33 558.838C1247.55 559.193 1246.67 559.37 1245.69 559.37C1244.7 559.37 1243.81 559.193 1243.03 558.838C1242.24 558.475 1241.57 557.974 1241.01 557.334C1240.45 556.686 1240.03 555.93 1239.74 555.066C1239.44 554.202 1239.29 553.264 1239.29 552.253ZM1241.69 551.955V552.253C1241.69 552.953 1241.77 553.614 1241.94 554.236C1242.1 554.85 1242.35 555.394 1242.68 555.87C1243.01 556.345 1243.43 556.721 1243.94 556.997C1244.44 557.265 1245.02 557.399 1245.69 557.399C1246.34 557.399 1246.92 557.265 1247.41 556.997C1247.91 556.721 1248.33 556.345 1248.65 555.87C1248.98 555.394 1249.23 554.85 1249.39 554.236C1249.57 553.614 1249.65 552.953 1249.65 552.253V551.955C1249.65 551.263 1249.57 550.611 1249.39 549.997C1249.23 549.375 1248.98 548.826 1248.64 548.351C1248.31 547.867 1247.9 547.487 1247.4 547.21C1246.9 546.934 1246.32 546.795 1245.66 546.795C1245 546.795 1244.42 546.934 1243.92 547.21C1243.43 547.487 1243.01 547.867 1242.68 548.351C1242.35 548.826 1242.1 549.375 1241.94 549.997C1241.77 550.611 1241.69 551.263 1241.69 551.955ZM1257.47 547.288V559.11H1255.07V545.084H1257.4L1257.47 547.288ZM1261.85 545.006L1261.84 547.236C1261.64 547.193 1261.45 547.167 1261.27 547.158C1261.09 547.141 1260.9 547.132 1260.67 547.132C1260.12 547.132 1259.63 547.219 1259.21 547.392C1258.78 547.564 1258.42 547.806 1258.13 548.118C1257.84 548.429 1257.6 548.8 1257.43 549.232C1257.27 549.656 1257.16 550.123 1257.11 550.632L1256.43 551.021C1256.43 550.174 1256.51 549.379 1256.68 548.636C1256.85 547.893 1257.11 547.236 1257.47 546.666C1257.82 546.087 1258.27 545.637 1258.82 545.317C1259.37 544.989 1260.03 544.825 1260.79 544.825C1260.96 544.825 1261.16 544.846 1261.38 544.89C1261.61 544.924 1261.76 544.963 1261.85 545.006ZM1272.65 556.388V539.199H1275.06V559.11H1272.86L1272.65 556.388ZM1263.21 552.253V551.981C1263.21 550.909 1263.34 549.937 1263.6 549.064C1263.87 548.182 1264.24 547.426 1264.73 546.795C1265.22 546.164 1265.8 545.68 1266.48 545.343C1267.16 544.998 1267.92 544.825 1268.76 544.825C1269.64 544.825 1270.41 544.98 1271.07 545.292C1271.73 545.594 1272.29 546.039 1272.75 546.627C1273.22 547.206 1273.59 547.906 1273.85 548.727C1274.12 549.548 1274.31 550.477 1274.41 551.514V552.707C1274.32 553.735 1274.13 554.66 1273.85 555.481C1273.59 556.302 1273.22 557.002 1272.75 557.581C1272.29 558.16 1271.73 558.605 1271.07 558.916C1270.4 559.218 1269.62 559.37 1268.73 559.37C1267.91 559.37 1267.16 559.193 1266.48 558.838C1265.8 558.484 1265.22 557.987 1264.73 557.347C1264.24 556.708 1263.87 555.956 1263.6 555.092C1263.34 554.219 1263.21 553.273 1263.21 552.253ZM1265.62 551.981V552.253C1265.62 552.953 1265.69 553.61 1265.83 554.223C1265.98 554.837 1266.2 555.377 1266.5 555.844C1266.81 556.31 1267.19 556.678 1267.66 556.946C1268.12 557.205 1268.68 557.334 1269.33 557.334C1270.13 557.334 1270.78 557.166 1271.29 556.829C1271.81 556.492 1272.22 556.047 1272.53 555.494C1272.84 554.941 1273.09 554.34 1273.26 553.692V550.568C1273.15 550.092 1273 549.634 1272.8 549.193C1272.61 548.744 1272.36 548.347 1272.05 548.001C1271.75 547.647 1271.37 547.366 1270.92 547.158C1270.48 546.951 1269.96 546.847 1269.36 546.847C1268.7 546.847 1268.13 546.985 1267.66 547.262C1267.19 547.53 1266.81 547.901 1266.5 548.377C1266.2 548.843 1265.98 549.388 1265.83 550.01C1265.69 550.624 1265.62 551.281 1265.62 551.981Z" fill="#C4C4C4"/>
<path d="M1040.76 484.9V487H1030.45V484.9H1040.76ZM1030.97 467.527V487H1028.39V467.527H1030.97ZM1039.4 475.9V477.999H1030.45V475.9H1039.4ZM1040.63 467.527V469.641H1030.45V467.527H1040.63ZM1046.06 475.619V487H1043.58V472.529H1045.92L1046.06 475.619ZM1045.47 479.216L1044.44 479.176C1044.45 478.187 1044.59 477.273 1044.88 476.435C1045.16 475.588 1045.57 474.852 1046.08 474.228C1046.6 473.604 1047.22 473.122 1047.93 472.783C1048.65 472.436 1049.45 472.262 1050.32 472.262C1051.04 472.262 1051.68 472.36 1052.25 472.556C1052.82 472.743 1053.3 473.046 1053.71 473.465C1054.12 473.885 1054.43 474.428 1054.64 475.097C1054.86 475.757 1054.96 476.564 1054.96 477.518V487H1052.48V477.491C1052.48 476.733 1052.36 476.127 1052.14 475.672C1051.92 475.209 1051.59 474.874 1051.17 474.669C1050.74 474.455 1050.21 474.348 1049.59 474.348C1048.97 474.348 1048.41 474.477 1047.9 474.736C1047.4 474.995 1046.97 475.351 1046.6 475.806C1046.25 476.261 1045.97 476.782 1045.76 477.371C1045.57 477.95 1045.47 478.565 1045.47 479.216ZM1064.78 472.529V474.428H1056.96V472.529H1064.78ZM1059.6 469.012H1062.08V483.416C1062.08 483.906 1062.15 484.276 1062.31 484.526C1062.46 484.775 1062.65 484.94 1062.89 485.021C1063.13 485.101 1063.39 485.141 1063.67 485.141C1063.87 485.141 1064.09 485.123 1064.31 485.088C1064.54 485.043 1064.72 485.007 1064.83 484.981L1064.85 487C1064.65 487.062 1064.39 487.12 1064.07 487.174C1063.76 487.236 1063.38 487.267 1062.93 487.267C1062.33 487.267 1061.77 487.147 1061.26 486.906C1060.75 486.666 1060.35 486.264 1060.05 485.703C1059.75 485.132 1059.6 484.365 1059.6 483.402V469.012ZM1073.69 487.267C1072.68 487.267 1071.77 487.098 1070.95 486.759C1070.13 486.412 1069.43 485.926 1068.85 485.301C1068.27 484.677 1067.82 483.937 1067.51 483.081C1067.2 482.225 1067.04 481.289 1067.04 480.273V479.711C1067.04 478.534 1067.21 477.487 1067.56 476.568C1067.91 475.641 1068.38 474.856 1068.98 474.214C1069.58 473.572 1070.25 473.087 1071.01 472.757C1071.77 472.427 1072.55 472.262 1073.37 472.262C1074.4 472.262 1075.29 472.44 1076.04 472.797C1076.8 473.153 1077.42 473.653 1077.9 474.295C1078.38 474.928 1078.74 475.677 1078.97 476.542C1079.2 477.397 1079.32 478.334 1079.32 479.35V480.46H1068.51V478.441H1076.84V478.253C1076.81 477.611 1076.67 476.987 1076.44 476.381C1076.22 475.775 1075.86 475.275 1075.37 474.883C1074.88 474.491 1074.21 474.295 1073.37 474.295C1072.8 474.295 1072.29 474.415 1071.81 474.656C1071.34 474.888 1070.94 475.235 1070.6 475.699C1070.26 476.163 1070 476.729 1069.81 477.397C1069.62 478.066 1069.53 478.837 1069.53 479.711V480.273C1069.53 480.959 1069.62 481.606 1069.81 482.212C1070 482.809 1070.29 483.336 1070.65 483.79C1071.03 484.245 1071.48 484.602 1072 484.86C1072.54 485.119 1073.14 485.248 1073.82 485.248C1074.69 485.248 1075.43 485.07 1076.04 484.713C1076.65 484.356 1077.18 483.879 1077.63 483.282L1079.13 484.472C1078.82 484.945 1078.42 485.395 1077.94 485.823C1077.46 486.251 1076.87 486.599 1076.16 486.866C1075.47 487.134 1074.64 487.267 1073.69 487.267ZM1084.68 474.803V487H1082.21V472.529H1084.61L1084.68 474.803ZM1089.2 472.449L1089.19 474.749C1088.98 474.705 1088.79 474.678 1088.6 474.669C1088.42 474.651 1088.22 474.642 1087.98 474.642C1087.41 474.642 1086.91 474.732 1086.47 474.91C1086.04 475.088 1085.67 475.338 1085.36 475.659C1085.06 475.98 1084.82 476.363 1084.64 476.809C1084.47 477.246 1084.36 477.727 1084.31 478.253L1083.61 478.655C1083.61 477.781 1083.7 476.961 1083.86 476.194C1084.04 475.427 1084.31 474.749 1084.68 474.161C1085.05 473.564 1085.51 473.1 1086.07 472.77C1086.64 472.431 1087.32 472.262 1088.1 472.262C1088.28 472.262 1088.49 472.284 1088.72 472.329C1088.95 472.364 1089.11 472.404 1089.2 472.449ZM1113.64 467.527V487H1111.04L1101.24 471.981V487H1098.66V467.527H1101.24L1111.08 482.587V467.527H1113.64ZM1123.84 487.267C1122.83 487.267 1121.92 487.098 1121.1 486.759C1120.29 486.412 1119.59 485.926 1119 485.301C1118.42 484.677 1117.97 483.937 1117.66 483.081C1117.35 482.225 1117.19 481.289 1117.19 480.273V479.711C1117.19 478.534 1117.37 477.487 1117.71 476.568C1118.06 475.641 1118.53 474.856 1119.13 474.214C1119.73 473.572 1120.41 473.087 1121.16 472.757C1121.92 472.427 1122.71 472.262 1123.52 472.262C1124.55 472.262 1125.44 472.44 1126.19 472.797C1126.95 473.153 1127.57 473.653 1128.05 474.295C1128.53 474.928 1128.89 475.677 1129.12 476.542C1129.35 477.397 1129.47 478.334 1129.47 479.35V480.46H1118.66V478.441H1127V478.253C1126.96 477.611 1126.83 476.987 1126.59 476.381C1126.37 475.775 1126.01 475.275 1125.52 474.883C1125.03 474.491 1124.37 474.295 1123.52 474.295C1122.96 474.295 1122.44 474.415 1121.97 474.656C1121.49 474.888 1121.09 475.235 1120.75 475.699C1120.41 476.163 1120.15 476.729 1119.96 477.397C1119.77 478.066 1119.68 478.837 1119.68 479.711V480.273C1119.68 480.959 1119.77 481.606 1119.96 482.212C1120.16 482.809 1120.44 483.336 1120.8 483.79C1121.18 484.245 1121.63 484.602 1122.15 484.86C1122.69 485.119 1123.3 485.248 1123.97 485.248C1124.85 485.248 1125.59 485.07 1126.19 484.713C1126.8 484.356 1127.33 483.879 1127.78 483.282L1129.28 484.472C1128.97 484.945 1128.57 485.395 1128.09 485.823C1127.61 486.251 1127.02 486.599 1126.31 486.866C1125.62 487.134 1124.79 487.267 1123.84 487.267ZM1136.02 484.432L1139.74 472.529H1141.37L1141.05 474.897L1137.27 487H1135.68L1136.02 484.432ZM1133.52 472.529L1136.69 484.566L1136.92 487H1135.25L1131.05 472.529H1133.52ZM1144.93 484.472L1147.95 472.529H1150.41L1146.21 487H1144.56L1144.93 484.472ZM1141.73 472.529L1145.37 484.232L1145.79 487H1144.21L1140.32 474.87L1140 472.529H1141.73ZM1167.31 479.363H1162.1V477.264H1167.31C1168.31 477.264 1169.13 477.103 1169.75 476.782C1170.38 476.461 1170.83 476.015 1171.12 475.445C1171.41 474.874 1171.56 474.223 1171.56 473.492C1171.56 472.824 1171.41 472.195 1171.12 471.606C1170.83 471.018 1170.38 470.545 1169.75 470.189C1169.13 469.823 1168.31 469.641 1167.31 469.641H1162.7V487H1160.12V467.527H1167.31C1168.78 467.527 1170.02 467.782 1171.04 468.29C1172.05 468.798 1172.82 469.502 1173.35 470.403C1173.88 471.294 1174.14 472.315 1174.14 473.465C1174.14 474.714 1173.88 475.779 1173.35 476.662C1172.82 477.545 1172.05 478.218 1171.04 478.681C1170.02 479.136 1168.78 479.363 1167.31 479.363ZM1185.4 484.526V477.076C1185.4 476.506 1185.28 476.011 1185.05 475.592C1184.83 475.164 1184.49 474.834 1184.04 474.602C1183.58 474.37 1183.02 474.255 1182.35 474.255C1181.73 474.255 1181.18 474.362 1180.71 474.576C1180.24 474.79 1179.88 475.07 1179.61 475.418C1179.35 475.766 1179.22 476.14 1179.22 476.542H1176.75C1176.75 476.024 1176.88 475.512 1177.15 475.004C1177.42 474.495 1177.8 474.036 1178.3 473.626C1178.81 473.207 1179.41 472.877 1180.12 472.636C1180.83 472.387 1181.62 472.262 1182.5 472.262C1183.55 472.262 1184.48 472.44 1185.28 472.797C1186.09 473.153 1186.72 473.693 1187.18 474.415C1187.64 475.128 1187.87 476.024 1187.87 477.103V483.844C1187.87 484.325 1187.91 484.838 1187.99 485.382C1188.08 485.926 1188.21 486.394 1188.38 486.786V487H1185.8C1185.68 486.715 1185.58 486.336 1185.51 485.863C1185.44 485.382 1185.4 484.936 1185.4 484.526ZM1185.83 478.227L1185.85 479.965H1183.35C1182.65 479.965 1182.02 480.023 1181.47 480.139C1180.92 480.246 1180.45 480.411 1180.08 480.634C1179.7 480.857 1179.42 481.138 1179.22 481.477C1179.03 481.806 1178.93 482.194 1178.93 482.64C1178.93 483.095 1179.03 483.509 1179.23 483.884C1179.44 484.258 1179.75 484.557 1180.16 484.78C1180.58 484.994 1181.09 485.101 1181.7 485.101C1182.45 485.101 1183.12 484.94 1183.7 484.619C1184.28 484.298 1184.74 483.906 1185.08 483.443C1185.43 482.979 1185.61 482.529 1185.64 482.092L1186.7 483.282C1186.63 483.656 1186.47 484.071 1186.19 484.526C1185.91 484.981 1185.54 485.417 1185.08 485.836C1184.62 486.247 1184.08 486.59 1183.45 486.866C1182.82 487.134 1182.12 487.267 1181.33 487.267C1180.35 487.267 1179.49 487.076 1178.75 486.692C1178.02 486.309 1177.45 485.796 1177.04 485.154C1176.64 484.504 1176.44 483.777 1176.44 482.974C1176.44 482.199 1176.59 481.517 1176.89 480.928C1177.2 480.331 1177.63 479.836 1178.2 479.444C1178.78 479.042 1179.46 478.739 1180.26 478.534C1181.07 478.329 1181.96 478.227 1182.95 478.227H1185.83ZM1200.19 483.162C1200.19 482.805 1200.11 482.475 1199.95 482.172C1199.8 481.86 1199.48 481.579 1199 481.329C1198.53 481.071 1197.82 480.848 1196.86 480.661C1196.06 480.491 1195.33 480.291 1194.68 480.059C1194.04 479.827 1193.49 479.546 1193.04 479.216C1192.59 478.886 1192.25 478.499 1192.01 478.053C1191.77 477.607 1191.65 477.085 1191.65 476.488C1191.65 475.917 1191.77 475.378 1192.02 474.87C1192.28 474.362 1192.64 473.911 1193.1 473.519C1193.58 473.127 1194.14 472.819 1194.8 472.596C1195.46 472.373 1196.2 472.262 1197.01 472.262C1198.17 472.262 1199.16 472.467 1199.98 472.877C1200.8 473.287 1201.43 473.836 1201.86 474.522C1202.3 475.2 1202.52 475.953 1202.52 476.782H1200.04C1200.04 476.381 1199.92 475.993 1199.68 475.619C1199.45 475.235 1199.11 474.919 1198.65 474.669C1198.21 474.42 1197.66 474.295 1197.01 474.295C1196.32 474.295 1195.76 474.402 1195.34 474.616C1194.92 474.821 1194.61 475.084 1194.41 475.405C1194.23 475.726 1194.13 476.065 1194.13 476.421C1194.13 476.689 1194.18 476.929 1194.27 477.143C1194.37 477.348 1194.53 477.54 1194.78 477.718C1195.02 477.888 1195.35 478.048 1195.79 478.2C1196.23 478.351 1196.79 478.503 1197.46 478.655C1198.65 478.922 1199.63 479.243 1200.39 479.618C1201.16 479.992 1201.73 480.451 1202.1 480.995C1202.48 481.539 1202.67 482.199 1202.67 482.974C1202.67 483.607 1202.53 484.187 1202.26 484.713C1202.01 485.239 1201.63 485.694 1201.13 486.077C1200.64 486.452 1200.05 486.746 1199.36 486.96C1198.68 487.165 1197.92 487.267 1197.08 487.267C1195.8 487.267 1194.72 487.04 1193.84 486.585C1192.96 486.131 1192.29 485.542 1191.83 484.82C1191.38 484.098 1191.15 483.336 1191.15 482.533H1193.64C1193.67 483.211 1193.87 483.75 1194.23 484.151C1194.58 484.544 1195.02 484.824 1195.54 484.994C1196.05 485.154 1196.57 485.235 1197.08 485.235C1197.75 485.235 1198.32 485.145 1198.77 484.967C1199.24 484.789 1199.59 484.544 1199.83 484.232C1200.07 483.92 1200.19 483.563 1200.19 483.162ZM1214.34 483.162C1214.34 482.805 1214.26 482.475 1214.1 482.172C1213.95 481.86 1213.63 481.579 1213.15 481.329C1212.68 481.071 1211.97 480.848 1211.01 480.661C1210.21 480.491 1209.48 480.291 1208.83 480.059C1208.19 479.827 1207.64 479.546 1207.19 479.216C1206.74 478.886 1206.4 478.499 1206.16 478.053C1205.92 477.607 1205.8 477.085 1205.8 476.488C1205.8 475.917 1205.92 475.378 1206.17 474.87C1206.43 474.362 1206.79 473.911 1207.25 473.519C1207.73 473.127 1208.29 472.819 1208.95 472.596C1209.61 472.373 1210.35 472.262 1211.16 472.262C1212.32 472.262 1213.31 472.467 1214.13 472.877C1214.95 473.287 1215.58 473.836 1216.01 474.522C1216.45 475.2 1216.67 475.953 1216.67 476.782H1214.19C1214.19 476.381 1214.07 475.993 1213.83 475.619C1213.6 475.235 1213.26 474.919 1212.8 474.669C1212.36 474.42 1211.81 474.295 1211.16 474.295C1210.47 474.295 1209.91 474.402 1209.49 474.616C1209.07 474.821 1208.76 475.084 1208.56 475.405C1208.38 475.726 1208.28 476.065 1208.28 476.421C1208.28 476.689 1208.33 476.929 1208.42 477.143C1208.51 477.348 1208.68 477.54 1208.93 477.718C1209.17 477.888 1209.5 478.048 1209.94 478.2C1210.38 478.351 1210.94 478.503 1211.61 478.655C1212.8 478.922 1213.78 479.243 1214.54 479.618C1215.31 479.992 1215.88 480.451 1216.25 480.995C1216.63 481.539 1216.82 482.199 1216.82 482.974C1216.82 483.607 1216.68 484.187 1216.41 484.713C1216.16 485.239 1215.78 485.694 1215.28 486.077C1214.79 486.452 1214.2 486.746 1213.51 486.96C1212.83 487.165 1212.07 487.267 1211.23 487.267C1209.95 487.267 1208.87 487.04 1207.99 486.585C1207.11 486.131 1206.44 485.542 1205.98 484.82C1205.53 484.098 1205.3 483.336 1205.3 482.533H1207.79C1207.82 483.211 1208.02 483.75 1208.38 484.151C1208.73 484.544 1209.17 484.824 1209.69 484.994C1210.2 485.154 1210.72 485.235 1211.23 485.235C1211.9 485.235 1212.47 485.145 1212.92 484.967C1213.39 484.789 1213.74 484.544 1213.98 484.232C1214.22 483.92 1214.34 483.563 1214.34 483.162ZM1223.73 484.432L1227.45 472.529H1229.08L1228.76 474.897L1224.97 487H1223.38L1223.73 484.432ZM1221.23 472.529L1224.4 484.566L1224.63 487H1222.95L1218.75 472.529H1221.23ZM1232.64 484.472L1235.66 472.529H1238.12L1233.92 487H1232.26L1232.64 484.472ZM1229.44 472.529L1233.08 484.232L1233.49 487H1231.91L1228.02 474.87L1227.7 472.529H1229.44ZM1240.01 479.925V479.618C1240.01 478.574 1240.16 477.607 1240.46 476.715C1240.76 475.815 1241.2 475.035 1241.77 474.375C1242.34 473.706 1243.03 473.189 1243.84 472.824C1244.66 472.449 1245.57 472.262 1246.57 472.262C1247.59 472.262 1248.5 472.449 1249.31 472.824C1250.13 473.189 1250.83 473.706 1251.4 474.375C1251.98 475.035 1252.42 475.815 1252.72 476.715C1253.03 477.607 1253.18 478.574 1253.18 479.618V479.925C1253.18 480.968 1253.03 481.936 1252.72 482.827C1252.42 483.719 1251.98 484.499 1251.4 485.168C1250.83 485.828 1250.14 486.345 1249.33 486.719C1248.53 487.085 1247.62 487.267 1246.6 487.267C1245.58 487.267 1244.67 487.085 1243.86 486.719C1243.05 486.345 1242.35 485.828 1241.77 485.168C1241.2 484.499 1240.76 483.719 1240.46 482.827C1240.16 481.936 1240.01 480.968 1240.01 479.925ZM1242.48 479.618V479.925C1242.48 480.647 1242.57 481.329 1242.73 481.971C1242.9 482.604 1243.16 483.166 1243.5 483.656C1243.84 484.147 1244.28 484.535 1244.79 484.82C1245.31 485.096 1245.91 485.235 1246.6 485.235C1247.28 485.235 1247.87 485.096 1248.38 484.82C1248.9 484.535 1249.32 484.147 1249.66 483.656C1250 483.166 1250.26 482.604 1250.42 481.971C1250.6 481.329 1250.69 480.647 1250.69 479.925V479.618C1250.69 478.904 1250.6 478.231 1250.42 477.598C1250.26 476.956 1250 476.39 1249.65 475.9C1249.31 475.4 1248.88 475.008 1248.36 474.723C1247.86 474.437 1247.26 474.295 1246.57 474.295C1245.9 474.295 1245.3 474.437 1244.78 474.723C1244.27 475.008 1243.84 475.4 1243.5 475.9C1243.16 476.39 1242.9 476.956 1242.73 477.598C1242.57 478.231 1242.48 478.904 1242.48 479.618ZM1258.76 474.803V487H1256.28V472.529H1258.69L1258.76 474.803ZM1263.28 472.449L1263.26 474.749C1263.06 474.705 1262.86 474.678 1262.68 474.669C1262.5 474.651 1262.29 474.642 1262.06 474.642C1261.49 474.642 1260.99 474.732 1260.55 474.91C1260.11 475.088 1259.74 475.338 1259.44 475.659C1259.14 475.98 1258.89 476.363 1258.72 476.809C1258.55 477.246 1258.44 477.727 1258.38 478.253L1257.69 478.655C1257.69 477.781 1257.77 476.961 1257.94 476.194C1258.12 475.427 1258.39 474.749 1258.76 474.161C1259.12 473.564 1259.59 473.1 1260.15 472.77C1260.72 472.431 1261.4 472.262 1262.18 472.262C1262.36 472.262 1262.56 472.284 1262.8 472.329C1263.03 472.364 1263.19 472.404 1263.28 472.449ZM1274.42 484.191V466.458H1276.91V487H1274.63L1274.42 484.191ZM1264.68 479.925V479.644C1264.68 478.539 1264.82 477.536 1265.08 476.635C1265.36 475.726 1265.75 474.946 1266.25 474.295C1266.75 473.644 1267.36 473.145 1268.05 472.797C1268.76 472.44 1269.54 472.262 1270.41 472.262C1271.31 472.262 1272.11 472.422 1272.79 472.743C1273.47 473.055 1274.05 473.515 1274.52 474.121C1275.01 474.718 1275.38 475.44 1275.66 476.287C1275.94 477.134 1276.13 478.093 1276.24 479.163V480.393C1276.14 481.454 1275.95 482.408 1275.66 483.255C1275.38 484.102 1275.01 484.824 1274.52 485.422C1274.05 486.019 1273.47 486.478 1272.79 486.799C1272.1 487.111 1271.3 487.267 1270.38 487.267C1269.53 487.267 1268.76 487.085 1268.05 486.719C1267.36 486.354 1266.75 485.841 1266.25 485.181C1265.75 484.521 1265.36 483.746 1265.08 482.854C1264.82 481.954 1264.68 480.977 1264.68 479.925ZM1267.17 479.644V479.925C1267.17 480.647 1267.24 481.325 1267.38 481.958C1267.53 482.591 1267.77 483.148 1268.08 483.63C1268.39 484.111 1268.79 484.49 1269.27 484.767C1269.75 485.034 1270.33 485.168 1270.99 485.168C1271.81 485.168 1272.49 484.994 1273.01 484.646C1273.55 484.298 1273.98 483.839 1274.3 483.269C1274.62 482.698 1274.87 482.078 1275.05 481.41V478.187C1274.94 477.696 1274.78 477.224 1274.58 476.769C1274.38 476.305 1274.12 475.895 1273.8 475.538C1273.49 475.173 1273.1 474.883 1272.64 474.669C1272.18 474.455 1271.64 474.348 1271.02 474.348C1270.34 474.348 1269.76 474.491 1269.27 474.776C1268.79 475.053 1268.39 475.436 1268.08 475.926C1267.77 476.408 1267.53 476.969 1267.38 477.611C1267.24 478.244 1267.17 478.922 1267.17 479.644Z" fill="black"/>
<line x1="1191.38" y1="391.144" x2="1382.79" y2="391.144" stroke="#55229E" stroke-width="2.83997"/>
<path d="M1185.73 389.651C1185.73 395.623 1191.05 400.574 1197.76 400.574C1204.47 400.574 1209.79 395.623 1209.79 389.651C1209.79 383.679 1204.47 378.728 1197.76 378.728C1191.05 378.728 1185.73 383.679 1185.73 389.651Z" fill="white" stroke="#55229E" stroke-width="1.45639"/>
<path d="M1246.34 389.651C1246.34 395.623 1251.66 400.574 1258.37 400.574C1265.08 400.574 1270.41 395.623 1270.41 389.651C1270.41 383.679 1265.08 378.728 1258.37 378.728C1251.66 378.728 1246.34 383.679 1246.34 389.651Z" fill="white" stroke="#55229E" stroke-width="1.45639"/>
<path d="M1303.77 389.651C1303.77 395.623 1309.09 400.574 1315.8 400.574C1322.51 400.574 1327.83 395.623 1327.83 389.651C1327.83 383.679 1322.51 378.728 1315.8 378.728C1309.09 378.728 1303.77 383.679 1303.77 389.651Z" fill="#55229E" stroke="#55229E" stroke-width="1.45639"/>
<path d="M1361.19 389.651C1361.19 395.623 1366.51 400.574 1373.22 400.574C1379.93 400.574 1385.25 395.623 1385.25 389.651C1385.25 383.679 1379.93 378.728 1373.22 378.728C1366.51 378.728 1361.19 383.679 1361.19 389.651Z" fill="white" stroke="#55229E" stroke-width="1.45639"/>
<rect x="889" y="1" width="844" height="1117" fill="#252029" fill-opacity="0.4"/>
<rect x="1017" y="475" width="530" height="262.492" rx="16.7192" fill="white"/>
<path d="M1186.34 600.478C1186.34 600.037 1186.27 599.645 1186.14 599.302C1186.01 598.959 1185.78 598.646 1185.45 598.362C1185.11 598.077 1184.64 597.803 1184.03 597.539C1183.44 597.264 1182.67 596.985 1181.74 596.701C1180.72 596.388 1179.78 596.04 1178.92 595.658C1178.07 595.266 1177.32 594.815 1176.69 594.306C1176.05 593.787 1175.56 593.194 1175.2 592.528C1174.85 591.852 1174.67 591.073 1174.67 590.191C1174.67 589.319 1174.86 588.526 1175.22 587.811C1175.59 587.096 1176.11 586.479 1176.79 585.959C1177.48 585.43 1178.28 585.024 1179.21 584.74C1180.15 584.446 1181.17 584.299 1182.3 584.299C1183.89 584.299 1185.25 584.593 1186.4 585.18C1187.56 585.768 1188.44 586.557 1189.06 587.546C1189.69 588.536 1190 589.628 1190 590.823H1186.34C1186.34 590.118 1186.19 589.496 1185.89 588.957C1185.59 588.408 1185.14 587.977 1184.53 587.664C1183.94 587.35 1183.18 587.194 1182.26 587.194C1181.38 587.194 1180.66 587.326 1180.08 587.59C1179.5 587.855 1179.07 588.212 1178.79 588.663C1178.5 589.114 1178.36 589.623 1178.36 590.191C1178.36 590.593 1178.46 590.96 1178.64 591.293C1178.83 591.617 1179.11 591.92 1179.49 592.205C1179.88 592.479 1180.36 592.738 1180.93 592.983C1181.51 593.228 1182.19 593.463 1182.98 593.689C1184.16 594.041 1185.2 594.433 1186.08 594.864C1186.96 595.285 1187.69 595.766 1188.28 596.304C1188.87 596.843 1189.31 597.455 1189.6 598.141C1189.9 598.817 1190.04 599.586 1190.04 600.448C1190.04 601.349 1189.86 602.163 1189.5 602.888C1189.14 603.603 1188.62 604.215 1187.94 604.724C1187.28 605.224 1186.47 605.611 1185.53 605.885C1184.6 606.15 1183.56 606.282 1182.42 606.282C1181.39 606.282 1180.38 606.145 1179.38 605.871C1178.39 605.596 1177.49 605.18 1176.67 604.621C1175.86 604.053 1175.21 603.348 1174.73 602.505C1174.25 601.653 1174.01 600.659 1174.01 599.522H1177.7C1177.7 600.218 1177.82 600.811 1178.05 601.301C1178.3 601.79 1178.64 602.192 1179.07 602.505C1179.5 602.809 1180 603.034 1180.57 603.181C1181.14 603.328 1181.76 603.402 1182.42 603.402C1183.28 603.402 1184 603.279 1184.58 603.034C1185.17 602.79 1185.61 602.447 1185.9 602.006C1186.19 601.565 1186.34 601.056 1186.34 600.478ZM1202.52 602.241V590.088H1206.08V605.988H1202.73L1202.52 602.241ZM1203.02 598.935L1204.21 598.905C1204.21 599.973 1204.09 600.958 1203.86 601.859C1203.62 602.75 1203.26 603.529 1202.77 604.195C1202.28 604.852 1201.65 605.366 1200.89 605.738C1200.12 606.101 1199.21 606.282 1198.14 606.282C1197.37 606.282 1196.66 606.169 1196.01 605.944C1195.36 605.719 1194.81 605.371 1194.34 604.901C1193.87 604.43 1193.52 603.818 1193.26 603.064C1193.01 602.31 1192.88 601.408 1192.88 600.36V590.088H1196.42V600.389C1196.42 600.967 1196.49 601.452 1196.63 601.844C1196.76 602.226 1196.95 602.535 1197.19 602.77C1197.42 603.005 1197.7 603.172 1198.01 603.27C1198.32 603.368 1198.66 603.417 1199.01 603.417C1200.02 603.417 1200.81 603.221 1201.39 602.829C1201.98 602.427 1202.39 601.888 1202.64 601.212C1202.89 600.536 1203.02 599.777 1203.02 598.935ZM1216.2 603.461C1216.78 603.461 1217.3 603.348 1217.76 603.123C1218.23 602.888 1218.61 602.564 1218.89 602.153C1219.18 601.741 1219.35 601.266 1219.37 600.727H1222.71C1222.69 601.756 1222.39 602.692 1221.8 603.534C1221.21 604.377 1220.43 605.048 1219.46 605.547C1218.49 606.037 1217.42 606.282 1216.24 606.282C1215.03 606.282 1213.97 606.076 1213.07 605.665C1212.17 605.244 1211.42 604.666 1210.82 603.931C1210.23 603.196 1209.77 602.349 1209.47 601.389C1209.18 600.429 1209.03 599.4 1209.03 598.303V597.788C1209.03 596.691 1209.18 595.663 1209.47 594.703C1209.77 593.733 1210.23 592.88 1210.82 592.146C1211.42 591.411 1212.17 590.838 1213.07 590.426C1213.97 590.005 1215.03 589.795 1216.23 589.795C1217.5 589.795 1218.62 590.049 1219.58 590.559C1220.54 591.058 1221.3 591.759 1221.84 592.66C1222.4 593.552 1222.69 594.59 1222.71 595.775H1219.37C1219.35 595.188 1219.2 594.659 1218.93 594.188C1218.68 593.708 1218.32 593.326 1217.85 593.042C1217.39 592.758 1216.83 592.616 1216.19 592.616C1215.47 592.616 1214.88 592.763 1214.41 593.057C1213.94 593.341 1213.57 593.733 1213.31 594.232C1213.04 594.722 1212.85 595.276 1212.73 595.893C1212.63 596.5 1212.57 597.132 1212.57 597.788V598.303C1212.57 598.959 1212.63 599.596 1212.73 600.213C1212.84 600.83 1213.03 601.384 1213.29 601.874C1213.57 602.354 1213.94 602.741 1214.41 603.034C1214.88 603.319 1215.48 603.461 1216.2 603.461ZM1231.92 603.461C1232.5 603.461 1233.02 603.348 1233.48 603.123C1233.95 602.888 1234.33 602.564 1234.61 602.153C1234.91 601.741 1235.07 601.266 1235.1 600.727H1238.43C1238.41 601.756 1238.11 602.692 1237.52 603.534C1236.94 604.377 1236.16 605.048 1235.19 605.547C1234.22 606.037 1233.14 606.282 1231.97 606.282C1230.75 606.282 1229.7 606.076 1228.79 605.665C1227.89 605.244 1227.14 604.666 1226.55 603.931C1225.95 603.196 1225.5 602.349 1225.19 601.389C1224.9 600.429 1224.75 599.4 1224.75 598.303V597.788C1224.75 596.691 1224.9 595.663 1225.19 594.703C1225.5 593.733 1225.95 592.88 1226.55 592.146C1227.14 591.411 1227.89 590.838 1228.79 590.426C1229.7 590.005 1230.75 589.795 1231.95 589.795C1233.23 589.795 1234.34 590.049 1235.3 590.559C1236.26 591.058 1237.02 591.759 1237.57 592.66C1238.13 593.552 1238.41 594.59 1238.43 595.775H1235.1C1235.07 595.188 1234.92 594.659 1234.66 594.188C1234.4 593.708 1234.04 593.326 1233.57 593.042C1233.11 592.758 1232.56 592.616 1231.91 592.616C1231.19 592.616 1230.6 592.763 1230.13 593.057C1229.66 593.341 1229.29 593.733 1229.03 594.232C1228.76 594.722 1228.57 595.276 1228.46 595.893C1228.35 596.5 1228.29 597.132 1228.29 597.788V598.303C1228.29 598.959 1228.35 599.596 1228.46 600.213C1228.56 600.83 1228.75 601.384 1229.01 601.874C1229.29 602.354 1229.66 602.741 1230.13 603.034C1230.6 603.319 1231.2 603.461 1231.92 603.461ZM1248.16 606.282C1246.99 606.282 1245.92 606.091 1244.97 605.709C1244.03 605.317 1243.23 604.773 1242.56 604.078C1241.91 603.382 1241.4 602.564 1241.05 601.624C1240.7 600.683 1240.52 599.669 1240.52 598.582V597.994C1240.52 596.75 1240.7 595.623 1241.06 594.614C1241.43 593.605 1241.93 592.743 1242.58 592.028C1243.22 591.303 1243.99 590.75 1244.87 590.368C1245.75 589.986 1246.71 589.795 1247.74 589.795C1248.87 589.795 1249.87 589.986 1250.72 590.368C1251.57 590.75 1252.28 591.289 1252.83 591.984C1253.4 592.67 1253.82 593.488 1254.1 594.438C1254.38 595.388 1254.52 596.437 1254.52 597.583V599.096H1242.24V596.554H1251.03V596.275C1251.01 595.638 1250.88 595.041 1250.65 594.482C1250.42 593.924 1250.07 593.473 1249.6 593.13C1249.13 592.787 1248.5 592.616 1247.72 592.616C1247.13 592.616 1246.61 592.743 1246.15 592.998C1245.7 593.243 1245.32 593.601 1245.02 594.071C1244.71 594.541 1244.48 595.109 1244.31 595.775C1244.16 596.432 1244.08 597.171 1244.08 597.994V598.582C1244.08 599.278 1244.17 599.924 1244.36 600.522C1244.55 601.109 1244.84 601.624 1245.21 602.065C1245.58 602.505 1246.03 602.853 1246.56 603.108C1247.09 603.353 1247.69 603.475 1248.37 603.475C1249.22 603.475 1249.98 603.304 1250.65 602.961C1251.31 602.618 1251.89 602.133 1252.38 601.506L1254.25 603.314C1253.9 603.813 1253.46 604.293 1252.91 604.754C1252.36 605.204 1251.69 605.572 1250.89 605.856C1250.11 606.14 1249.2 606.282 1248.16 606.282ZM1266.21 601.683C1266.21 601.33 1266.12 601.012 1265.94 600.727C1265.77 600.434 1265.43 600.169 1264.93 599.934C1264.44 599.699 1263.71 599.483 1262.75 599.287C1261.91 599.101 1261.14 598.881 1260.43 598.626C1259.74 598.362 1259.14 598.043 1258.64 597.671C1258.14 597.299 1257.75 596.858 1257.48 596.348C1257.2 595.839 1257.07 595.251 1257.07 594.585C1257.07 593.938 1257.21 593.326 1257.49 592.748C1257.78 592.17 1258.18 591.661 1258.71 591.22C1259.24 590.779 1259.88 590.431 1260.64 590.177C1261.4 589.922 1262.25 589.795 1263.19 589.795C1264.53 589.795 1265.67 590.02 1266.62 590.471C1267.58 590.911 1268.31 591.514 1268.82 592.278C1269.33 593.032 1269.59 593.885 1269.59 594.835H1266.05C1266.05 594.414 1265.94 594.022 1265.72 593.659C1265.52 593.287 1265.2 592.988 1264.78 592.763C1264.36 592.528 1263.83 592.41 1263.19 592.41C1262.59 592.41 1262.08 592.508 1261.68 592.704C1261.29 592.89 1261 593.135 1260.8 593.439C1260.61 593.743 1260.52 594.076 1260.52 594.438C1260.52 594.703 1260.57 594.943 1260.67 595.158C1260.77 595.364 1260.95 595.555 1261.2 595.731C1261.44 595.898 1261.77 596.055 1262.2 596.201C1262.63 596.348 1263.16 596.49 1263.81 596.628C1265.03 596.882 1266.07 597.21 1266.94 597.612C1267.82 598.004 1268.5 598.513 1268.97 599.14C1269.44 599.758 1269.67 600.541 1269.67 601.492C1269.67 602.197 1269.52 602.843 1269.22 603.431C1268.93 604.009 1268.49 604.514 1267.93 604.945C1267.36 605.366 1266.68 605.694 1265.88 605.929C1265.1 606.164 1264.22 606.282 1263.24 606.282C1261.8 606.282 1260.58 606.027 1259.58 605.518C1258.58 604.999 1257.82 604.337 1257.3 603.534C1256.79 602.721 1256.54 601.878 1256.54 601.007H1259.96C1260 601.663 1260.18 602.187 1260.51 602.579C1260.84 602.961 1261.25 603.24 1261.74 603.417C1262.24 603.583 1262.75 603.666 1263.28 603.666C1263.92 603.666 1264.45 603.583 1264.88 603.417C1265.32 603.24 1265.64 603.005 1265.87 602.711C1266.09 602.408 1266.21 602.065 1266.21 601.683ZM1281.69 601.683C1281.69 601.33 1281.61 601.012 1281.43 600.727C1281.25 600.434 1280.92 600.169 1280.42 599.934C1279.93 599.699 1279.2 599.483 1278.24 599.287C1277.4 599.101 1276.63 598.881 1275.92 598.626C1275.22 598.362 1274.63 598.043 1274.13 597.671C1273.63 597.299 1273.24 596.858 1272.97 596.348C1272.69 595.839 1272.55 595.251 1272.55 594.585C1272.55 593.938 1272.7 593.326 1272.98 592.748C1273.27 592.17 1273.67 591.661 1274.2 591.22C1274.73 590.779 1275.37 590.431 1276.13 590.177C1276.89 589.922 1277.74 589.795 1278.68 589.795C1280.01 589.795 1281.16 590.02 1282.11 590.471C1283.07 590.911 1283.8 591.514 1284.31 592.278C1284.82 593.032 1285.07 593.885 1285.07 594.835H1281.53C1281.53 594.414 1281.43 594.022 1281.21 593.659C1281 593.287 1280.69 592.988 1280.27 592.763C1279.85 592.528 1279.32 592.41 1278.68 592.41C1278.08 592.41 1277.57 592.508 1277.17 592.704C1276.78 592.89 1276.48 593.135 1276.29 593.439C1276.1 593.743 1276.01 594.076 1276.01 594.438C1276.01 594.703 1276.06 594.943 1276.16 595.158C1276.26 595.364 1276.44 595.555 1276.68 595.731C1276.93 595.898 1277.26 596.055 1277.68 596.201C1278.11 596.348 1278.65 596.49 1279.3 596.628C1280.51 596.882 1281.56 597.21 1282.43 597.612C1283.31 598.004 1283.99 598.513 1284.46 599.14C1284.93 599.758 1285.16 600.541 1285.16 601.492C1285.16 602.197 1285.01 602.843 1284.71 603.431C1284.41 604.009 1283.98 604.514 1283.41 604.945C1282.85 605.366 1282.17 605.694 1281.37 605.929C1280.59 606.164 1279.71 606.282 1278.73 606.282C1277.29 606.282 1276.07 606.027 1275.07 605.518C1274.07 604.999 1273.31 604.337 1272.79 603.534C1272.28 602.721 1272.03 601.878 1272.03 601.007H1275.45C1275.49 601.663 1275.67 602.187 1275.99 602.579C1276.33 602.961 1276.74 603.24 1277.23 603.417C1277.73 603.583 1278.24 603.666 1278.77 603.666C1279.41 603.666 1279.94 603.583 1280.37 603.417C1280.8 603.24 1281.13 603.005 1281.36 602.711C1281.58 602.408 1281.69 602.065 1281.69 601.683Z" fill="black"/>
<path d="M1347.76 702.984V708.641C1347.57 708.924 1347.26 709.242 1346.85 709.596C1346.43 709.942 1345.85 710.247 1345.12 710.508C1344.39 710.763 1343.45 710.891 1342.29 710.891C1341.35 710.891 1340.48 710.728 1339.69 710.402C1338.91 710.07 1338.22 709.589 1337.64 708.959C1337.07 708.322 1336.62 707.551 1336.31 706.645C1336 705.733 1335.84 704.7 1335.84 703.546V702.347C1335.84 701.194 1335.97 700.165 1336.24 699.259C1336.52 698.353 1336.92 697.586 1337.45 696.956C1337.98 696.319 1338.63 695.838 1339.41 695.513C1340.18 695.18 1341.06 695.014 1342.06 695.014C1343.24 695.014 1344.23 695.219 1345.02 695.629C1345.82 696.033 1346.44 696.592 1346.89 697.306C1347.34 698.021 1347.63 698.834 1347.76 699.747H1345.71C1345.62 699.188 1345.43 698.679 1345.16 698.219C1344.89 697.759 1344.5 697.391 1344 697.115C1343.5 696.832 1342.85 696.691 1342.06 696.691C1341.34 696.691 1340.73 696.822 1340.2 697.083C1339.68 697.345 1339.25 697.72 1338.91 698.208C1338.57 698.696 1338.31 699.287 1338.14 699.981C1337.98 700.674 1337.9 701.456 1337.9 702.326V703.546C1337.9 704.438 1338 705.234 1338.21 705.934C1338.42 706.635 1338.72 707.233 1339.11 707.728C1339.5 708.216 1339.96 708.588 1340.5 708.842C1341.04 709.097 1341.64 709.224 1342.3 709.224C1343.03 709.224 1343.62 709.164 1344.08 709.044C1344.53 708.917 1344.88 708.768 1345.14 708.598C1345.39 708.421 1345.59 708.255 1345.72 708.099V704.64H1342.14V702.984H1347.76ZM1350.34 705.064V704.82C1350.34 703.992 1350.46 703.225 1350.7 702.517C1350.94 701.802 1351.28 701.183 1351.74 700.66C1352.19 700.129 1352.74 699.719 1353.38 699.429C1354.03 699.132 1354.75 698.983 1355.55 698.983C1356.35 698.983 1357.08 699.132 1357.72 699.429C1358.37 699.719 1358.93 700.129 1359.38 700.66C1359.84 701.183 1360.19 701.802 1360.43 702.517C1360.67 703.225 1360.79 703.992 1360.79 704.82V705.064C1360.79 705.892 1360.67 706.66 1360.43 707.367C1360.19 708.075 1359.84 708.694 1359.38 709.224C1358.93 709.748 1358.38 710.158 1357.73 710.455C1357.1 710.745 1356.38 710.891 1355.57 710.891C1354.76 710.891 1354.04 710.745 1353.39 710.455C1352.75 710.158 1352.2 709.748 1351.74 709.224C1351.28 708.694 1350.94 708.075 1350.7 707.367C1350.46 706.66 1350.34 705.892 1350.34 705.064ZM1352.3 704.82V705.064C1352.3 705.637 1352.37 706.178 1352.5 706.688C1352.64 707.19 1352.84 707.636 1353.11 708.025C1353.38 708.414 1353.73 708.722 1354.14 708.948C1354.55 709.168 1355.02 709.277 1355.57 709.277C1356.11 709.277 1356.58 709.168 1356.98 708.948C1357.39 708.722 1357.73 708.414 1358 708.025C1358.27 707.636 1358.47 707.19 1358.6 706.688C1358.75 706.178 1358.82 705.637 1358.82 705.064V704.82C1358.82 704.254 1358.75 703.72 1358.6 703.217C1358.47 702.708 1358.26 702.259 1357.99 701.87C1357.72 701.473 1357.38 701.162 1356.97 700.936C1356.57 700.709 1356.09 700.596 1355.55 700.596C1355.01 700.596 1354.54 700.709 1354.13 700.936C1353.72 701.162 1353.38 701.473 1353.11 701.87C1352.84 702.259 1352.64 702.708 1352.5 703.217C1352.37 703.72 1352.3 704.254 1352.3 704.82ZM1373.45 699.195V700.702H1367.24V699.195H1373.45ZM1369.34 696.404H1371.31V707.834C1371.31 708.223 1371.37 708.517 1371.49 708.715C1371.61 708.913 1371.76 709.044 1371.95 709.108C1372.15 709.171 1372.35 709.203 1372.57 709.203C1372.73 709.203 1372.9 709.189 1373.08 709.161C1373.26 709.125 1373.4 709.097 1373.49 709.076L1373.5 710.678C1373.35 710.728 1373.14 710.774 1372.89 710.816C1372.64 710.866 1372.34 710.891 1371.99 710.891C1371.51 710.891 1371.06 710.795 1370.66 710.604C1370.26 710.413 1369.93 710.095 1369.69 709.649C1369.46 709.196 1369.34 708.588 1369.34 707.823V696.404ZM1375.02 705.064V704.82C1375.02 703.992 1375.14 703.225 1375.38 702.517C1375.62 701.802 1375.97 701.183 1376.42 700.66C1376.88 700.129 1377.42 699.719 1378.07 699.429C1378.71 699.132 1379.43 698.983 1380.23 698.983C1381.04 698.983 1381.76 699.132 1382.41 699.429C1383.06 699.719 1383.61 700.129 1384.06 700.66C1384.52 701.183 1384.87 701.802 1385.11 702.517C1385.36 703.225 1385.48 703.992 1385.48 704.82V705.064C1385.48 705.892 1385.36 706.66 1385.11 707.367C1384.87 708.075 1384.52 708.694 1384.06 709.224C1383.61 709.748 1383.06 710.158 1382.42 710.455C1381.78 710.745 1381.06 710.891 1380.25 710.891C1379.45 710.891 1378.72 710.745 1378.08 710.455C1377.43 710.158 1376.88 709.748 1376.42 709.224C1375.97 708.694 1375.62 708.075 1375.38 707.367C1375.14 706.66 1375.02 705.892 1375.02 705.064ZM1376.99 704.82V705.064C1376.99 705.637 1377.05 706.178 1377.19 706.688C1377.32 707.19 1377.52 707.636 1377.79 708.025C1378.07 708.414 1378.41 708.722 1378.82 708.948C1379.23 709.168 1379.71 709.277 1380.25 709.277C1380.79 709.277 1381.26 709.168 1381.67 708.948C1382.08 708.722 1382.42 708.414 1382.68 708.025C1382.95 707.636 1383.15 707.19 1383.29 706.688C1383.43 706.178 1383.5 705.637 1383.5 705.064V704.82C1383.5 704.254 1383.43 703.72 1383.29 703.217C1383.15 702.708 1382.95 702.259 1382.67 701.87C1382.41 701.473 1382.07 701.162 1381.66 700.936C1381.25 700.709 1380.78 700.596 1380.23 700.596C1379.7 700.596 1379.22 700.709 1378.81 700.936C1378.41 701.162 1378.07 701.473 1377.79 701.87C1377.52 702.259 1377.32 702.708 1377.19 703.217C1377.05 703.72 1376.99 704.254 1376.99 704.82ZM1397.81 710.678H1394.58L1394.6 709.012H1397.81C1398.91 709.012 1399.83 708.782 1400.57 708.322C1401.3 707.855 1401.85 707.204 1402.22 706.369C1402.6 705.528 1402.79 704.544 1402.79 703.419V702.475C1402.79 701.59 1402.68 700.805 1402.47 700.119C1402.25 699.425 1401.94 698.841 1401.53 698.367C1401.12 697.886 1400.62 697.522 1400.03 697.274C1399.44 697.027 1398.76 696.903 1398 696.903H1394.52V695.226H1398C1399.01 695.226 1399.93 695.396 1400.77 695.735C1401.6 696.068 1402.32 696.553 1402.92 697.189C1403.53 697.819 1404 698.583 1404.32 699.482C1404.65 700.373 1404.81 701.378 1404.81 702.496V703.419C1404.81 704.537 1404.65 705.545 1404.32 706.444C1404 707.335 1403.53 708.096 1402.91 708.726C1402.3 709.355 1401.57 709.84 1400.71 710.179C1399.85 710.512 1398.88 710.678 1397.81 710.678ZM1395.67 695.226V710.678H1393.63V695.226H1395.67ZM1414.36 708.715V702.804C1414.36 702.351 1414.27 701.958 1414.09 701.626C1413.91 701.286 1413.64 701.024 1413.28 700.84C1412.92 700.656 1412.47 700.564 1411.94 700.564C1411.45 700.564 1411.01 700.649 1410.64 700.819C1410.27 700.989 1409.98 701.212 1409.77 701.488C1409.56 701.764 1409.46 702.061 1409.46 702.379H1407.5C1407.5 701.969 1407.6 701.562 1407.82 701.159C1408.03 700.755 1408.33 700.391 1408.73 700.065C1409.13 699.733 1409.61 699.471 1410.17 699.28C1410.74 699.082 1411.37 698.983 1412.06 698.983C1412.9 698.983 1413.63 699.124 1414.27 699.407C1414.91 699.69 1415.41 700.119 1415.78 700.692C1416.14 701.258 1416.33 701.969 1416.33 702.825V708.174C1416.33 708.556 1416.36 708.963 1416.42 709.394C1416.49 709.826 1416.6 710.197 1416.73 710.508V710.678H1414.68C1414.58 710.452 1414.51 710.151 1414.45 709.776C1414.39 709.394 1414.36 709.04 1414.36 708.715ZM1414.7 703.716L1414.72 705.096H1412.74C1412.18 705.096 1411.68 705.142 1411.24 705.234C1410.8 705.319 1410.44 705.45 1410.14 705.627C1409.84 705.803 1409.62 706.026 1409.46 706.295C1409.3 706.557 1409.23 706.865 1409.23 707.219C1409.23 707.579 1409.31 707.908 1409.47 708.206C1409.63 708.503 1409.88 708.74 1410.2 708.917C1410.54 709.086 1410.94 709.171 1411.42 709.171C1412.03 709.171 1412.56 709.044 1413.02 708.789C1413.48 708.534 1413.84 708.223 1414.11 707.855C1414.38 707.487 1414.53 707.13 1414.55 706.783L1415.39 707.728C1415.34 708.025 1415.21 708.354 1414.99 708.715C1414.77 709.076 1414.48 709.422 1414.11 709.755C1413.75 710.08 1413.32 710.353 1412.81 710.572C1412.32 710.784 1411.76 710.891 1411.14 710.891C1410.36 710.891 1409.68 710.738 1409.09 710.434C1408.51 710.13 1408.06 709.723 1407.73 709.214C1407.41 708.697 1407.25 708.121 1407.25 707.484C1407.25 706.868 1407.37 706.327 1407.61 705.86C1407.85 705.386 1408.2 704.993 1408.65 704.682C1409.11 704.364 1409.65 704.123 1410.29 703.96C1410.93 703.798 1411.64 703.716 1412.42 703.716H1414.7ZM1426.1 707.632C1426.1 707.349 1426.04 707.088 1425.91 706.847C1425.79 706.599 1425.54 706.377 1425.16 706.178C1424.78 705.973 1424.22 705.796 1423.46 705.648C1422.82 705.513 1422.25 705.354 1421.73 705.17C1421.22 704.986 1420.78 704.763 1420.42 704.502C1420.07 704.24 1419.8 703.932 1419.61 703.578C1419.42 703.225 1419.32 702.811 1419.32 702.337C1419.32 701.884 1419.42 701.456 1419.62 701.052C1419.82 700.649 1420.11 700.292 1420.48 699.981C1420.85 699.669 1421.3 699.425 1421.82 699.248C1422.35 699.071 1422.93 698.983 1423.58 698.983C1424.5 698.983 1425.28 699.146 1425.93 699.471C1426.58 699.797 1427.08 700.232 1427.43 700.777C1427.77 701.314 1427.95 701.912 1427.95 702.57H1425.98C1425.98 702.252 1425.89 701.944 1425.7 701.647C1425.51 701.343 1425.24 701.091 1424.88 700.893C1424.53 700.695 1424.09 700.596 1423.58 700.596C1423.03 700.596 1422.59 700.681 1422.25 700.851C1421.92 701.014 1421.67 701.222 1421.52 701.477C1421.37 701.732 1421.29 702.001 1421.29 702.284C1421.29 702.496 1421.33 702.687 1421.4 702.857C1421.48 703.019 1421.61 703.171 1421.8 703.313C1421.99 703.447 1422.26 703.575 1422.61 703.695C1422.96 703.815 1423.4 703.936 1423.94 704.056C1424.88 704.268 1425.65 704.523 1426.26 704.82C1426.87 705.117 1427.32 705.482 1427.62 705.913C1427.92 706.345 1428.06 706.868 1428.06 707.484C1428.06 707.986 1427.96 708.446 1427.75 708.863C1427.54 709.281 1427.24 709.642 1426.84 709.946C1426.46 710.243 1425.99 710.477 1425.44 710.646C1424.91 710.809 1424.3 710.891 1423.63 710.891C1422.62 710.891 1421.76 710.71 1421.06 710.349C1420.36 709.988 1419.83 709.521 1419.47 708.948C1419.11 708.375 1418.93 707.77 1418.93 707.134H1420.9C1420.93 707.671 1421.09 708.099 1421.37 708.418C1421.65 708.729 1422 708.952 1422.41 709.086C1422.82 709.214 1423.23 709.277 1423.63 709.277C1424.17 709.277 1424.62 709.207 1424.98 709.065C1425.34 708.924 1425.62 708.729 1425.81 708.481C1426.01 708.234 1426.1 707.951 1426.1 707.632ZM1432.61 694.377V710.678H1430.64V694.377H1432.61ZM1432.14 704.502L1431.32 704.47C1431.33 703.684 1431.45 702.959 1431.67 702.294C1431.9 701.622 1432.22 701.038 1432.63 700.543C1433.04 700.048 1433.53 699.666 1434.09 699.397C1434.67 699.121 1435.3 698.983 1435.99 698.983C1436.56 698.983 1437.07 699.061 1437.52 699.216C1437.97 699.365 1438.36 699.606 1438.68 699.938C1439 700.271 1439.25 700.702 1439.42 701.233C1439.59 701.756 1439.68 702.397 1439.68 703.154V710.678H1437.7V703.133C1437.7 702.531 1437.61 702.05 1437.44 701.689C1437.26 701.321 1437 701.056 1436.66 700.893C1436.32 700.723 1435.9 700.639 1435.41 700.639C1434.92 700.639 1434.47 700.741 1434.07 700.946C1433.68 701.152 1433.33 701.435 1433.04 701.795C1432.76 702.156 1432.54 702.57 1432.37 703.037C1432.22 703.497 1432.14 703.985 1432.14 704.502ZM1442.6 694.377H1444.58V708.45L1444.41 710.678H1442.6V694.377ZM1452.34 704.841V705.064C1452.34 705.899 1452.24 706.674 1452.04 707.388C1451.84 708.096 1451.55 708.711 1451.17 709.235C1450.79 709.759 1450.32 710.165 1449.77 710.455C1449.22 710.745 1448.58 710.891 1447.87 710.891C1447.14 710.891 1446.5 710.767 1445.95 710.519C1445.4 710.264 1444.94 709.9 1444.57 709.426C1444.19 708.952 1443.89 708.379 1443.67 707.707C1443.45 707.035 1443.29 706.278 1443.21 705.436V704.459C1443.29 703.61 1443.45 702.85 1443.67 702.177C1443.89 701.505 1444.19 700.932 1444.57 700.458C1444.94 699.977 1445.4 699.613 1445.95 699.365C1446.49 699.11 1447.13 698.983 1447.85 698.983C1448.57 698.983 1449.21 699.124 1449.77 699.407C1450.33 699.683 1450.79 700.08 1451.17 700.596C1451.55 701.113 1451.84 701.732 1452.04 702.453C1452.24 703.168 1452.34 703.964 1452.34 704.841ZM1450.36 705.064V704.841C1450.36 704.268 1450.31 703.73 1450.2 703.228C1450.1 702.719 1449.93 702.273 1449.69 701.891C1449.46 701.502 1449.15 701.198 1448.77 700.978C1448.39 700.752 1447.92 700.639 1447.36 700.639C1446.86 700.639 1446.43 700.723 1446.06 700.893C1445.7 701.063 1445.4 701.293 1445.14 701.583C1444.89 701.866 1444.68 702.192 1444.51 702.559C1444.36 702.92 1444.24 703.295 1444.16 703.684V706.242C1444.28 706.737 1444.46 707.215 1444.72 707.675C1444.98 708.128 1445.32 708.499 1445.76 708.789C1446.2 709.079 1446.74 709.224 1447.38 709.224C1447.91 709.224 1448.36 709.118 1448.74 708.906C1449.12 708.687 1449.43 708.386 1449.66 708.004C1449.9 707.622 1450.08 707.18 1450.19 706.677C1450.31 706.175 1450.36 705.637 1450.36 705.064ZM1454.3 705.064V704.82C1454.3 703.992 1454.42 703.225 1454.66 702.517C1454.9 701.802 1455.25 701.183 1455.7 700.66C1456.15 700.129 1456.7 699.719 1457.35 699.429C1457.99 699.132 1458.71 698.983 1459.51 698.983C1460.32 698.983 1461.04 699.132 1461.69 699.429C1462.34 699.719 1462.89 700.129 1463.34 700.66C1463.8 701.183 1464.15 701.802 1464.39 702.517C1464.63 703.225 1464.75 703.992 1464.75 704.82V705.064C1464.75 705.892 1464.63 706.66 1464.39 707.367C1464.15 708.075 1463.8 708.694 1463.34 709.224C1462.89 709.748 1462.34 710.158 1461.7 710.455C1461.06 710.745 1460.34 710.891 1459.53 710.891C1458.73 710.891 1458 710.745 1457.36 710.455C1456.71 710.158 1456.16 709.748 1455.7 709.224C1455.25 708.694 1454.9 708.075 1454.66 707.367C1454.42 706.66 1454.3 705.892 1454.3 705.064ZM1456.26 704.82V705.064C1456.26 705.637 1456.33 706.178 1456.46 706.688C1456.6 707.19 1456.8 707.636 1457.07 708.025C1457.35 708.414 1457.69 708.722 1458.1 708.948C1458.51 709.168 1458.99 709.277 1459.53 709.277C1460.07 709.277 1460.54 709.168 1460.94 708.948C1461.35 708.722 1461.69 708.414 1461.96 708.025C1462.23 707.636 1462.43 707.19 1462.57 706.688C1462.71 706.178 1462.78 705.637 1462.78 705.064V704.82C1462.78 704.254 1462.71 703.72 1462.57 703.217C1462.43 702.708 1462.23 702.259 1461.95 701.87C1461.68 701.473 1461.34 701.162 1460.93 700.936C1460.53 700.709 1460.06 700.596 1459.51 700.596C1458.97 700.596 1458.5 700.709 1458.09 700.936C1457.69 701.162 1457.35 701.473 1457.07 701.87C1456.8 702.259 1456.6 702.708 1456.46 703.217C1456.33 703.72 1456.26 704.254 1456.26 704.82ZM1473.99 708.715V702.804C1473.99 702.351 1473.89 701.958 1473.71 701.626C1473.53 701.286 1473.26 701.024 1472.9 700.84C1472.54 700.656 1472.1 700.564 1471.57 700.564C1471.07 700.564 1470.64 700.649 1470.26 700.819C1469.89 700.989 1469.6 701.212 1469.39 701.488C1469.19 701.764 1469.08 702.061 1469.08 702.379H1467.12C1467.12 701.969 1467.23 701.562 1467.44 701.159C1467.65 700.755 1467.95 700.391 1468.35 700.065C1468.75 699.733 1469.24 699.471 1469.79 699.28C1470.36 699.082 1470.99 698.983 1471.68 698.983C1472.52 698.983 1473.25 699.124 1473.89 699.407C1474.53 699.69 1475.04 700.119 1475.4 700.692C1475.77 701.258 1475.95 701.969 1475.95 702.825V708.174C1475.95 708.556 1475.98 708.963 1476.05 709.394C1476.12 709.826 1476.22 710.197 1476.35 710.508V710.678H1474.3C1474.21 710.452 1474.13 710.151 1474.07 709.776C1474.01 709.394 1473.99 709.04 1473.99 708.715ZM1474.33 703.716L1474.35 705.096H1472.36C1471.8 705.096 1471.3 705.142 1470.87 705.234C1470.43 705.319 1470.06 705.45 1469.76 705.627C1469.47 705.803 1469.24 706.026 1469.08 706.295C1468.93 706.557 1468.85 706.865 1468.85 707.219C1468.85 707.579 1468.93 707.908 1469.09 708.206C1469.26 708.503 1469.5 708.74 1469.83 708.917C1470.16 709.086 1470.57 709.171 1471.05 709.171C1471.65 709.171 1472.18 709.044 1472.64 708.789C1473.1 708.534 1473.46 708.223 1473.73 707.855C1474.01 707.487 1474.16 707.13 1474.18 706.783L1475.02 707.728C1474.97 708.025 1474.83 708.354 1474.61 708.715C1474.39 709.076 1474.1 709.422 1473.73 709.755C1473.37 710.08 1472.94 710.353 1472.44 710.572C1471.94 710.784 1471.38 710.891 1470.76 710.891C1469.98 710.891 1469.3 710.738 1468.71 710.434C1468.13 710.13 1467.68 709.723 1467.35 709.214C1467.04 708.697 1466.88 708.121 1466.88 707.484C1466.88 706.868 1467 706.327 1467.24 705.86C1467.48 705.386 1467.82 704.993 1468.28 704.682C1468.73 704.364 1469.27 704.123 1469.91 703.96C1470.55 703.798 1471.26 703.716 1472.04 703.716H1474.33ZM1481 700.999V710.678H1479.04V699.195H1480.95L1481 700.999ZM1484.59 699.132L1484.58 700.957C1484.42 700.922 1484.26 700.9 1484.11 700.893C1483.97 700.879 1483.81 700.872 1483.62 700.872C1483.17 700.872 1482.77 700.943 1482.42 701.084C1482.08 701.226 1481.78 701.424 1481.54 701.679C1481.3 701.933 1481.11 702.238 1480.97 702.591C1480.84 702.938 1480.75 703.32 1480.7 703.738L1480.15 704.056C1480.15 703.363 1480.22 702.712 1480.35 702.103C1480.5 701.495 1480.71 700.957 1481 700.49C1481.29 700.016 1481.66 699.648 1482.11 699.386C1482.56 699.117 1483.1 698.983 1483.72 698.983C1483.86 698.983 1484.02 699.001 1484.21 699.036C1484.39 699.064 1484.52 699.096 1484.59 699.132ZM1493.43 708.45V694.377H1495.4V710.678H1493.6L1493.43 708.45ZM1485.7 705.064V704.841C1485.7 703.964 1485.81 703.168 1486.02 702.453C1486.24 701.732 1486.55 701.113 1486.94 700.596C1487.35 700.08 1487.83 699.683 1488.38 699.407C1488.94 699.124 1489.56 698.983 1490.25 698.983C1490.97 698.983 1491.6 699.11 1492.13 699.365C1492.68 699.613 1493.14 699.977 1493.51 700.458C1493.9 700.932 1494.2 701.505 1494.42 702.177C1494.64 702.85 1494.79 703.61 1494.87 704.459V705.436C1494.79 706.278 1494.64 707.035 1494.42 707.707C1494.2 708.379 1493.9 708.952 1493.51 709.426C1493.14 709.9 1492.68 710.264 1492.13 710.519C1491.59 710.767 1490.95 710.891 1490.22 710.891C1489.55 710.891 1488.94 710.745 1488.38 710.455C1487.83 710.165 1487.35 709.759 1486.94 709.235C1486.55 708.711 1486.24 708.096 1486.02 707.388C1485.81 706.674 1485.7 705.899 1485.7 705.064ZM1487.68 704.841V705.064C1487.68 705.637 1487.73 706.175 1487.85 706.677C1487.97 707.18 1488.15 707.622 1488.4 708.004C1488.65 708.386 1488.96 708.687 1489.34 708.906C1489.73 709.118 1490.18 709.224 1490.71 709.224C1491.36 709.224 1491.9 709.086 1492.31 708.81C1492.74 708.534 1493.08 708.17 1493.33 707.717C1493.59 707.264 1493.79 706.773 1493.93 706.242V703.684C1493.84 703.295 1493.72 702.92 1493.56 702.559C1493.4 702.192 1493.2 701.866 1492.94 701.583C1492.69 701.293 1492.39 701.063 1492.02 700.893C1491.66 700.723 1491.23 700.639 1490.73 700.639C1490.2 700.639 1489.73 700.752 1489.34 700.978C1488.96 701.198 1488.65 701.502 1488.4 701.891C1488.15 702.273 1487.97 702.719 1487.85 703.228C1487.73 703.73 1487.68 704.268 1487.68 704.841Z" fill="black"/>
<path d="M1334.54 712.801H1496.95V713.862H1334.54V712.801Z" fill="black"/>
<path d="M1348.64 622.129H1303.97C1300.61 622.129 1297.88 619.403 1297.88 616.039V571.375C1297.88 568.011 1300.61 565.284 1303.97 565.284H1348.64C1352 565.284 1354.73 568.011 1354.73 571.375V616.039C1354.73 619.403 1352 622.129 1348.64 622.129ZM1322.67 609.687L1346.01 586.34C1346.81 585.547 1346.81 584.261 1346.01 583.469L1343.14 580.598C1342.35 579.805 1341.06 579.805 1340.27 580.598L1321.23 599.638L1312.34 590.748C1311.55 589.956 1310.26 589.956 1309.47 590.748L1306.6 593.62C1305.81 594.412 1305.81 595.698 1306.6 596.491L1319.8 609.687C1320.59 610.48 1321.87 610.48 1322.67 609.687Z" fill="#55229E"/>
</g>
<defs>
<clipPath id="clip0_332_233">
<rect width="1728" height="1117" fill="white"/>
</clipPath>
<clipPath id="clip1_332_233">
<rect width="39.8233" height="39.8233" fill="white" transform="translate(1500.08 525.814)"/>
</clipPath>
</defs>
</svg>
